{
.appVersion = "1271";
DisplayStrings = (
Ianne
);
classes = (
{
automatic = 1;

glyphs = (
{
color = 3;
glyphname = A;
lastChange = "2019-10-22 13:41:05 +0000";
layers = (
{
anchors = (
{
name = bottom;
position = "{359, 0}";
},
{
name = ogonek;
position = "{682, 0}";
},
{
name = top;
position = "{359, 705}";
}
);
background = {
anchors = (
{
name = bottom;
position = "{359, 0}";
},
{
name = ogonek;
position = "{682, 0}";
},
{
name = top;
position = "{359, 705}";
}
);
paths = (
{
closed = 1;
nodes = (
"80 0 LINE",
"167 204 LINE",
"139 195 LINE",
"575 195 LINE",
"548 204 LINE",
"636 0 LINE",
"681 0 LINE",
"378 705 LINE",
"338 705 LINE",
"35 0 LINE"
);
},
{
closed = 1;
nodes = (
"359 648 LINE",
"538 228 LINE",
"558 234 LINE",
"156 234 LINE",
"178 228 LINE",
"357 648 LINE"
);
}
);
};
layerId = "F1F93986-3ED8-4AAE-84C4-CA3EEECDDFA0";
paths = (
{
closed = 1;
nodes = (
"70 -6 OFFCURVE",
"80 0 OFFCURVE",
"86 15 CURVE SMOOTH",
"167 204 LINE",
"139 195 LINE",
"575 195 LINE",
"548 204 LINE",
"629 15 LINE SMOOTH",
"634 3 OFFCURVE",
"643 -6 OFFCURVE",
"656 -6 CURVE SMOOTH",
"675 -6 OFFCURVE",
"678 8 OFFCURVE",
"670 26 CURVE SMOOTH",
"384 690 LINE SMOOTH",
"378 705 OFFCURVE",
"368 711 OFFCURVE",
"358 711 CURVE SMOOTH",
"348 711 OFFCURVE",
"338 705 OFFCURVE",
"332 690 CURVE SMOOTH",
"46 26 LINE SMOOTH",
"38 8 OFFCURVE",
"42 -6 OFFCURVE",
"62 -6 CURVE SMOOTH"
);
},
{
closed = 1;
nodes = (
"359 648 LINE",
"538 228 LINE",
"558 234 LINE",
"156 234 LINE",
"178 228 LINE",
"357 648 LINE"
);
}
);
width = 716;
},
{
anchors = (
{
name = bottom;
position = "{387, 0}";
},
{
name = ogonek;
position = "{726, 0}";
},
{
name = top;
position = "{386, 705}";
}
);
background = {
anchors = (
{
name = bottom;
position = "{387, 0}";
},
{
name = ogonek;
position = "{726, 0}";
},
{
name = top;
position = "{386, 705}";
}
);
paths = (
{
closed = 1;
nodes = (
"181 0 LINE",
"263 191 LINE",
"183 131 LINE",
"590 131 LINE",
"510 191 LINE",
"592 0 LINE",
"806 0 LINE",
"471 705 LINE",
"302 705 LINE",
"-33 0 LINE"
);
},
{
closed = 1;
nodes = (
"387 483 LINE",
"490 238 LINE",
"520 295 LINE",
"253 295 LINE",
"283 238 LINE",
"385 483 LINE"
);
}
);
};
layerId = "4121B50C-FD42-45C5-8FBE-41E76D98F91E";
paths = (
{
closed = 1;
nodes = (
"166 -10 OFFCURVE",
"188 16 OFFCURVE",
"215 79 CURVE SMOOTH",
"263 191 LINE",
"183 131 LINE",
"590 131 LINE",
"510 191 LINE",
"558 79 LINE SMOOTH",
"585 16 OFFCURVE",
"612 -10 OFFCURVE",
"674 -10 CURVE SMOOTH",
"744 -10 OFFCURVE",
"785 43 OFFCURVE",
"749 120 CURVE SMOOTH",
"508 628 LINE SMOOTH",
"480 688 OFFCURVE",
"440 715 OFFCURVE",
"387 715 CURVE SMOOTH",
"333 715 OFFCURVE",
"293 688 OFFCURVE",
"265 628 CURVE SMOOTH",
"24 120 LINE SMOOTH",
"-11 46 OFFCURVE",
"32 -10 OFFCURVE",
"105 -10 CURVE SMOOTH"
);
},
{
closed = 1;
nodes = (
"387 483 LINE",
"490 238 LINE",
"520 295 LINE",
"253 295 LINE",
"283 238 LINE",
"385 483 LINE"
);
}
);
width = 773;
},
{
anchors = (
{
name = bottom;
position = "{337, 0}";
},
{
name = ogonek;
position = "{645, 0}";
},
{
name = top;
position = "{434, 705}";
}
);
background = {
anchors = (
{
name = bottom;
position = "{337, 0}";
},
{
name = ogonek;
position = "{645, 0}";
},
{
name = top;
position = "{434, 705}";
}
);
paths = (
{
closed = 1;
nodes = (
"46 0 LINE",
"166 204 LINE",
"134 195 LINE",
"570 195 LINE",
"546 204 LINE",
"601 0 LINE",
"643 0 LINE",
"452 705 LINE",
"412 705 LINE",
"-3 0 LINE"
);
},
{
closed = 1;
nodes = (
"427 648 LINE",
"539 228 LINE",
"559 234 LINE",
"157 234 LINE",
"180 228 LINE",
"425 648 LINE"
);
}
);
};
layerId = "D8D4984A-F5A5-43C0-BF2B-5708C10C5E92";
paths = (
{
closed = 1;
nodes = (
"38 -6 OFFCURVE",
"46 -1 OFFCURVE",
"52 10 CURVE SMOOTH",
"166 204 LINE",
"134 195 LINE",
"570 195 LINE",
"546 204 LINE",
"596 16 LINE SMOOTH",
"599 3 OFFCURVE",
"609 -6 OFFCURVE",
"620 -6 CURVE SMOOTH",
"633 -6 OFFCURVE",
"642 3 OFFCURVE",
"635 29 CURVE SMOOTH",
"455 695 LINE SMOOTH",
"452 705 OFFCURVE",
"445 711 OFFCURVE",
"433 711 CURVE SMOOTH",
"422 711 OFFCURVE",
"413 707 OFFCURVE",
"407 696 CURVE SMOOTH",
"13 27 LINE SMOOTH",
"2 8 OFFCURVE",
"13 -6 OFFCURVE",
"29 -6 CURVE SMOOTH"
);
},
{
closed = 1;
nodes = (
"427 648 LINE",
"539 228 LINE",
"559 234 LINE",
"157 234 LINE",
"180 228 LINE",
"425 648 LINE"
);
}
);
width = 716;
},
{
anchors = (
{
name = bottom;
position = "{368, 0}";
},
{
name = ogonek;
position = "{683, 0}";
},
{
name = top;
position = "{456, 705}";
}
);
background = {
anchors = (
{
name = bottom;
position = "{368, 0}";
},
{
name = ogonek;
position = "{683, 0}";
},
{
name = top;
position = "{456, 705}";
}
);
paths = (
{
closed = 1;
nodes = (
"150 0 LINE",
"250 170 LINE",
"182 131 LINE",
"573 131 LINE",
"517 175 LINE",
"562 0 LINE",
"767 0 LINE",
"545 705 LINE",
"375 705 LINE",
"-72 0 LINE"
);
},
{
closed = 1;
nodes = (
"436 483 LINE",
"497 251 LINE",
"531 295 LINE",
"278 295 LINE",
"300 256 LINE",
"434 483 LINE"
);
}
);
};
layerId = "C92D7C27-2246-4784-91DF-7F4E0C5E615D";
paths = (
{
closed = 1;
nodes = (
"124 -10 OFFCURVE",
"157 11 OFFCURVE",
"179 49 CURVE SMOOTH",
"250 170 LINE",
"182 131 LINE",
"573 131 LINE",
"517 175 LINE",
"540 82 LINE SMOOTH",
"557 17 OFFCURVE",
"585 -10 OFFCURVE",
"648 -10 CURVE SMOOTH",
"712 -10 OFFCURVE",
"757 32 OFFCURVE",
"731 115 CURVE SMOOTH",
"570 626 LINE SMOOTH",
"551 686 OFFCURVE",
"515 715 OFFCURVE",
"457 715 CURVE SMOOTH",
"399 715 OFFCURVE",
"368 694 OFFCURVE",
"336 644 CURVE SMOOTH",
"-1 111 LINE SMOOTH",
"-44 43 OFFCURVE",
"-1 -10 OFFCURVE",
"75 -10 CURVE SMOOTH"
);
},
{
closed = 1;
nodes = (
"436 483 LINE",
"497 251 LINE",
"531 295 LINE",
"278 295 LINE",
"300 256 LINE",
"434 483 LINE"
);
}
);
width = 773;
}
);
leftKerningGroup = A;
rightKerningGroup = A;
unicode = 0041;
userData = {
anchors = (
);
b = {
};
com.typemytype.robofont.layerData = {
b = {
anchors = (
);
components = (
);
contours = (
{
points = (
{
segmentType = line;
smooth = 0;
x = 403;
y = 502;
},
{
segmentType = line;
smooth = 0;
x = 703;
y = 1275;
},
{
segmentType = line;
smooth = 0;
x = 705;
y = 1275;
},
{
segmentType = line;
smooth = 0;
x = 1004;
y = 502;
}
);
},
{
points = (
{
segmentType = curve;
smooth = 1;
x = 150;
y = 0;
},
{
smooth = 0;
x = 181;
y = 0;
},
{
smooth = 0;
x = 214;
y = 15;
},
{
segmentType = curve;
smooth = 1;
x = 229;
y = 53;
},
{
segmentType = line;
smooth = 0;
x = 356;
y = 373;
},
{
segmentType = line;
smooth = 0;
x = 1051;
y = 373;
},
{
segmentType = line;
smooth = 1;
x = 1179;
y = 53;
},
{
smooth = 0;
x = 1193;
y = 17;
},
{
smooth = 0;
x = 1228;
y = 0;
},
{
segmentType = curve;
smooth = 1;
x = 1260;
y = 0;
},
{
smooth = 0;
x = 1306;
y = 0;
},
{
smooth = 0;
x = 1354;
y = 31;
},
{
segmentType = curve;
smooth = 1;
x = 1354;
y = 80;
},
{
smooth = 0;
x = 1354;
y = 87;
},
{
smooth = 0;
x = 1352;
y = 97;
},
{
segmentType = curve;
smooth = 0;
x = 1349;
y = 108;
},
{
segmentType = line;
smooth = 1;
x = 871;
y = 1288;
},
{
smooth = 0;
x = 817;
y = 1420;
},
{
smooth = 0;
x = 777;
y = 1430;
},
{
segmentType = curve;
smooth = 1;
x = 710;
y = 1430;
},
{
smooth = 0;
x = 644;
y = 1430;
},
{
smooth = 0;
x = 596;
y = 1413;
},
{
segmentType = curve;
smooth = 1;
x = 542;
y = 1280;
},
{
segmentType = line;
smooth = 1;
x = 66;
y = 108;
},
{
smooth = 0;
x = 62;
y = 97;
},
{
smooth = 0;
x = 60;
y = 87;
},
{
segmentType = curve;
smooth = 1;
x = 60;
y = 78;
},
{
smooth = 0;
x = 60;
y = 32;
},
{
smooth = 0;
x = 106;
y = 0;
}
);
}
);
lib = {
};
name = A;
unicodes = (
);
width = 1414;
};
};
components = (
);
contours = {
};
lib = {
};
name = A;
points = {
};
segmentType = line;
unicodes = (
);
width = 1445;
x = 718;
y = 1232;
};
},
{
color = 3;
glyphname = AE;
lastChange = "2019-10-22 14:13:07 +0000";
layers = (
{
anchors = (
{
name = bottom;
position = "{487, 0}";
},
{
name = top;
position = "{486, 705}";
}
);
background = {
anchors = (
{
name = bottom;
position = "{487, 0}";
},
{
name = top;
position = "{486, 705}";
}
);
paths = (
{
closed = 1;
nodes = (
"49 0 LINE",
"172 207 LINE",
"153 195 LINE",
"548 195 LINE",
"528 207 LINE",
"571 0 LINE",
"921 0 LINE",
"921 39 LINE",
"586 39 LINE",
"607 20 LINE",
"538 348 LINE",
"525 338 LINE",
"901 338 LINE",
"901 377 LINE",
"517 377 LINE",
"534 366 LINE",
"466 690 LINE",
"459 666 LINE",
"921 666 LINE",
"921 705 LINE",
"422 705 LINE",
"2 0 LINE"
);
},
{
closed = 1;
nodes = (
"435 648 LINE",
"524 225 LINE",
"530 234 LINE",
"173 234 LINE",
"182 224 LINE",
"433 648 LINE"
);
}
);
};
guideLines = (
{
angle = 101.863;
position = "{499, 338}";
},
{
angle = 239.3238;
position = "{250, 338}";
}
);
layerId = "F1F93986-3ED8-4AAE-84C4-CA3EEECDDFA0";
paths = (
{
closed = 1;
nodes = (
"41 -6 OFFCURVE",
"49 -1 OFFCURVE",
"55 10 CURVE SMOOTH",
"172 207 LINE",
"153 195 LINE",
"548 195 LINE",
"528 207 LINE",
"567 20 LINE SMOOTH",
"570 7 OFFCURVE",
"578 0 OFFCURVE",
"592 0 CURVE SMOOTH",
"904 0 LINE SMOOTH",
"919 0 OFFCURVE",
"927 7 OFFCURVE",
"927 20 CURVE SMOOTH",
"927 32 OFFCURVE",
"919 39 OFFCURVE",
"904 39 CURVE SMOOTH",
"586 39 LINE",
"607 20 LINE",
"538 348 LINE",
"525 338 LINE",
"884 338 LINE SMOOTH",
"899 338 OFFCURVE",
"907 345 OFFCURVE",
"907 358 CURVE SMOOTH",
"907 370 OFFCURVE",
"899 377 OFFCURVE",
"884 377 CURVE SMOOTH",
"517 377 LINE",
"534 366 LINE",
"466 690 LINE",
"459 666 LINE",
"904 666 LINE SMOOTH",
"919 666 OFFCURVE",
"927 673 OFFCURVE",
"927 686 CURVE SMOOTH",
"927 698 OFFCURVE",
"919 705 OFFCURVE",
"904 705 CURVE SMOOTH",
"440 705 LINE SMOOTH",
"428 705 OFFCURVE",
"419 700 OFFCURVE",
"413 689 CURVE SMOOTH",
"15 22 LINE SMOOTH",
"6 7 OFFCURVE",
"12 -6 OFFCURVE",
"31 -6 CURVE SMOOTH"
);
},
{
closed = 1;
nodes = (
"435 648 LINE",
"524 225 LINE",
"530 234 LINE",
"173 234 LINE",
"182 224 LINE",
"433 648 LINE"
);
}
);
width = 971;
},
{
anchors = (
{
name = bottom;
position = "{489, 0}";
},
{
name = top;
position = "{490, 705}";
}
);
background = {
anchors = (
{
name = bottom;
position = "{489, 0}";
},
{
name = top;
position = "{490, 705}";
}
);
paths = (
{
closed = 1;
nodes = (
"150 0 LINE",
"261 186 LINE",
"184 131 LINE",
"562 131 LINE",
"498 194 LINE",
"541 0 LINE",
"961 0 LINE",
"961 164 LINE",
"636 164 LINE",
"706 109 LINE",
"655 335 LINE",
"613 276 LINE",
"938 276 LINE",
"938 440 LINE",
"576 440 LINE",
"645 381 LINE",
"600 584 LINE",
"546 541 LINE",
"961 541 LINE",
"961 705 LINE",
"382 705 LINE",
"-74 0 LINE"
);
},
{
closed = 1;
nodes = (
"435 476 LINE",
"489 235 LINE",
"531 295 LINE",
"285 295 LINE",
"294 243 LINE",
"433 476 LINE"
);
}
);
};
guideLines = (
{
angle = 102.61;
position = "{478, 262}";
},
{
angle = 102.61;
position = "{672, 261}";
},
{
angle = 59.2623;
position = "{306, 262}";
}
);
layerId = "4121B50C-FD42-45C5-8FBE-41E76D98F91E";
paths = (
{
closed = 1;
nodes = (
"131 -10 OFFCURVE",
"157 13 OFFCURVE",
"182 54 CURVE SMOOTH",
"261 186 LINE",
"184 131 LINE",
"562 131 LINE",
"498 194 LINE",
"525 73 LINE SMOOTH",
"536 24 OFFCURVE",
"566 0 OFFCURVE",
"616 0 CURVE SMOOTH",
"888 0 LINE SMOOTH",
"942 0 OFFCURVE",
"971 29 OFFCURVE",
"971 82 CURVE SMOOTH",
"971 135 OFFCURVE",
"942 164 OFFCURVE",
"888 164 CURVE SMOOTH",
"636 164 LINE",
"706 109 LINE",
"655 335 LINE",
"613 276 LINE",
"865 276 LINE SMOOTH",
"919 276 OFFCURVE",
"948 305 OFFCURVE",
"948 358 CURVE SMOOTH",
"948 411 OFFCURVE",
"919 440 OFFCURVE",
"865 440 CURVE SMOOTH",
"576 440 LINE",
"645 381 LINE",
"600 584 LINE",
"546 541 LINE",
"888 541 LINE SMOOTH",
"942 541 OFFCURVE",
"971 570 OFFCURVE",
"971 623 CURVE SMOOTH",
"971 676 OFFCURVE",
"942 705 OFFCURVE",
"888 705 CURVE SMOOTH",
"447 705 LINE SMOOTH",
"402 705 OFFCURVE",
"371 689 OFFCURVE",
"347 651 CURVE SMOOTH",
"4 120 LINE SMOOTH",
"-37 56 OFFCURVE",
"-17 -10 OFFCURVE",
"76 -10 CURVE SMOOTH"
);
},
{
closed = 1;
nodes = (
"435 476 LINE",
"489 235 LINE",
"531 295 LINE",
"285 295 LINE",
"294 243 LINE",
"433 476 LINE"
);
}
);
width = 1014;
},
{
anchors = (
{
name = bottom;
position = "{448, 0}";
},
{
name = top;
position = "{544, 705}";
}
);
background = {
anchors = (
{
name = bottom;
position = "{448, 0}";
},
{
name = top;
position = "{544, 705}";
}
);
paths = (
{
closed = 1;
nodes = (
"12 0 LINE",
"168 207 LINE",
"147 195 LINE",
"542 195 LINE",
"524 207 LINE",
"534 0 LINE",
"883 0 LINE",
"890 39 LINE",
"554 39 LINE",
"572 20 LINE",
"554 348 LINE",
"540 338 LINE",
"917 338 LINE",
"923 377 LINE",
"538 377 LINE",
"553 366 LINE",
"537 690 LINE",
"526 666 LINE",
"989 666 LINE",
"995 705 LINE",
"495 705 LINE",
"-37 0 LINE"
);
},
{
closed = 1;
nodes = (
"501 648 LINE",
"523 225 LINE",
"530 234 LINE",
"173 234 LINE",
"181 224 LINE",
"499 648 LINE"
);
}
);
};
guideLines = (
{
angle = 101.863;
position = "{583, 338}";
},
{
angle = 239.3238;
position = "{334, 338}";
}
);
layerId = "D8D4984A-F5A5-43C0-BF2B-5708C10C5E92";
paths = (
{
closed = 1;
nodes = (
"4 -6 OFFCURVE",
"11 -2 OFFCURVE",
"21 11 CURVE SMOOTH",
"168 207 LINE",
"147 195 LINE",
"542 195 LINE",
"524 207 LINE",
"533 21 LINE SMOOTH",
"534 7 OFFCURVE",
"541 0 OFFCURVE",
"555 0 CURVE SMOOTH",
"869 0 LINE SMOOTH",
"884 0 OFFCURVE",
"893 9 OFFCURVE",
"893 24 CURVE SMOOTH",
"893 34 OFFCURVE",
"885 39 OFFCURVE",
"872 39 CURVE SMOOTH",
"554 39 LINE",
"572 20 LINE",
"554 348 LINE",
"540 338 LINE",
"903 338 LINE SMOOTH",
"915 338 OFFCURVE",
"926 344 OFFCURVE",
"926 362 CURVE SMOOTH",
"926 372 OFFCURVE",
"918 377 OFFCURVE",
"905 377 CURVE SMOOTH",
"538 377 LINE",
"553 366 LINE",
"537 690 LINE",
"526 666 LINE",
"975 666 LINE SMOOTH",
"987 666 OFFCURVE",
"998 672 OFFCURVE",
"998 690 CURVE SMOOTH",
"998 700 OFFCURVE",
"990 705 OFFCURVE",
"977 705 CURVE SMOOTH",
"512 705 LINE SMOOTH",
"501 705 OFFCURVE",
"492 702 OFFCURVE",
"485 692 CURVE SMOOTH",
"-18 25 LINE SMOOTH",
"-30 10 OFFCURVE",
"-24 -6 OFFCURVE",
"-5 -6 CURVE SMOOTH"
);
},
{
closed = 1;
nodes = (
"501 648 LINE",
"523 225 LINE",
"530 234 LINE",
"173 234 LINE",
"181 224 LINE",
"499 648 LINE"
);
}
);
width = 971;
},
{
anchors = (
{
name = bottom;
position = "{450, 0}";
},
{
name = top;
position = "{552, 705}";
}
);
background = {
anchors = (
{
name = bottom;
position = "{450, 0}";
},
{
name = top;
position = "{552, 705}";
}
);
paths = (
{
closed = 1;
nodes = (
"119 0 LINE",
"259 186 LINE",
"174 131 LINE",
"552 131 LINE",
"497 194 LINE",
"510 0 LINE",
"922 0 LINE",
"948 164 LINE",
"623 164 LINE",
"684 109 LINE",
"669 335 LINE",
"617 276 LINE",
"942 276 LINE",
"968 440 LINE",
"606 440 LINE",
"666 381 LINE",
"653 584 LINE",
"592 541 LINE",
"1007 541 LINE",
"1033 705 LINE",
"454 705 LINE",
"-113 0 LINE"
);
},
{
closed = 1;
nodes = (
"479 476 LINE",
"495 235 LINE",
"546 295 LINE",
"300 295 LINE",
"301 243 LINE",
"477 476 LINE"
);
}
);
};
guideLines = (
{
angle = 93.734;
position = "{669, 347}";
},
{
angle = 93.734;
position = "{479, 347}";
}
);
layerId = "C92D7C27-2246-4784-91DF-7F4E0C5E615D";
paths = (
{
closed = 1;
nodes = (
"92 -10 OFFCURVE",
"123 6 OFFCURVE",
"149 40 CURVE SMOOTH",
"259 186 LINE",
"174 131 LINE",
"552 131 LINE",
"497 194 LINE",
"504 88 LINE SMOOTH",
"508 31 OFFCURVE",
"541 0 OFFCURVE",
"598 0 CURVE SMOOTH",
"848 0 LINE SMOOTH",
"909 0 OFFCURVE",
"946 37 OFFCURVE",
"946 97 CURVE SMOOTH",
"946 139 OFFCURVE",
"915 164 OFFCURVE",
"859 164 CURVE SMOOTH",
"623 164 LINE",
"684 109 LINE",
"669 335 LINE",
"617 276 LINE",
"868 276 LINE SMOOTH",
"929 276 OFFCURVE",
"966 313 OFFCURVE",
"966 373 CURVE SMOOTH",
"966 415 OFFCURVE",
"935 440 OFFCURVE",
"879 440 CURVE SMOOTH",
"606 440 LINE",
"666 381 LINE",
"653 584 LINE",
"592 541 LINE",
"933 541 LINE SMOOTH",
"994 541 OFFCURVE",
"1031 578 OFFCURVE",
"1031 638 CURVE SMOOTH",
"1031 680 OFFCURVE",
"1000 705 OFFCURVE",
"944 705 CURVE SMOOTH",
"522 705 LINE SMOOTH",
"474 705 OFFCURVE",
"441 690 OFFCURVE",
"411 652 CURVE SMOOTH",
"-20 116 LINE SMOOTH",
"-61 65 OFFCURVE",
"-41 -10 OFFCURVE",
"46 -10 CURVE SMOOTH"
);
},
{
closed = 1;
nodes = (
"479 476 LINE",
"495 235 LINE",
"546 295 LINE",
"300 295 LINE",
"301 243 LINE",
"477 476 LINE"
);
}
);
width = 1014;
}
);
leftKerningGroup = A;
rightKerningGroup = E;
unicode = 00C6;
userData = {
com.typemytype.robofont.layerData = {
b = {
anchors = (
);
components = (
);
contours = (
);
lib = {
};
name = AE;
unicodes = (
);
width = 1976;
};
};
};
},
{
color = 3;
glyphname = B;
lastChange = "2019-10-22 14:15:45 +0000";
layers = (
{
anchors = (
{
name = bottom;
position = "{337, 0}";
},
{
name = top;
position = "{336, 705}";
}
);
background = {
anchors = (
{
name = bottom;
position = "{337, 0}";
},
{
name = top;
position = "{336, 705}";
}
);
paths = (
{
closed = 1;
nodes = (
"367 0 LINE SMOOTH",
"513 0 OFFCURVE",
"595 65 OFFCURVE",
"595 191 CURVE SMOOTH",
"595 292 OFFCURVE",
"531 355 OFFCURVE",
"431 365 CURVE",
"431 351 LINE",
"521 370 OFFCURVE",
"579 431 OFFCURVE",
"579 520 CURVE SMOOTH",
"579 639 OFFCURVE",
"497 705 OFFCURVE",
"354 705 CURVE SMOOTH",
"96 705 LINE",
"96 0 LINE"
);
},
{
closed = 1;
nodes = (
"138 337 LINE",
"366 337 LINE SMOOTH",
"489 337 OFFCURVE",
"551 290 OFFCURVE",
"551 188 CURVE SMOOTH",
"551 86 OFFCURVE",
"489 39 OFFCURVE",
"366 39 CURVE SMOOTH",
"138 39 LINE"
);
},
{
closed = 1;
nodes = (
"138 666 LINE",
"351 666 LINE SMOOTH",
"471 666 OFFCURVE",
"535 615 OFFCURVE",
"535 521 CURVE SMOOTH",
"535 427 OFFCURVE",
"471 376 OFFCURVE",
"351 376 CURVE SMOOTH",
"138 376 LINE"
);
}
);
};
layerId = "F1F93986-3ED8-4AAE-84C4-CA3EEECDDFA0";
paths = (
{
closed = 1;
nodes = (
"367 0 LINE SMOOTH",
"513 0 OFFCURVE",
"595 65 OFFCURVE",
"595 191 CURVE SMOOTH",
"595 292 OFFCURVE",
"531 355 OFFCURVE",
"431 365 CURVE",
"431 351 LINE",
"521 370 OFFCURVE",
"579 431 OFFCURVE",
"579 520 CURVE SMOOTH",
"579 639 OFFCURVE",
"497 705 OFFCURVE",
"354 705 CURVE SMOOTH",
"121 705 LINE SMOOTH",
"105 705 OFFCURVE",
"96 696 OFFCURVE",
"96 680 CURVE SMOOTH",
"96 25 LINE SMOOTH",
"96 9 OFFCURVE",
"105 0 OFFCURVE",
"121 0 CURVE SMOOTH"
);
},
{
closed = 1;
nodes = (
"138 337 LINE",
"366 337 LINE SMOOTH",
"489 337 OFFCURVE",
"551 290 OFFCURVE",
"551 188 CURVE SMOOTH",
"551 86 OFFCURVE",
"489 39 OFFCURVE",
"366 39 CURVE SMOOTH",
"138 39 LINE"
);
},
{
closed = 1;
nodes = (
"138 666 LINE",
"351 666 LINE SMOOTH",
"471 666 OFFCURVE",
"535 615 OFFCURVE",
"535 521 CURVE SMOOTH",
"535 427 OFFCURVE",
"471 376 OFFCURVE",
"351 376 CURVE SMOOTH",
"138 376 LINE"
);
}
);
width = 666;
},
{
anchors = (
{
name = bottom;
position = "{353, 0}";
},
{
name = top;
position = "{353, 705}";
}
);
background = {
anchors = (
{
name = bottom;
position = "{353, 0}";
},
{
name = top;
position = "{353, 705}";
}
);
paths = (
{
closed = 1;
nodes = (
"424 0 LINE SMOOTH",
"579 0 OFFCURVE",
"676 79 OFFCURVE",
"676 202 CURVE SMOOTH",
"676 294 OFFCURVE",
"624 355 OFFCURVE",
"529 375 CURVE",
"529 358 LINE",
"608 379 OFFCURVE",
"657 441 OFFCURVE",
"657 523 CURVE SMOOTH",
"657 633 OFFCURVE",
"569 705 OFFCURVE",
"415 705 CURVE SMOOTH",
"57 705 LINE",
"57 0 LINE"
);
},
{
closed = 1;
nodes = (
"262 280 LINE",
"394 280 LINE SMOOTH",
"450 280 OFFCURVE",
"473 259 OFFCURVE",
"473 218 CURVE SMOOTH",
"473 177 OFFCURVE",
"450 156 OFFCURVE",
"394 156 CURVE SMOOTH",
"262 156 LINE"
);
},
{
closed = 1;
nodes = (
"262 549 LINE",
"375 549 LINE SMOOTH",
"431 549 OFFCURVE",
"453 533 OFFCURVE",
"453 493 CURVE SMOOTH",
"453 453 OFFCURVE",
"431 436 OFFCURVE",
"375 436 CURVE SMOOTH",
"262 436 LINE"
);
}
);
};
layerId = "4121B50C-FD42-45C5-8FBE-41E76D98F91E";
paths = (
{
closed = 1;
nodes = (
"424 0 LINE SMOOTH",
"579 0 OFFCURVE",
"676 79 OFFCURVE",
"676 202 CURVE SMOOTH",
"676 294 OFFCURVE",
"624 355 OFFCURVE",
"529 375 CURVE",
"529 358 LINE",
"608 379 OFFCURVE",
"657 441 OFFCURVE",
"657 523 CURVE SMOOTH",
"657 633 OFFCURVE",
"569 705 OFFCURVE",
"415 705 CURVE SMOOTH",
"168 705 LINE SMOOTH",
"96 705 OFFCURVE",
"57 666 OFFCURVE",
"57 594 CURVE SMOOTH",
"57 111 LINE SMOOTH",
"57 39 OFFCURVE",
"96 0 OFFCURVE",
"168 0 CURVE SMOOTH"
);
},
{
closed = 1;
nodes = (
"262 280 LINE",
"394 280 LINE SMOOTH",
"450 280 OFFCURVE",
"473 259 OFFCURVE",
"473 218 CURVE SMOOTH",
"473 177 OFFCURVE",
"450 156 OFFCURVE",
"394 156 CURVE SMOOTH",
"262 156 LINE"
);
},
{
closed = 1;
nodes = (
"262 549 LINE",
"375 549 LINE SMOOTH",
"431 549 OFFCURVE",
"453 533 OFFCURVE",
"453 493 CURVE SMOOTH",
"453 453 OFFCURVE",
"431 436 OFFCURVE",
"375 436 CURVE SMOOTH",
"262 436 LINE"
);
}
);
width = 710;
},
{
anchors = (
{
name = bottom;
position = "{300, 0}";
},
{
name = top;
position = "{411, 705}";
}
);
background = {
anchors = (
{
name = bottom;
position = "{300, 0}";
},
{
name = top;
position = "{411, 705}";
}
);
paths = (
{
closed = 1;
nodes = (
"346 0 LINE SMOOTH",
"503 0 OFFCURVE",
"588 70 OFFCURVE",
"588 207 CURVE SMOOTH",
"588 290 OFFCURVE",
"532 349 OFFCURVE",
"443 363 CURVE",
"443 349 LINE",
"554 363 OFFCURVE",
"625 434 OFFCURVE",
"625 541 CURVE SMOOTH",
"625 643 OFFCURVE",
"555 705 OFFCURVE",
"417 705 CURVE SMOOTH",
"170 705 LINE",
"58 0 LINE"
);
},
{
closed = 1;
nodes = (
"154 337 LINE",
"379 337 LINE SMOOTH",
"485 337 OFFCURVE",
"544 292 OFFCURVE",
"544 206 CURVE SMOOTH",
"544 96 OFFCURVE",
"479 39 OFFCURVE",
"350 39 CURVE SMOOTH",
"107 39 LINE"
);
},
{
closed = 1;
nodes = (
"206 666 LINE",
"414 666 LINE SMOOTH",
"527 666 OFFCURVE",
"581 622 OFFCURVE",
"581 540 CURVE SMOOTH",
"581 435 OFFCURVE",
"505 376 OFFCURVE",
"387 376 CURVE SMOOTH",
"160 376 LINE"
);
}
);
};
guideLines = (
{
position = "{324, 220}";
showMeasurement = 1;
}
);
layerId = "D8D4984A-F5A5-43C0-BF2B-5708C10C5E92";
paths = (
{
closed = 1;
nodes = (
"346 0 LINE SMOOTH",
"503 0 OFFCURVE",
"588 70 OFFCURVE",
"588 207 CURVE SMOOTH",
"588 290 OFFCURVE",
"532 349 OFFCURVE",
"443 363 CURVE",
"443 349 LINE",
"554 363 OFFCURVE",
"625 434 OFFCURVE",
"625 541 CURVE SMOOTH",
"625 643 OFFCURVE",
"555 705 OFFCURVE",
"417 705 CURVE SMOOTH",
"193 705 LINE SMOOTH",
"178 705 OFFCURVE",
"168 698 OFFCURVE",
"166 682 CURVE SMOOTH",
"62 27 LINE SMOOTH",
"59 10 OFFCURVE",
"68 0 OFFCURVE",
"85 0 CURVE SMOOTH"
);
},
{
closed = 1;
nodes = (
"154 337 LINE",
"379 337 LINE SMOOTH",
"485 337 OFFCURVE",
"544 292 OFFCURVE",
"544 206 CURVE SMOOTH",
"544 96 OFFCURVE",
"479 39 OFFCURVE",
"350 39 CURVE SMOOTH",
"107 39 LINE"
);
},
{
closed = 1;
nodes = (
"206 666 LINE",
"414 666 LINE SMOOTH",
"527 666 OFFCURVE",
"581 622 OFFCURVE",
"581 540 CURVE SMOOTH",
"581 435 OFFCURVE",
"505 376 OFFCURVE",
"387 376 CURVE SMOOTH",
"160 376 LINE"
);
}
);
width = 666;
},
{
anchors = (
{
name = bottom;
position = "{315, 0}";
},
{
name = top;
position = "{426, 705}";
}
);
background = {
anchors = (
{
name = bottom;
position = "{315, 0}";
},
{
name = top;
position = "{426, 705}";
}
);
paths = (
{
closed = 1;
nodes = (
"397 0 LINE SMOOTH",
"561 0 OFFCURVE",
"668 76 OFFCURVE",
"668 212 CURVE SMOOTH",
"668 293 OFFCURVE",
"619 355 OFFCURVE",
"532 372 CURVE",
"532 355 LINE",
"630 373 OFFCURVE",
"699 437 OFFCURVE",
"699 534 CURVE SMOOTH",
"699 628 OFFCURVE",
"636 705 OFFCURVE",
"463 705 CURVE SMOOTH",
"130 705 LINE",
"18 0 LINE"
);
},
{
closed = 1;
nodes = (
"268 280 LINE",
"393 280 LINE SMOOTH",
"440 280 OFFCURVE",
"465 263 OFFCURVE",
"465 227 CURVE SMOOTH",
"465 183 OFFCURVE",
"439 156 OFFCURVE",
"383 156 CURVE SMOOTH",
"248 156 LINE"
);
},
{
closed = 1;
nodes = (
"310 549 LINE",
"426 549 LINE SMOOTH",
"475 549 OFFCURVE",
"495 533 OFFCURVE",
"495 505 CURVE SMOOTH",
"495 458 OFFCURVE",
"467 436 OFFCURVE",
"406 436 CURVE SMOOTH",
"292 436 LINE"
);
}
);
};
guideLines = (
{
position = "{298, 541}";
showMeasurement = 1;
}
);
layerId = "C92D7C27-2246-4784-91DF-7F4E0C5E615D";
paths = (
{
closed = 1;
nodes = (
"397 0 LINE SMOOTH",
"561 0 OFFCURVE",
"668 76 OFFCURVE",
"668 212 CURVE SMOOTH",
"668 293 OFFCURVE",
"619 355 OFFCURVE",
"532 372 CURVE",
"532 355 LINE",
"630 373 OFFCURVE",
"699 437 OFFCURVE",
"699 534 CURVE SMOOTH",
"699 628 OFFCURVE",
"636 705 OFFCURVE",
"463 705 CURVE SMOOTH",
"233 705 LINE SMOOTH",
"165 705 OFFCURVE",
"125 670 OFFCURVE",
"114 603 CURVE SMOOTH",
"37 119 LINE SMOOTH",
"25 43 OFFCURVE",
"63 0 OFFCURVE",
"139 0 CURVE SMOOTH"
);
},
{
closed = 1;
nodes = (
"268 280 LINE",
"393 280 LINE SMOOTH",
"440 280 OFFCURVE",
"465 263 OFFCURVE",
"465 227 CURVE SMOOTH",
"465 183 OFFCURVE",
"439 156 OFFCURVE",
"383 156 CURVE SMOOTH",
"248 156 LINE"
);
},
{
closed = 1;
nodes = (
"310 549 LINE",
"426 549 LINE SMOOTH",
"475 549 OFFCURVE",
"495 533 OFFCURVE",
"495 505 CURVE SMOOTH",
"495 458 OFFCURVE",
"467 436 OFFCURVE",
"406 436 CURVE SMOOTH",
"292 436 LINE"
);
}
);
width = 710;
}
);
leftKerningGroup = H;
rightKerningGroup = B;
unicode = 0042;
userData = {
anchors = (
);
b = {
};
com.typemytype.robofont.layerData = {
b = {
anchors = (
);
components = (
);
contours = (
{
points = (
{
segmentType = curve;
smooth = 1;
x = 266;
y = 0;
},
{
segmentType = line;
smooth = 1;
x = 1035;
y = 0;
},
{
smooth = 0;
x = 1084;
y = 0;
},
{
smooth = 0;
x = 1108;
y = 36;
},
{
segmentType = curve;
smooth = 1;
x = 1108;
y = 73;
},
{
smooth = 0;
x = 1108;
y = 109;
},
{
smooth = 0;
x = 1084;
y = 145;
},
{
segmentType = curve;
smooth = 1;
x = 1035;
y = 145;
},
{
segmentType = line;
smooth = 0;
x = 353;
y = 145;
},
{
segmentType = line;
smooth = 0;
x = 353;
y = 662;
},
{
segmentType = line;
smooth = 1;
x = 975;
y = 662;
},
{
smooth = 0;
x = 1024;
y = 662;
},
{
smooth = 0;
x = 1049;
y = 698;
},
{
segmentType = curve;
smooth = 1;
x = 1049;
y = 734;
},
{
smooth = 0;
x = 1049;
y = 770;
},
{
smooth = 0;
x = 1026;
y = 806;
},
{
segmentType = curve;
smooth = 1;
x = 975;
y = 806;
},
{
segmentType = line;
smooth = 0;
x = 353;
y = 806;
},
{
segmentType = line;
smooth = 0;
x = 353;
y = 1281;
},
{
segmentType = line;
smooth = 1;
x = 1007;
y = 1281;
},
{
smooth = 0;
x = 1056;
y = 1281;
},
{
smooth = 0;
x = 1080;
y = 1317;
},
{
segmentType = curve;
smooth = 1;
x = 1080;
y = 1354;
},
{
smooth = 0;
x = 1080;
y = 1390;
},
{
smooth = 0;
x = 1056;
y = 1426;
},
{
segmentType = curve;
smooth = 1;
x = 1007;
y = 1426;
},
{
segmentType = line;
smooth = 1;
x = 261;
y = 1426;
},
{
smooth = 0;
x = 213;
y = 1426;
},
{
smooth = 0;
x = 178;
y = 1383;
},
{
segmentType = curve;
smooth = 1;
x = 178;
y = 1340;
},
{
segmentType = line;
smooth = 1;
x = 178;
y = 86;
},
{
smooth = 0;
x = 178;
y = 41;
},
{
smooth = 0;
x = 222;
y = 0;
}
);
}
);
lib = {
};
name = B;
unicodes = (
);
width = 1292;
};
};
components = (
);
contours = {
};
lib = {
};
name = B;
points = {
};
segmentType = curve;
unicodes = (
);
width = 1395;
x = 676;
y = 1260;
};
},
{
color = 3;
glyphname = C;
lastChange = "2019-10-22 14:36:39 +0000";
layers = (
{
anchors = (
{
name = bottom;
position = "{380, 0}";
},
{
name = top;
position = "{382, 705}";
}
);
background = {
anchors = (
{
name = bottom;
position = "{380, 0}";
},
{
name = top;
position = "{382, 705}";
}
);
paths = (
{
closed = 1;
nodes = (
"479 -8 OFFCURVE",
"561 24 OFFCURVE",
"619 87 CURVE",
"597 122 LINE",
"534 59 OFFCURVE",
"468 33 OFFCURVE",
"380 33 CURVE SMOOTH",
"208 33 OFFCURVE",
"112 150 OFFCURVE",
"112 353 CURVE SMOOTH",
"112 555 OFFCURVE",
"208 672 OFFCURVE",
"380 672 CURVE SMOOTH",
"468 672 OFFCURVE",
"534 646 OFFCURVE",
"597 583 CURVE",
"619 618 LINE",
"561 681 OFFCURVE",
"479 713 OFFCURVE",
"381 713 CURVE SMOOTH",
"183 713 OFFCURVE",
"67 576 OFFCURVE",
"67 353 CURVE SMOOTH",
"67 129 OFFCURVE",
"183 -8 OFFCURVE",
"381 -8 CURVE SMOOTH"
);
}
);
};
layerId = "F1F93986-3ED8-4AAE-84C4-CA3EEECDDFA0";
paths = (
{
closed = 1;
nodes = (
"474 -8 OFFCURVE",
"550 20 OFFCURVE",
"609 76 CURVE SMOOTH",
"631 96 OFFCURVE",
"606 130 OFFCURVE",
"581 107 CURVE SMOOTH",
"526 57 OFFCURVE",
"460 33 OFFCURVE",
"380 33 CURVE SMOOTH",
"208 33 OFFCURVE",
"112 150 OFFCURVE",
"112 353 CURVE SMOOTH",
"112 555 OFFCURVE",
"208 672 OFFCURVE",
"380 672 CURVE SMOOTH",
"462 672 OFFCURVE",
"527 648 OFFCURVE",
"581 599 CURVE SMOOTH",
"606 576 OFFCURVE",
"631 608 OFFCURVE",
"607 631 CURVE SMOOTH",
"552 684 OFFCURVE",
"472 713 OFFCURVE",
"381 713 CURVE SMOOTH",
"183 713 OFFCURVE",
"67 576 OFFCURVE",
"67 353 CURVE SMOOTH",
"67 129 OFFCURVE",
"183 -8 OFFCURVE",
"381 -8 CURVE SMOOTH"
);
}
);
width = 667;
},
{
anchors = (
{
name = bottom;
position = "{402, 0}";
},
{
name = top;
position = "{401, 705}";
}
);
background = {
anchors = (
{
name = bottom;
position = "{402, 0}";
},
{
name = top;
position = "{401, 705}";
}
);
paths = (
{
closed = 1;
nodes = (
"521 -12 OFFCURVE",
"617 19 OFFCURVE",
"669 63 CURVE",
"607 232 LINE",
"549 193 OFFCURVE",
"493 175 OFFCURVE",
"437 175 CURVE SMOOTH",
"323 175 OFFCURVE",
"268 237 OFFCURVE",
"268 353 CURVE SMOOTH",
"268 468 OFFCURVE",
"323 530 OFFCURVE",
"437 530 CURVE SMOOTH",
"493 530 OFFCURVE",
"549 512 OFFCURVE",
"607 473 CURVE",
"669 642 LINE",
"617 686 OFFCURVE",
"521 717 OFFCURVE",
"429 717 CURVE SMOOTH",
"187 717 OFFCURVE",
"41 572 OFFCURVE",
"41 353 CURVE SMOOTH",
"41 133 OFFCURVE",
"187 -12 OFFCURVE",
"429 -12 CURVE SMOOTH"
);
}
);
};
layerId = "4121B50C-FD42-45C5-8FBE-41E76D98F91E";
paths = (
{
closed = 1;
nodes = (
"491 -12 OFFCURVE",
"564 4 OFFCURVE",
"607 25 CURVE SMOOTH",
"711 75 OFFCURVE",
"650 240 OFFCURVE",
"535 194 CURVE SMOOTH",
"500 180 OFFCURVE",
"463 175 OFFCURVE",
"437 175 CURVE SMOOTH",
"323 175 OFFCURVE",
"268 237 OFFCURVE",
"268 353 CURVE SMOOTH",
"268 468 OFFCURVE",
"323 530 OFFCURVE",
"437 530 CURVE SMOOTH",
"475 530 OFFCURVE",
"508 522 OFFCURVE",
"547 506 CURVE SMOOTH",
"643 467 OFFCURVE",
"711 629 OFFCURVE",
"601 682 CURVE SMOOTH",
"553 705 OFFCURVE",
"483 717 OFFCURVE",
"429 717 CURVE SMOOTH",
"187 717 OFFCURVE",
"41 572 OFFCURVE",
"41 353 CURVE SMOOTH",
"41 133 OFFCURVE",
"187 -12 OFFCURVE",
"429 -12 CURVE SMOOTH"
);
}
);
width = 692;
},
{
anchors = (
{
name = bottom;
position = "{342, 0}";
},
{
name = top;
position = "{441, 705}";
}
);
background = {
anchors = (
{
name = bottom;
position = "{342, 0}";
},
{
name = top;
position = "{441, 705}";
}
);
paths = (
{
closed = 1;
nodes = (
"466 -8 OFFCURVE",
"537 21 OFFCURVE",
"603 87 CURVE",
"579 121 LINE",
"513 56 OFFCURVE",
"455 33 OFFCURVE",
"376 33 CURVE SMOOTH",
"225 33 OFFCURVE",
"127 116 OFFCURVE",
"127 289 CURVE SMOOTH",
"127 525 OFFCURVE",
"244 672 OFFCURVE",
"430 672 CURVE SMOOTH",
"519 672 OFFCURVE",
"582 644 OFFCURVE",
"637 583 CURVE",
"662 618 LINE",
"610 678 OFFCURVE",
"531 713 OFFCURVE",
"433 713 CURVE SMOOTH",
"218 713 OFFCURVE",
"82 545 OFFCURVE",
"82 289 CURVE SMOOTH",
"82 96 OFFCURVE",
"200 -8 OFFCURVE",
"373 -8 CURVE SMOOTH"
);
}
);
};
guideLines = (
{
angle = 81;
position = "{622, 398}";
}
);
layerId = "D8D4984A-F5A5-43C0-BF2B-5708C10C5E92";
paths = (
{
closed = 1;
nodes = (
"459 -8 OFFCURVE",
"527 17 OFFCURVE",
"591 75 CURVE SMOOTH",
"614 96 OFFCURVE",
"588 129 OFFCURVE",
"564 107 CURVE SMOOTH",
"506 53 OFFCURVE",
"448 33 OFFCURVE",
"376 33 CURVE SMOOTH",
"225 33 OFFCURVE",
"127 116 OFFCURVE",
"127 289 CURVE SMOOTH",
"127 525 OFFCURVE",
"244 672 OFFCURVE",
"430 672 CURVE SMOOTH",
"510 672 OFFCURVE",
"571 649 OFFCURVE",
"623 598 CURVE SMOOTH",
"647 574 OFFCURVE",
"673 608 OFFCURVE",
"652 629 CURVE SMOOTH",
"600 683 OFFCURVE",
"522 713 OFFCURVE",
"433 713 CURVE SMOOTH",
"218 713 OFFCURVE",
"82 545 OFFCURVE",
"82 289 CURVE SMOOTH",
"82 96 OFFCURVE",
"200 -8 OFFCURVE",
"373 -8 CURVE SMOOTH"
);
}
);
width = 667;
},
{
anchors = (
{
name = bottom;
position = "{373, 0}";
},
{
name = top;
position = "{451, 705}";
}
);
background = {
anchors = (
{
name = bottom;
position = "{373, 0}";
},
{
name = top;
position = "{451, 705}";
}
);
paths = (
{
closed = 1;
nodes = (
"493 -12 OFFCURVE",
"596 14 OFFCURVE",
"650 54 CURVE",
"599 223 LINE",
"540 189 OFFCURVE",
"484 175 OFFCURVE",
"439 175 CURVE SMOOTH",
"328 175 OFFCURVE",
"286 223 OFFCURVE",
"286 324 CURVE SMOOTH",
"286 437 OFFCURVE",
"341 530 OFFCURVE",
"464 530 CURVE SMOOTH",
"517 530 OFFCURVE",
"576 510 OFFCURVE",
"628 475 CURVE",
"707 644 LINE",
"658 685 OFFCURVE",
"564 717 OFFCURVE",
"468 717 CURVE SMOOTH",
"200 717 OFFCURVE",
"59 539 OFFCURVE",
"59 315 CURVE SMOOTH",
"59 102 OFFCURVE",
"211 -12 OFFCURVE",
"412 -12 CURVE SMOOTH"
);
}
);
};
guideLines = (
{
angle = 81;
position = "{619, 387}";
},
{
angle = 81;
position = "{699, 387}";
},
{
angle = 244.946;
position = "{668, 560}";
}
);
layerId = "C92D7C27-2246-4784-91DF-7F4E0C5E615D";
paths = (
{
closed = 1;
nodes = (
"461 -12 OFFCURVE",
"533 -2 OFFCURVE",
"585 20 CURVE SMOOTH",
"695 66 OFFCURVE",
"640 232 OFFCURVE",
"530 191 CURVE SMOOTH",
"499 180 OFFCURVE",
"465 175 OFFCURVE",
"439 175 CURVE SMOOTH",
"328 175 OFFCURVE",
"286 223 OFFCURVE",
"286 324 CURVE SMOOTH",
"286 437 OFFCURVE",
"341 530 OFFCURVE",
"464 530 CURVE SMOOTH",
"495 530 OFFCURVE",
"527 524 OFFCURVE",
"577 505 CURVE SMOOTH",
"673 468 OFFCURVE",
"747 635 OFFCURVE",
"641 682 CURVE SMOOTH",
"584 707 OFFCURVE",
"518 717 OFFCURVE",
"468 717 CURVE SMOOTH",
"200 717 OFFCURVE",
"59 539 OFFCURVE",
"59 315 CURVE SMOOTH",
"59 102 OFFCURVE",
"211 -12 OFFCURVE",
"412 -12 CURVE SMOOTH"
);
}
);
width = 692;
}
);
leftKerningGroup = O;
rightKerningGroup = C;
unicode = 0043;
userData = {
anchors = (
);
b = {
};
com.typemytype.robofont.layerData = {
b = {
anchors = (
);
components = (
);
contours = (
);
lib = {
};
name = C;
unicodes = (
);
width = 1353.89001;
};
};
components = (
);
contours = (
);
lib = {
};
name = C;
unicodes = (
);
width = 1354;
};
},
{
color = 3;
glyphname = D;
lastChange = "2019-10-22 14:16:04 +0000";
layers = (
{
anchors = (
{
name = bottom;
position = "{363, 0}";
},
{
name = center;
position = "{173, 358}";
},
{
name = top;
position = "{362, 705}";
}
);
background = {
anchors = (
{
name = bottom;
position = "{363, 0}";
},
{
name = center;
position = "{173, 358}";
},
{
name = top;
position = "{362, 705}";
}
);
paths = (
{
closed = 1;
nodes = (
"313 0 LINE SMOOTH",
"534 0 OFFCURVE",
"658 123 OFFCURVE",
"658 353 CURVE SMOOTH",
"658 583 OFFCURVE",
"534 705 OFFCURVE",
"313 705 CURVE SMOOTH",
"96 705 LINE",
"96 0 LINE"
);
},
{
closed = 1;
nodes = (
"138 666 LINE",
"309 666 LINE SMOOTH",
"512 666 OFFCURVE",
"613 561 OFFCURVE",
"613 353 CURVE SMOOTH",
"613 145 OFFCURVE",
"512 39 OFFCURVE",
"309 39 CURVE SMOOTH",
"138 39 LINE"
);
}
);
};
layerId = "F1F93986-3ED8-4AAE-84C4-CA3EEECDDFA0";
paths = (
{
closed = 1;
nodes = (
"313 0 LINE SMOOTH",
"534 0 OFFCURVE",
"658 123 OFFCURVE",
"658 353 CURVE SMOOTH",
"658 583 OFFCURVE",
"534 705 OFFCURVE",
"313 705 CURVE SMOOTH",
"121 705 LINE SMOOTH",
"105 705 OFFCURVE",
"96 696 OFFCURVE",
"96 680 CURVE SMOOTH",
"96 25 LINE SMOOTH",
"96 9 OFFCURVE",
"105 0 OFFCURVE",
"121 0 CURVE SMOOTH"
);
},
{
closed = 1;
nodes = (
"138 666 LINE",
"309 666 LINE SMOOTH",
"512 666 OFFCURVE",
"613 561 OFFCURVE",
"613 353 CURVE SMOOTH",
"613 145 OFFCURVE",
"512 39 OFFCURVE",
"309 39 CURVE SMOOTH",
"138 39 LINE"
);
}
);
width = 725;
},
{
anchors = (
{
name = bottom;
position = "{395, 0}";
},
{
name = center;
position = "{214, 358}";
},
{
name = top;
position = "{395, 705}";
}
);
background = {
anchors = (
{
name = bottom;
position = "{395, 0}";
},
{
name = center;
position = "{214, 358}";
},
{
name = top;
position = "{395, 705}";
}
);
paths = (
{
closed = 1;
nodes = (
"365 0 LINE SMOOTH",
"615 0 OFFCURVE",
"759 130 OFFCURVE",
"759 353 CURVE SMOOTH",
"759 575 OFFCURVE",
"615 705 OFFCURVE",
"365 705 CURVE SMOOTH",
"57 705 LINE",
"57 0 LINE"
);
},
{
closed = 1;
nodes = (
"272 531 LINE",
"352 531 LINE SMOOTH",
"476 531 OFFCURVE",
"536 475 OFFCURVE",
"536 353 CURVE SMOOTH",
"536 231 OFFCURVE",
"477 174 OFFCURVE",
"352 174 CURVE SMOOTH",
"272 174 LINE"
);
}
);
};
layerId = "4121B50C-FD42-45C5-8FBE-41E76D98F91E";
paths = (
{
closed = 1;
nodes = (
"365 0 LINE SMOOTH",
"615 0 OFFCURVE",
"759 130 OFFCURVE",
"759 353 CURVE SMOOTH",
"759 575 OFFCURVE",
"615 705 OFFCURVE",
"365 705 CURVE SMOOTH",
"168 705 LINE SMOOTH",
"96 705 OFFCURVE",
"57 666 OFFCURVE",
"57 594 CURVE SMOOTH",
"57 111 LINE SMOOTH",
"57 39 OFFCURVE",
"96 0 OFFCURVE",
"168 0 CURVE SMOOTH"
);
},
{
closed = 1;
nodes = (
"272 531 LINE",
"352 531 LINE SMOOTH",
"476 531 OFFCURVE",
"536 475 OFFCURVE",
"536 353 CURVE SMOOTH",
"536 231 OFFCURVE",
"477 174 OFFCURVE",
"352 174 CURVE SMOOTH",
"272 174 LINE"
);
}
);
width = 800;
},
{
anchors = (
{
name = bottom;
position = "{325, 0}";
},
{
name = center;
position = "{192, 358}";
},
{
name = top;
position = "{426, 705}";
}
);
background = {
anchors = (
{
name = bottom;
position = "{325, 0}";
},
{
name = center;
position = "{192, 358}";
},
{
name = top;
position = "{426, 705}";
}
);
paths = (
{
closed = 1;
nodes = (
"283 0 LINE SMOOTH",
"562 0 OFFCURVE",
"678 190 OFFCURVE",
"678 416 CURVE SMOOTH",
"678 600 OFFCURVE",
"563 705 OFFCURVE",
"359 705 CURVE SMOOTH",
"170 705 LINE",
"58 0 LINE"
);
},
{
closed = 1;
nodes = (
"205 666 LINE",
"358 666 LINE SMOOTH",
"541 666 OFFCURVE",
"633 578 OFFCURVE",
"633 416 CURVE SMOOTH",
"633 215 OFFCURVE",
"540 39 OFFCURVE",
"285 39 CURVE SMOOTH",
"106 39 LINE"
);
}
);
};
layerId = "D8D4984A-F5A5-43C0-BF2B-5708C10C5E92";
paths = (
{
closed = 1;
nodes = (
"283 0 LINE SMOOTH",
"562 0 OFFCURVE",
"678 190 OFFCURVE",
"678 416 CURVE SMOOTH",
"678 600 OFFCURVE",
"563 705 OFFCURVE",
"359 705 CURVE SMOOTH",
"193 705 LINE SMOOTH",
"178 705 OFFCURVE",
"168 698 OFFCURVE",
"166 682 CURVE SMOOTH",
"62 27 LINE SMOOTH",
"59 10 OFFCURVE",
"68 0 OFFCURVE",
"85 0 CURVE SMOOTH"
);
},
{
closed = 1;
nodes = (
"205 666 LINE",
"358 666 LINE SMOOTH",
"541 666 OFFCURVE",
"633 578 OFFCURVE",
"633 416 CURVE SMOOTH",
"633 215 OFFCURVE",
"540 39 OFFCURVE",
"285 39 CURVE SMOOTH",
"106 39 LINE"
);
}
);
width = 725;
},
{
anchors = (
{
name = bottom;
position = "{365, 0}";
},
{
name = center;
position = "{230, 358}";
},
{
name = top;
position = "{459, 705}";
}
);
background = {
anchors = (
{
name = bottom;
position = "{365, 0}";
},
{
name = center;
position = "{230, 358}";
},
{
name = top;
position = "{459, 705}";
}
);
paths = (
{
closed = 1;
nodes = (
"363 0 LINE SMOOTH",
"626 0 OFFCURVE",
"776 164 OFFCURVE",
"775 392 CURVE SMOOTH",
"774 587 OFFCURVE",
"637 705 OFFCURVE",
"393 705 CURVE SMOOTH",
"130 705 LINE",
"18 0 LINE"
);
},
{
closed = 1;
nodes = (
"318 531 LINE",
"393 531 LINE SMOOTH",
"498 531 OFFCURVE",
"552 481 OFFCURVE",
"552 388 CURVE SMOOTH",
"552 250 OFFCURVE",
"483 174 OFFCURVE",
"365 174 CURVE SMOOTH",
"260 174 LINE"
);
}
);
};
layerId = "C92D7C27-2246-4784-91DF-7F4E0C5E615D";
paths = (
{
closed = 1;
nodes = (
"363 0 LINE SMOOTH",
"626 0 OFFCURVE",
"776 164 OFFCURVE",
"775 392 CURVE SMOOTH",
"774 587 OFFCURVE",
"637 705 OFFCURVE",
"393 705 CURVE SMOOTH",
"233 705 LINE SMOOTH",
"165 705 OFFCURVE",
"125 670 OFFCURVE",
"114 603 CURVE SMOOTH",
"37 119 LINE SMOOTH",
"25 43 OFFCURVE",
"63 0 OFFCURVE",
"139 0 CURVE SMOOTH"
);
},
{
closed = 1;
nodes = (
"318 531 LINE",
"393 531 LINE SMOOTH",
"498 531 OFFCURVE",
"552 481 OFFCURVE",
"552 388 CURVE SMOOTH",
"552 250 OFFCURVE",
"483 174 OFFCURVE",
"365 174 CURVE SMOOTH",
"260 174 LINE"
);
}
);
width = 800;
}
);
leftKerningGroup = H;
rightKerningGroup = O;
unicode = 0044;
userData = {
anchors = (
);
b = {
};
com.typemytype.robofont.layerData = {
b = {
anchors = (
);
components = (
);
contours = (
{
points = (
{
segmentType = curve;
smooth = 1;
x = 266;
y = 0;
},
{
segmentType = line;
smooth = 1;
x = 1035;
y = 0;
},
{
smooth = 0;
x = 1084;
y = 0;
},
{
smooth = 0;
x = 1108;
y = 34;
},
{
segmentType = curve;
smooth = 1;
x = 1108;
y = 71;
},
{
smooth = 0;
x = 1108;
y = 107;
},
{
smooth = 0;
x = 1084;
y = 141;
},
{
segmentType = curve;
smooth = 1;
x = 1035;
y = 141;
},
{
segmentType = line;
smooth = 0;
x = 356;
y = 141;
},
{
segmentType = line;
smooth = 0;
x = 356;
y = 665;
},
{
segmentType = line;
smooth = 1;
x = 975;
y = 665;
},
{
smooth = 0;
x = 1024;
y = 665;
},
{
smooth = 0;
x = 1049;
y = 698;
},
{
segmentType = curve;
smooth = 1;
x = 1049;
y = 734;
},
{
smooth = 0;
x = 1049;
y = 770;
},
{
smooth = 0;
x = 1026;
y = 803;
},
{
segmentType = curve;
smooth = 1;
x = 975;
y = 803;
},
{
segmentType = line;
smooth = 0;
x = 356;
y = 803;
},
{
segmentType = line;
smooth = 0;
x = 356;
y = 1285;
},
{
segmentType = line;
smooth = 1;
x = 1007;
y = 1285;
},
{
smooth = 0;
x = 1056;
y = 1285;
},
{
smooth = 0;
x = 1080;
y = 1319;
},
{
segmentType = curve;
smooth = 1;
x = 1080;
y = 1356;
},
{
smooth = 0;
x = 1080;
y = 1392;
},
{
smooth = 0;
x = 1056;
y = 1426;
},
{
segmentType = curve;
smooth = 1;
x = 1007;
y = 1426;
},
{
segmentType = line;
smooth = 1;
x = 261;
y = 1426;
},
{
smooth = 0;
x = 213;
y = 1426;
},
{
smooth = 0;
x = 178;
y = 1383;
},
{
segmentType = curve;
smooth = 1;
x = 178;
y = 1340;
},
{
segmentType = line;
smooth = 1;
x = 178;
y = 86;
},
{
smooth = 0;
x = 178;
y = 41;
},
{
smooth = 0;
x = 222;
y = 0;
}
);
}
);
lib = {
};
name = D;
unicodes = (
);
width = 1499;
};
};
components = (
);
contours = (
);
lib = {
};
name = D;
unicodes = (
);
width = 1535;
};
},
{
color = 3;
glyphname = E;
lastChange = "2019-10-22 14:21:37 +0000";
layers = (
{
anchors = (
{
name = bottom;
position = "{320, 0}";
},
{
name = ogonek;
position = "{490, 0}";
},
{
name = top;
position = "{320, 705}";
},
{
name = topleft;
position = "{27, 705}";
}
);
background = {
anchors = (
{
name = bottom;
position = "{320, 0}";
},
{
name = ogonek;
position = "{490, 0}";
},
{
name = top;
position = "{320, 705}";
},
{
name = topleft;
position = "{27, 705}";
}
);
paths = (
{
closed = 1;
nodes = (
"520 0 LINE",
"520 39 LINE",
"138 39 LINE",
"138 338 LINE",
"500 338 LINE",
"500 377 LINE",
"138 377 LINE",
"138 666 LINE",
"520 666 LINE",
"520 705 LINE",
"96 705 LINE",
"96 0 LINE"
);
}
);
};
guideLines = (
{
angle = 270;
position = "{520, 353}";
}
);
layerId = "F1F93986-3ED8-4AAE-84C4-CA3EEECDDFA0";
paths = (
{
closed = 1;
nodes = (
"505 0 LINE SMOOTH",
"518 0 OFFCURVE",
"526 7 OFFCURVE",
"526 20 CURVE SMOOTH",
"526 32 OFFCURVE",
"518 39 OFFCURVE",
"505 39 CURVE SMOOTH",
"138 39 LINE",
"138 338 LINE",
"485 338 LINE SMOOTH",
"498 338 OFFCURVE",
"506 345 OFFCURVE",
"506 358 CURVE SMOOTH",
"506 370 OFFCURVE",
"498 377 OFFCURVE",
"485 377 CURVE SMOOTH",
"138 377 LINE",
"138 666 LINE",
"505 666 LINE SMOOTH",
"518 666 OFFCURVE",
"526 673 OFFCURVE",
"526 686 CURVE SMOOTH",
"526 698 OFFCURVE",
"518 705 OFFCURVE",
"505 705 CURVE SMOOTH",
"121 705 LINE SMOOTH",
"105 705 OFFCURVE",
"96 696 OFFCURVE",
"96 680 CURVE SMOOTH",
"96 25 LINE SMOOTH",
"96 9 OFFCURVE",
"105 0 OFFCURVE",
"121 0 CURVE SMOOTH"
);
}
);
width = 570;
},
{
anchors = (
{
name = bottom;
position = "{336, 0}";
},
{
name = ogonek;
position = "{506, 0}";
},
{
name = top;
position = "{336, 705}";
},
{
name = topleft;
position = "{18, 705}";
}
);
background = {
anchors = (
{
name = bottom;
position = "{336, 0}";
},
{
name = ogonek;
position = "{506, 0}";
},
{
name = top;
position = "{336, 705}";
},
{
name = topleft;
position = "{18, 705}";
}
);
paths = (
{
closed = 1;
nodes = (
"571 0 LINE",
"571 164 LINE",
"262 164 LINE",
"262 276 LINE",
"548 276 LINE",
"548 440 LINE",
"262 440 LINE",
"262 541 LINE",
"571 541 LINE",
"571 705 LINE",
"57 705 LINE",
"57 0 LINE"
);
}
);
};
guideLines = (
{
angle = 270;
position = "{575, 353}";
}
);
layerId = "4121B50C-FD42-45C5-8FBE-41E76D98F91E";
paths = (
{
closed = 1;
nodes = (
"498 0 LINE SMOOTH",
"552 0 OFFCURVE",
"581 29 OFFCURVE",
"581 82 CURVE SMOOTH",
"581 135 OFFCURVE",
"552 164 OFFCURVE",
"498 164 CURVE SMOOTH",
"262 164 LINE",
"262 276 LINE",
"475 276 LINE SMOOTH",
"529 276 OFFCURVE",
"558 305 OFFCURVE",
"558 358 CURVE SMOOTH",
"558 411 OFFCURVE",
"529 440 OFFCURVE",
"475 440 CURVE SMOOTH",
"262 440 LINE",
"262 541 LINE",
"498 541 LINE SMOOTH",
"552 541 OFFCURVE",
"581 570 OFFCURVE",
"581 623 CURVE SMOOTH",
"581 676 OFFCURVE",
"552 705 OFFCURVE",
"498 705 CURVE SMOOTH",
"168 705 LINE SMOOTH",
"96 705 OFFCURVE",
"57 666 OFFCURVE",
"57 594 CURVE SMOOTH",
"57 111 LINE SMOOTH",
"57 39 OFFCURVE",
"96 0 OFFCURVE",
"168 0 CURVE SMOOTH"
);
}
);
width = 624;
},
{
anchors = (
{
name = bottom;
position = "{289, 0}";
},
{
name = ogonek;
position = "{452, 0}";
},
{
name = top;
position = "{390, 705}";
},
{
name = topleft;
position = "{101, 705}";
}
);
background = {
anchors = (
{
name = bottom;
position = "{289, 0}";
},
{
name = ogonek;
position = "{452, 0}";
},
{
name = top;
position = "{390, 705}";
},
{
name = topleft;
position = "{101, 705}";
}
);
paths = (
{
closed = 1;
nodes = (
"482 0 LINE",
"488 39 LINE",
"106 39 LINE",
"153 338 LINE",
"516 338 LINE",
"522 377 LINE",
"160 377 LINE",
"206 666 LINE",
"588 666 LINE",
"594 705 LINE",
"170 705 LINE",
"58 0 LINE"
);
}
);
};
layerId = "D8D4984A-F5A5-43C0-BF2B-5708C10C5E92";
paths = (
{
closed = 1;
nodes = (
"468 0 LINE SMOOTH",
"480 0 OFFCURVE",
"491 6 OFFCURVE",
"491 24 CURVE SMOOTH",
"491 34 OFFCURVE",
"483 39 OFFCURVE",
"470 39 CURVE SMOOTH",
"106 39 LINE",
"153 338 LINE",
"502 338 LINE SMOOTH",
"514 338 OFFCURVE",
"525 344 OFFCURVE",
"525 362 CURVE SMOOTH",
"525 372 OFFCURVE",
"517 377 OFFCURVE",
"504 377 CURVE SMOOTH",
"160 377 LINE",
"206 666 LINE",
"574 666 LINE SMOOTH",
"586 666 OFFCURVE",
"597 672 OFFCURVE",
"597 690 CURVE SMOOTH",
"597 700 OFFCURVE",
"589 705 OFFCURVE",
"576 705 CURVE SMOOTH",
"193 705 LINE SMOOTH",
"178 705 OFFCURVE",
"169 698 OFFCURVE",
"166 682 CURVE SMOOTH",
"62 27 LINE SMOOTH",
"59 10 OFFCURVE",
"68 0 OFFCURVE",
"85 0 CURVE SMOOTH"
);
}
);
width = 570;
},
{
anchors = (
{
name = bottom;
position = "{300, 0}";
},
{
name = ogonek;
position = "{502, 0}";
},
{
name = top;
position = "{405, 705}";
},
{
name = topleft;
position = "{90, 705}";
}
);
background = {
anchors = (
{
name = bottom;
position = "{300, 0}";
},
{
name = ogonek;
position = "{502, 0}";
},
{
name = top;
position = "{405, 705}";
},
{
name = topleft;
position = "{90, 705}";
}
);
paths = (
{
closed = 1;
nodes = (
"532 0 LINE",
"558 164 LINE",
"249 164 LINE",
"267 276 LINE",
"553 276 LINE",
"579 440 LINE",
"293 440 LINE",
"309 541 LINE",
"618 541 LINE",
"644 705 LINE",
"130 705 LINE",
"19 0 LINE"
);
}
);
};
guideLines = (
{
position = "{276, 0}";
}
);
layerId = "C92D7C27-2246-4784-91DF-7F4E0C5E615D";
paths = (
{
closed = 1;
nodes = (
"459 0 LINE SMOOTH",
"519 0 OFFCURVE",
"556 37 OFFCURVE",
"556 97 CURVE SMOOTH",
"556 139 OFFCURVE",
"526 164 OFFCURVE",
"470 164 CURVE SMOOTH",
"249 164 LINE",
"267 276 LINE",
"480 276 LINE SMOOTH",
"540 276 OFFCURVE",
"577 313 OFFCURVE",
"577 373 CURVE SMOOTH",
"577 415 OFFCURVE",
"547 440 OFFCURVE",
"491 440 CURVE SMOOTH",
"293 440 LINE",
"309 541 LINE",
"545 541 LINE SMOOTH",
"605 541 OFFCURVE",
"642 578 OFFCURVE",
"642 638 CURVE SMOOTH",
"642 680 OFFCURVE",
"612 705 OFFCURVE",
"556 705 CURVE SMOOTH",
"233 705 LINE SMOOTH",
"165 705 OFFCURVE",
"125 670 OFFCURVE",
"114 603 CURVE SMOOTH",
"37 119 LINE SMOOTH",
"25 42 OFFCURVE",
"61 0 OFFCURVE",
"140 0 CURVE SMOOTH"
);
}
);
width = 624;
}
);
leftKerningGroup = H;
rightKerningGroup = E;
unicode = 0045;
userData = {
anchors = (
);
b = {
};
com.typemytype.robofont.layerData = {
b = {
anchors = (
);
components = (
);
contours = (
);
lib = {
};
name = E;
unicodes = (
);
width = 1234;
};
};
components = (
);
contours = (
);
lib = {
};
name = E;
unicodes = (
);
width = 1258;
};
},
{
color = 3;
glyphname = F;
lastChange = "2019-10-22 15:22:50 +0000";
layers = (
{
anchors = (
{
name = bottom;
position = "{293, 0}";
},
{
name = top;
position = "{293, 705}";
}
);
background = {
anchors = (
{
name = bottom;
position = "{293, 0}";
},
{
name = top;
position = "{293, 705}";
}
);
paths = (
{
closed = 1;
nodes = (
"138 0 LINE",
"138 338 LINE",
"490 338 LINE",
"490 377 LINE",
"138 377 LINE",
"138 666 LINE",
"510 666 LINE",
"510 705 LINE",
"96 705 LINE",
"96 0 LINE"
);
}
);
};
layerId = "F1F93986-3ED8-4AAE-84C4-CA3EEECDDFA0";
paths = (
{
closed = 1;
nodes = (
"132 -6 OFFCURVE",
"138 3 OFFCURVE",
"138 19 CURVE SMOOTH",
"138 338 LINE",
"475 338 LINE SMOOTH",
"488 338 OFFCURVE",
"496 345 OFFCURVE",
"496 358 CURVE SMOOTH",
"496 370 OFFCURVE",
"488 377 OFFCURVE",
"475 377 CURVE SMOOTH",
"138 377 LINE",
"138 666 LINE",
"495 666 LINE SMOOTH",
"508 666 OFFCURVE",
"516 673 OFFCURVE",
"516 686 CURVE SMOOTH",
"516 698 OFFCURVE",
"508 705 OFFCURVE",
"495 705 CURVE SMOOTH",
"121 705 LINE SMOOTH",
"105 705 OFFCURVE",
"96 696 OFFCURVE",
"96 680 CURVE SMOOTH",
"96 19 LINE SMOOTH",
"96 3 OFFCURVE",
"105 -6 OFFCURVE",
"121 -6 CURVE SMOOTH"
);
}
);
width = 536;
},
{
anchors = (
{
name = bottom;
position = "{306, 0}";
},
{
name = top;
position = "{312, 705}";
}
);
background = {
anchors = (
{
name = bottom;
position = "{306, 0}";
},
{
name = top;
position = "{312, 705}";
}
);
paths = (
{
closed = 1;
nodes = (
"272 0 LINE",
"272 267 LINE",
"543 267 LINE",
"543 431 LINE",
"272 431 LINE",
"272 541 LINE",
"566 541 LINE",
"566 705 LINE",
"57 705 LINE",
"57 0 LINE"
);
}
);
};
layerId = "4121B50C-FD42-45C5-8FBE-41E76D98F91E";
paths = (
{
closed = 1;
nodes = (
"235 -10 OFFCURVE",
"272 29 OFFCURVE",
"272 101 CURVE SMOOTH",
"272 267 LINE",
"470 267 LINE SMOOTH",
"524 267 OFFCURVE",
"553 296 OFFCURVE",
"553 349 CURVE SMOOTH",
"553 402 OFFCURVE",
"524 431 OFFCURVE",
"470 431 CURVE SMOOTH",
"272 431 LINE",
"272 541 LINE",
"493 541 LINE SMOOTH",
"547 541 OFFCURVE",
"576 570 OFFCURVE",
"576 623 CURVE SMOOTH",
"576 676 OFFCURVE",
"547 705 OFFCURVE",
"493 705 CURVE SMOOTH",
"168 705 LINE SMOOTH",
"96 705 OFFCURVE",
"57 666 OFFCURVE",
"57 594 CURVE SMOOTH",
"57 101 LINE SMOOTH",
"57 29 OFFCURVE",
"96 -10 OFFCURVE",
"165 -10 CURVE SMOOTH"
);
}
);
width = 588;
},
{
anchors = (
{
name = bottom;
position = "{255, 0}";
},
{
name = top;
position = "{367, 705}";
}
);
background = {
anchors = (
{
name = bottom;
position = "{255, 0}";
},
{
name = top;
position = "{367, 705}";
}
);
paths = (
{
closed = 1;
nodes = (
"100 0 LINE",
"154 338 LINE",
"506 338 LINE",
"512 377 LINE",
"160 377 LINE",
"206 666 LINE",
"578 666 LINE",
"584 705 LINE",
"170 705 LINE",
"58 0 LINE"
);
}
);
};
layerId = "D8D4984A-F5A5-43C0-BF2B-5708C10C5E92";
paths = (
{
closed = 1;
nodes = (
"92 -6 OFFCURVE",
"100 1 OFFCURVE",
"103 17 CURVE SMOOTH",
"154 338 LINE",
"485 338 LINE SMOOTH",
"500 338 OFFCURVE",
"509 346 OFFCURVE",
"509 361 CURVE SMOOTH",
"509 372 OFFCURVE",
"501 377 OFFCURVE",
"487 377 CURVE SMOOTH",
"160 377 LINE",
"206 666 LINE",
"557 666 LINE SMOOTH",
"572 666 OFFCURVE",
"581 674 OFFCURVE",
"581 689 CURVE SMOOTH",
"581 700 OFFCURVE",
"573 705 OFFCURVE",
"559 705 CURVE SMOOTH",
"193 705 LINE SMOOTH",
"178 705 OFFCURVE",
"169 698 OFFCURVE",
"166 682 CURVE SMOOTH",
"61 21 LINE SMOOTH",
"58 4 OFFCURVE",
"65 -6 OFFCURVE",
"82 -6 CURVE SMOOTH"
);
}
);
width = 536;
},
{
anchors = (
{
name = bottom;
position = "{266, 0}";
},
{
name = top;
position = "{383, 705}";
}
);
background = {
anchors = (
{
name = bottom;
position = "{266, 0}";
},
{
name = top;
position = "{383, 705}";
}
);
paths = (
{
closed = 1;
nodes = (
"234 0 LINE",
"276 267 LINE",
"547 267 LINE",
"573 431 LINE",
"302 431 LINE",
"319 541 LINE",
"613 541 LINE",
"639 705 LINE",
"130 705 LINE",
"19 0 LINE"
);
}
);
};
layerId = "C92D7C27-2246-4784-91DF-7F4E0C5E615D";
paths = (
{
closed = 1;
nodes = (
"198 -10 OFFCURVE",
"237 22 OFFCURVE",
"248 92 CURVE SMOOTH",
"276 267 LINE",
"474 267 LINE SMOOTH",
"535 267 OFFCURVE",
"571 306 OFFCURVE",
"571 364 CURVE SMOOTH",
"571 406 OFFCURVE",
"541 431 OFFCURVE",
"485 431 CURVE SMOOTH",
"302 431 LINE",
"319 541 LINE",
"540 541 LINE SMOOTH",
"601 541 OFFCURVE",
"637 580 OFFCURVE",
"637 638 CURVE SMOOTH",
"637 680 OFFCURVE",
"607 705 OFFCURVE",
"551 705 CURVE SMOOTH",
"233 705 LINE SMOOTH",
"165 705 OFFCURVE",
"125 670 OFFCURVE",
"114 603 CURVE SMOOTH",
"36 109 LINE SMOOTH",
"24 33 OFFCURVE",
"60 -10 OFFCURVE",
"131 -10 CURVE SMOOTH"
);
}
);
width = 588;
}
);
leftKerningGroup = H;
rightKerningGroup = F;
unicode = 0046;
userData = {
anchors = (
);
b = {
};
com.typemytype.robofont.layerData = {
b = {
anchors = (
);
components = (
);
contours = (
{
points = (
{
segmentType = curve;
smooth = 1;
x = 266;
y = 0;
},
{
segmentType = line;
smooth = 1;
x = 1035;
y = 0;
},
{
smooth = 0;
x = 1084;
y = 0;
},
{
smooth = 0;
x = 1108;
y = 34;
},
{
segmentType = curve;
smooth = 1;
x = 1108;
y = 71;
},
{
smooth = 0;
x = 1108;
y = 107;
},
{
smooth = 0;
x = 1084;
y = 141;
},
{
segmentType = curve;
smooth = 1;
x = 1035;
y = 141;
},
{
segmentType = line;
smooth = 0;
x = 353;
y = 141;
},
{
segmentType = line;
smooth = 0;
x = 353;
y = 665;
},
{
segmentType = line;
smooth = 1;
x = 975;
y = 665;
},
{
smooth = 0;
x = 1024;
y = 665;
},
{
smooth = 0;
x = 1049;
y = 698;
},
{
segmentType = curve;
smooth = 1;
x = 1049;
y = 734;
},
{
smooth = 0;
x = 1049;
y = 770;
},
{
smooth = 0;
x = 1026;
y = 803;
},
{
segmentType = curve;
smooth = 1;
x = 975;
y = 803;
},
{
segmentType = line;
smooth = 0;
x = 353;
y = 803;
},
{
segmentType = line;
smooth = 0;
x = 353;
y = 1285;
},
{
segmentType = line;
smooth = 1;
x = 1007;
y = 1285;
},
{
smooth = 0;
x = 1056;
y = 1285;
},
{
smooth = 0;
x = 1080;
y = 1319;
},
{
segmentType = curve;
smooth = 1;
x = 1080;
y = 1356;
},
{
smooth = 0;
x = 1080;
y = 1392;
},
{
smooth = 0;
x = 1056;
y = 1426;
},
{
segmentType = curve;
smooth = 1;
x = 1007;
y = 1426;
},
{
segmentType = line;
smooth = 1;
x = 261;
y = 1426;
},
{
smooth = 0;
x = 213;
y = 1426;
},
{
smooth = 0;
x = 178;
y = 1383;
},
{
segmentType = curve;
smooth = 1;
x = 178;
y = 1340;
},
{
segmentType = line;
smooth = 1;
x = 178;
y = 86;
},
{
smooth = 0;
x = 178;
y = 41;
},
{
smooth = 0;
x = 222;
y = 0;
}
);
}
);
lib = {
};
name = F;
unicodes = (
);
width = 1142;
};
};
components = (
);
contours = (
);
lib = {
};
name = F;
unicodes = (
);
width = 1175;
};
},
{
color = 3;
glyphname = G;
lastChange = "2019-10-22 18:30:46 +0000";
layers = (
{
anchors = (
{
name = bottom;
position = "{390, 0}";
},
{
name = top;
position = "{383, 705}";
}
);
background = {
anchors = (
{
name = bottom;
position = "{390, 0}";
},
{
name = top;
position = "{383, 705}";
}
);
paths = (
{
closed = 1;
nodes = (
"482 -8 OFFCURVE",
"579 13 OFFCURVE",
"628 40 CURVE",
"628 355 LINE",
"394 355 LINE",
"394 316 LINE",
"588 316 LINE",
"588 35 LINE",
"600 73 LINE",
"543 47 OFFCURVE",
"475 33 OFFCURVE",
"401 33 CURVE SMOOTH",
"208 33 OFFCURVE",
"112 145 OFFCURVE",
"112 353 CURVE SMOOTH",
"112 555 OFFCURVE",
"208 672 OFFCURVE",
"380 672 CURVE SMOOTH",
"470 672 OFFCURVE",
"537 646 OFFCURVE",
"602 583 CURVE",
"624 618 LINE",
"564 681 OFFCURVE",
"481 713 OFFCURVE",
"381 713 CURVE SMOOTH",
"183 713 OFFCURVE",
"67 576 OFFCURVE",
"67 353 CURVE SMOOTH",
"67 124 OFFCURVE",
"183 -8 OFFCURVE",
"402 -8 CURVE SMOOTH"
);
}
);
};
layerId = "F1F93986-3ED8-4AAE-84C4-CA3EEECDDFA0";
paths = (
{
closed = 1;
nodes = (
"476 -8 OFFCURVE",
"565 10 OFFCURVE",
"617 34 CURVE SMOOTH",
"625 38 OFFCURVE",
"628 46 OFFCURVE",
"628 57 CURVE SMOOTH",
"628 334 LINE SMOOTH",
"628 347 OFFCURVE",
"620 355 OFFCURVE",
"607 355 CURVE SMOOTH",
"415 355 LINE SMOOTH",
"402 355 OFFCURVE",
"394 348 OFFCURVE",
"394 336 CURVE SMOOTH",
"394 324 OFFCURVE",
"402 316 OFFCURVE",
"415 316 CURVE SMOOTH",
"588 316 LINE",
"588 35 LINE",
"600 73 LINE",
"543 47 OFFCURVE",
"475 33 OFFCURVE",
"401 33 CURVE SMOOTH",
"208 33 OFFCURVE",
"112 145 OFFCURVE",
"112 353 CURVE SMOOTH",
"112 555 OFFCURVE",
"208 672 OFFCURVE",
"380 672 CURVE SMOOTH",
"462 672 OFFCURVE",
"533 650 OFFCURVE",
"590 595 CURVE SMOOTH",
"611 575 OFFCURVE",
"635 608 OFFCURVE",
"616 627 CURVE SMOOTH",
"558 686 OFFCURVE",
"474 713 OFFCURVE",
"381 713 CURVE SMOOTH",
"183 713 OFFCURVE",
"67 576 OFFCURVE",
"67 353 CURVE SMOOTH",
"67 124 OFFCURVE",
"183 -8 OFFCURVE",
"402 -8 CURVE SMOOTH"
);
}
);
width = 718;
},
{
anchors = (
{
name = bottom;
position = "{426, 0}";
},
{
name = top;
position = "{419, 705}";
}
);
background = {
anchors = (
{
name = bottom;
position = "{426, 0}";
},
{
name = top;
position = "{419, 705}";
}
);
paths = (
{
closed = 1;
nodes = (
"525 -12 OFFCURVE",
"621 7 OFFCURVE",
"701 44 CURVE",
"701 406 LINE",
"397 406 LINE",
"397 258 LINE",
"527 258 LINE",
"527 110 LINE",
"565 187 LINE",
"519 174 OFFCURVE",
"475 167 OFFCURVE",
"442 167 CURVE SMOOTH",
"326 167 OFFCURVE",
"264 228 OFFCURVE",
"264 348 CURVE SMOOTH",
"264 470 OFFCURVE",
"323 534 OFFCURVE",
"450 534 CURVE SMOOTH",
"516 534 OFFCURVE",
"575 519 OFFCURVE",
"636 484 CURVE",
"699 649 LINE",
"645 689 OFFCURVE",
"546 717 OFFCURVE",
"448 717 CURVE SMOOTH",
"192 717 OFFCURVE",
"41 572 OFFCURVE",
"41 348 CURVE SMOOTH",
"41 136 OFFCURVE",
"181 -12 OFFCURVE",
"429 -12 CURVE SMOOTH"
);
}
);
};
layerId = "4121B50C-FD42-45C5-8FBE-41E76D98F91E";
paths = (
{
closed = 1;
nodes = (
"502 -12 OFFCURVE",
"574 -1 OFFCURVE",
"640 20 CURVE SMOOTH",
"683 34 OFFCURVE",
"701 67 OFFCURVE",
"701 114 CURVE SMOOTH",
"701 323 LINE SMOOTH",
"701 377 OFFCURVE",
"672 406 OFFCURVE",
"618 406 CURVE SMOOTH",
"480 406 LINE SMOOTH",
"426 406 OFFCURVE",
"397 380 OFFCURVE",
"397 332 CURVE SMOOTH",
"397 284 OFFCURVE",
"426 258 OFFCURVE",
"480 258 CURVE SMOOTH",
"527 258 LINE",
"527 110 LINE",
"565 187 LINE",
"519 174 OFFCURVE",
"475 167 OFFCURVE",
"442 167 CURVE SMOOTH",
"326 167 OFFCURVE",
"264 228 OFFCURVE",
"264 348 CURVE SMOOTH",
"264 470 OFFCURVE",
"323 534 OFFCURVE",
"450 534 CURVE SMOOTH",
"495 534 OFFCURVE",
"541 525 OFFCURVE",
"574 512 CURVE SMOOTH",
"688 466 OFFCURVE",
"743 638 OFFCURVE",
"644 680 CURVE SMOOTH",
"576 709 OFFCURVE",
"510 717 OFFCURVE",
"448 717 CURVE SMOOTH",
"192 717 OFFCURVE",
"41 572 OFFCURVE",
"41 348 CURVE SMOOTH",
"41 136 OFFCURVE",
"181 -12 OFFCURVE",
"429 -12 CURVE SMOOTH"
);
}
);
width = 754;
},
{
anchors = (
{
name = bottom;
position = "{354, 0}";
},
{
name = top;
position = "{434, 705}";
}
);
background = {
anchors = (
{
name = bottom;
position = "{354, 0}";
},
{
name = top;
position = "{434, 705}";
}
);
paths = (
{
closed = 1;
nodes = (
"463 -8 OFFCURVE",
"547 10 OFFCURVE",
"595 32 CURVE",
"646 355 LINE",
"412 355 LINE",
"406 316 LINE",
"600 316 LINE",
"555 35 LINE",
"573 68 LINE",
"520 48 OFFCURVE",
"462 33 OFFCURVE",
"386 33 CURVE SMOOTH",
"215 33 OFFCURVE",
"127 116 OFFCURVE",
"127 289 CURVE SMOOTH",
"127 525 OFFCURVE",
"244 672 OFFCURVE",
"430 672 CURVE SMOOTH",
"521 672 OFFCURVE",
"585 644 OFFCURVE",
"642 583 CURVE",
"667 618 LINE",
"613 678 OFFCURVE",
"533 713 OFFCURVE",
"433 713 CURVE SMOOTH",
"218 713 OFFCURVE",
"82 545 OFFCURVE",
"82 289 CURVE SMOOTH",
"82 96 OFFCURVE",
"190 -8 OFFCURVE",
"384 -8 CURVE SMOOTH"
);
}
);
};
layerId = "D8D4984A-F5A5-43C0-BF2B-5708C10C5E92";
paths = (
{
closed = 1;
nodes = (
"457 -8 OFFCURVE",
"535 6 OFFCURVE",
"583 27 CURVE SMOOTH",
"592 31 OFFCURVE",
"596 37 OFFCURVE",
"598 50 CURVE SMOOTH",
"642 330 LINE SMOOTH",
"645 346 OFFCURVE",
"636 355 OFFCURVE",
"621 355 CURVE SMOOTH",
"433 355 LINE SMOOTH",
"419 355 OFFCURVE",
"409 347 OFFCURVE",
"409 333 CURVE SMOOTH",
"409 322 OFFCURVE",
"417 316 OFFCURVE",
"431 316 CURVE SMOOTH",
"600 316 LINE",
"555 35 LINE",
"573 68 LINE",
"520 48 OFFCURVE",
"462 33 OFFCURVE",
"386 33 CURVE SMOOTH",
"215 33 OFFCURVE",
"127 116 OFFCURVE",
"127 289 CURVE SMOOTH",
"127 525 OFFCURVE",
"244 672 OFFCURVE",
"430 672 CURVE SMOOTH",
"512 672 OFFCURVE",
"577 650 OFFCURVE",
"627 598 CURVE SMOOTH",
"652 572 OFFCURVE",
"677 606 OFFCURVE",
"655 630 CURVE SMOOTH",
"606 684 OFFCURVE",
"524 713 OFFCURVE",
"433 713 CURVE SMOOTH",
"218 713 OFFCURVE",
"82 545 OFFCURVE",
"82 289 CURVE SMOOTH",
"82 96 OFFCURVE",
"190 -8 OFFCURVE",
"384 -8 CURVE SMOOTH"
);
}
);
width = 718;
},
{
anchors = (
{
name = bottom;
position = "{407, 0}";
},
{
name = top;
position = "{460, 705}";
}
);
background = {
anchors = (
{
name = bottom;
position = "{407, 0}";
},
{
name = top;
position = "{460, 705}";
}
);
paths = (
{
closed = 1;
nodes = (
"495 -12 OFFCURVE",
"592 1 OFFCURVE",
"672 39 CURVE",
"730 406 LINE",
"426 406 LINE",
"403 258 LINE",
"533 258 LINE",
"509 110 LINE",
"556 185 LINE",
"515 173 OFFCURVE",
"476 167 OFFCURVE",
"445 167 CURVE SMOOTH",
"345 167 OFFCURVE",
"281 216 OFFCURVE",
"281 326 CURVE SMOOTH",
"281 429 OFFCURVE",
"345 534 OFFCURVE",
"476 534 CURVE SMOOTH",
"537 534 OFFCURVE",
"598 516 OFFCURVE",
"652 483 CURVE",
"730 650 LINE",
"688 685 OFFCURVE",
"596 717 OFFCURVE",
"486 717 CURVE SMOOTH",
"207 717 OFFCURVE",
"59 539 OFFCURVE",
"59 317 CURVE SMOOTH",
"59 103 OFFCURVE",
"213 -12 OFFCURVE",
"412 -12 CURVE SMOOTH"
);
}
);
};
layerId = "C92D7C27-2246-4784-91DF-7F4E0C5E615D";
paths = (
{
closed = 1;
nodes = (
"472 -12 OFFCURVE",
"540 -6 OFFCURVE",
"603 13 CURVE SMOOTH",
"652 28 OFFCURVE",
"675 61 OFFCURVE",
"683 109 CURVE SMOOTH",
"715 309 LINE SMOOTH",
"725 371 OFFCURVE",
"693 406 OFFCURVE",
"632 406 CURVE SMOOTH",
"510 406 LINE SMOOTH",
"451 406 OFFCURVE",
"414 375 OFFCURVE",
"414 320 CURVE SMOOTH",
"414 281 OFFCURVE",
"446 258 OFFCURVE",
"501 258 CURVE SMOOTH",
"533 258 LINE",
"509 110 LINE",
"556 185 LINE",
"515 173 OFFCURVE",
"476 167 OFFCURVE",
"445 167 CURVE SMOOTH",
"345 167 OFFCURVE",
"281 216 OFFCURVE",
"281 326 CURVE SMOOTH",
"281 429 OFFCURVE",
"345 534 OFFCURVE",
"476 534 CURVE SMOOTH",
"511 534 OFFCURVE",
"553 526 OFFCURVE",
"595 512 CURVE SMOOTH",
"710 472 OFFCURVE",
"775 646 OFFCURVE",
"658 689 CURVE SMOOTH",
"614 705 OFFCURVE",
"548 717 OFFCURVE",
"486 717 CURVE SMOOTH",
"207 717 OFFCURVE",
"59 539 OFFCURVE",
"59 317 CURVE SMOOTH",
"59 103 OFFCURVE",
"213 -12 OFFCURVE",
"412 -12 CURVE SMOOTH"
);
}
);
width = 754;
}
);
leftKerningGroup = O;
rightKerningGroup = G;
unicode = 0047;
userData = {
anchors = (
);
b = {
};
com.typemytype.robofont.layerData = {
b = {
anchors = (
);
components = (
);
contours = (
{
points = (
{
segmentType = curve;
smooth = 1;
x = 783;
y = "-22";
},
{
smooth = 0;
x = 965;
y = "-22";
},
{
smooth = 0;
x = 1086;
y = 34;
},
{
segmentType = curve;
smooth = 1;
x = 1166;
y = 86;
},
{
smooth = 0;
x = 1270;
y = 154;
},
{
smooth = 0;
x = 1186;
y = 258;
},
{
segmentType = curve;
smooth = 1;
x = 1112;
y = 214;
},
{
smooth = 0;
x = 1024;
y = 162;
},
{
smooth = 0;
x = 939;
y = 120;
},
{
segmentType = curve;
smooth = 1;
x = 806;
y = 120;
},
{
smooth = 0;
x = 446;
y = 120;
},
{
smooth = 0;
x = 316;
y = 406;
},
{
segmentType = curve;
smooth = 1;
x = 316;
y = 706;
},
{
smooth = 0;
x = 316;
y = 1005;
},
{
smooth = 0;
x = 450;
y = 1296;
},
{
segmentType = curve;
smooth = 1;
x = 801;
y = 1296;
},
{
smooth = 0;
x = 980;
y = 1296;
},
{
smooth = 0;
x = 1053;
y = 1246;
},
{
segmentType = curve;
smooth = 1;
x = 1094;
y = 1225;
},
{
smooth = 0;
x = 1174;
y = 1184;
},
{
smooth = 0;
x = 1231;
y = 1300;
},
{
segmentType = curve;
smooth = 1;
x = 1156;
y = 1343;
},
{
smooth = 0;
x = 1106;
y = 1372;
},
{
smooth = 0;
x = 995;
y = 1438;
},
{
segmentType = curve;
smooth = 1;
x = 797;
y = 1438;
},
{
smooth = 0;
x = 359;
y = 1438;
},
{
smooth = 0;
x = 128;
y = 1093;
},
{
segmentType = curve;
smooth = 1;
x = 128;
y = 704;
},
{
smooth = 0;
x = 128;
y = 307;
},
{
smooth = 0;
x = 350;
y = "-22";
}
);
}
);
lib = {
};
name = G;
unicodes = (
);
width = 1448;
};
};
components = (
);
contours = (
);
lib = {
};
name = G;
unicodes = (
);
width = 1538;
};
},
{
color = 3;
glyphname = H;
lastChange = "2019-10-22 12:49:00 +0000";
layers = (
{
anchors = (
{
name = bottom;
position = "{376, 0}";
},
{
name = center;
position = "{376, 546}";
},
{
name = top;
position = "{375, 705}";
},
{
name = topleft;
position = "{27, 705}";
}
);
background = {
anchors = (
{
name = bottom;
position = "{376, 0}";
},
{
name = center;
position = "{376, 546}";
},
{
name = top;
position = "{375, 705}";
},
{
name = topleft;
position = "{27, 705}";
}
);
paths = (
{
closed = 1;
nodes = (
"138 0 LINE",
"138 338 LINE",
"613 338 LINE",
"613 0 LINE",
"655 0 LINE",
"655 705 LINE",
"613 705 LINE",
"613 377 LINE",
"138 377 LINE",
"138 705 LINE",
"96 705 LINE",
"96 0 LINE"
);
}
);
};
layerId = "F1F93986-3ED8-4AAE-84C4-CA3EEECDDFA0";
paths = (
{
closed = 1;
nodes = (
"131 -6 OFFCURVE",
"138 2 OFFCURVE",
"138 16 CURVE SMOOTH",
"138 338 LINE",
"613 338 LINE",
"613 16 LINE SMOOTH",
"613 2 OFFCURVE",
"621 -6 OFFCURVE",
"634 -6 CURVE SMOOTH",
"647 -6 OFFCURVE",
"655 2 OFFCURVE",
"655 16 CURVE SMOOTH",
"655 689 LINE SMOOTH",
"655 703 OFFCURVE",
"647 711 OFFCURVE",
"634 711 CURVE SMOOTH",
"621 711 OFFCURVE",
"613 703 OFFCURVE",
"613 689 CURVE SMOOTH",
"613 377 LINE",
"138 377 LINE",
"138 689 LINE SMOOTH",
"138 703 OFFCURVE",
"130 711 OFFCURVE",
"117 711 CURVE SMOOTH",
"104 711 OFFCURVE",
"96 703 OFFCURVE",
"96 689 CURVE SMOOTH",
"96 16 LINE SMOOTH",
"96 2 OFFCURVE",
"104 -6 OFFCURVE",
"117 -6 CURVE SMOOTH"
);
}
);
width = 751;
},
{
anchors = (
{
name = bottom;
position = "{397, 0}";
},
{
name = center;
position = "{397, 575}";
},
{
name = top;
position = "{397, 705}";
},
{
name = topleft;
position = "{18, 705}";
}
);
background = {
anchors = (
{
name = bottom;
position = "{397, 0}";
},
{
name = center;
position = "{397, 575}";
},
{
name = top;
position = "{397, 705}";
},
{
name = topleft;
position = "{18, 705}";
}
);
paths = (
{
closed = 1;
nodes = (
"272 0 LINE",
"272 269 LINE",
"522 269 LINE",
"522 0 LINE",
"737 0 LINE",
"737 705 LINE",
"522 705 LINE",
"522 445 LINE",
"272 445 LINE",
"272 705 LINE",
"57 705 LINE",
"57 0 LINE"
);
}
);
};
layerId = "4121B50C-FD42-45C5-8FBE-41E76D98F91E";
paths = (
{
closed = 1;
nodes = (
"235 -10 OFFCURVE",
"272 29 OFFCURVE",
"272 100 CURVE SMOOTH",
"272 269 LINE",
"522 269 LINE",
"522 100 LINE SMOOTH",
"522 29 OFFCURVE",
"560 -10 OFFCURVE",
"630 -10 CURVE SMOOTH",
"699 -10 OFFCURVE",
"737 29 OFFCURVE",
"737 100 CURVE SMOOTH",
"737 605 LINE SMOOTH",
"737 676 OFFCURVE",
"699 715 OFFCURVE",
"630 715 CURVE SMOOTH",
"561 715 OFFCURVE",
"522 676 OFFCURVE",
"522 605 CURVE SMOOTH",
"522 445 LINE",
"272 445 LINE",
"272 605 LINE SMOOTH",
"272 676 OFFCURVE",
"234 715 OFFCURVE",
"165 715 CURVE SMOOTH",
"96 715 OFFCURVE",
"57 676 OFFCURVE",
"57 605 CURVE SMOOTH",
"57 100 LINE SMOOTH",
"57 29 OFFCURVE",
"96 -10 OFFCURVE",
"165 -10 CURVE SMOOTH"
);
}
);
width = 794;
},
{
anchors = (
{
name = bottom;
position = "{342, 0}";
},
{
name = center;
position = "{424, 546}";
},
{
name = top;
position = "{448, 705}";
},
{
name = topleft;
position = "{100, 705}";
}
);
background = {
anchors = (
{
name = bottom;
position = "{342, 0}";
},
{
name = center;
position = "{424, 546}";
},
{
name = top;
position = "{448, 705}";
},
{
name = topleft;
position = "{100, 705}";
}
);
paths = (
{
closed = 1;
nodes = (
"100 0 LINE",
"154 338 LINE",
"628 338 LINE",
"574 0 LINE",
"616 0 LINE",
"728 705 LINE",
"686 705 LINE",
"634 377 LINE",
"160 377 LINE",
"212 705 LINE",
"170 705 LINE",
"58 0 LINE"
);
}
);
};
layerId = "D8D4984A-F5A5-43C0-BF2B-5708C10C5E92";
paths = (
{
closed = 1;
nodes = (
"93 -6 OFFCURVE",
"101 2 OFFCURVE",
"103 16 CURVE SMOOTH",
"154 338 LINE",
"628 338 LINE",
"578 20 LINE SMOOTH",
"575 3 OFFCURVE",
"582 -6 OFFCURVE",
"595 -6 CURVE SMOOTH",
"609 -6 OFFCURVE",
"616 2 OFFCURVE",
"618 16 CURVE SMOOTH",
"724 685 LINE SMOOTH",
"727 702 OFFCURVE",
"719 711 OFFCURVE",
"706 711 CURVE SMOOTH",
"692 711 OFFCURVE",
"685 703 OFFCURVE",
"683 689 CURVE SMOOTH",
"634 377 LINE",
"160 377 LINE",
"209 685 LINE SMOOTH",
"212 702 OFFCURVE",
"204 711 OFFCURVE",
"191 711 CURVE SMOOTH",
"177 711 OFFCURVE",
"170 703 OFFCURVE",
"168 689 CURVE SMOOTH",
"62 20 LINE SMOOTH",
"59 3 OFFCURVE",
"66 -6 OFFCURVE",
"79 -6 CURVE SMOOTH"
);
}
);
width = 751;
},
{
anchors = (
{
name = bottom;
position = "{365, 0}";
},
{
name = center;
position = "{450, 575}";
},
{
name = top;
position = "{468, 705}";
},
{
name = topleft;
position = "{91, 705}";
}
);
background = {
anchors = (
{
name = bottom;
position = "{365, 0}";
},
{
name = center;
position = "{450, 575}";
},
{
name = top;
position = "{468, 705}";
},
{
name = topleft;
position = "{91, 705}";
}
);
paths = (
{
closed = 1;
nodes = (
"233 0 LINE",
"276 269 LINE",
"526 269 LINE",
"483 0 LINE",
"698 0 LINE",
"810 705 LINE",
"595 705 LINE",
"554 445 LINE",
"304 445 LINE",
"345 705 LINE",
"130 705 LINE",
"18 0 LINE"
);
}
);
};
guideLines = (
{
position = "{470, 705}";
}
);
layerId = "C92D7C27-2246-4784-91DF-7F4E0C5E615D";
paths = (
{
closed = 1;
nodes = (
"198 -10 OFFCURVE",
"238 25 OFFCURVE",
"249 97 CURVE SMOOTH",
"276 269 LINE",
"526 269 LINE",
"502 116 LINE SMOOTH",
"490 37 OFFCURVE",
"518 -10 OFFCURVE",
"592 -10 CURVE SMOOTH",
"663 -10 OFFCURVE",
"702 25 OFFCURVE",
"713 97 CURVE SMOOTH",
"791 589 LINE SMOOTH",
"804 669 OFFCURVE",
"774 715 OFFCURVE",
"701 715 CURVE SMOOTH",
"630 715 OFFCURVE",
"591 680 OFFCURVE",
"580 608 CURVE SMOOTH",
"554 445 LINE",
"304 445 LINE",
"327 589 LINE SMOOTH",
"340 668 OFFCURVE",
"309 715 OFFCURVE",
"236 715 CURVE SMOOTH",
"165 715 OFFCURVE",
"125 680 OFFCURVE",
"114 608 CURVE SMOOTH",
"36 116 LINE SMOOTH",
"23 36 OFFCURVE",
"53 -10 OFFCURVE",
"127 -10 CURVE SMOOTH"
);
}
);
width = 794;
}
);
leftKerningGroup = H;
rightKerningGroup = H;
unicode = 0048;
userData = {
anchors = (
);
b = {
};
com.typemytype.robofont.layerData = {
b = {
anchors = (
);
components = (
);
contours = (
);
lib = {
};
name = H;
unicodes = (
);
width = 1464;
};
};
components = (
);
contours = (
);
lib = {
};
name = H;
unicodes = (
);
width = 1524;
};
},
{
color = 3;
glyphname = Hbar;
lastChange = "2019-10-22 12:48:57 +0000";
layers = (
{
background = {
paths = (
{
closed = 1;
nodes = (
"153 0 LINE",
"153 338 LINE",
"628 338 LINE",
"628 0 LINE",
"670 0 LINE",
"670 527 LINE",
"766 527 LINE",
"766 565 LINE",
"670 565 LINE",
"670 705 LINE",
"628 705 LINE",
"628 565 LINE",
"153 565 LINE",
"153 705 LINE",
"111 705 LINE",
"111 565 LINE",
"15 565 LINE",
"15 527 LINE",
"111 527 LINE",
"111 0 LINE"
);
},
{
closed = 1;
nodes = (
"153 527 LINE",
"628 527 LINE",
"628 377 LINE",
"153 377 LINE"
);
}
);
};
layerId = "F1F93986-3ED8-4AAE-84C4-CA3EEECDDFA0";
paths = (
{
closed = 1;
nodes = (
"146 -6 OFFCURVE",
"153 2 OFFCURVE",
"153 16 CURVE SMOOTH",
"153 338 LINE",
"628 338 LINE",
"628 16 LINE SMOOTH",
"628 2 OFFCURVE",
"636 -6 OFFCURVE",
"649 -6 CURVE SMOOTH",
"662 -6 OFFCURVE",
"670 2 OFFCURVE",
"670 16 CURVE SMOOTH",
"670 536 LINE",
"661 527 LINE",
"750 527 LINE SMOOTH",
"764 527 OFFCURVE",
"772 534 OFFCURVE",
"772 546 CURVE SMOOTH",
"772 558 OFFCURVE",
"764 565 OFFCURVE",
"750 565 CURVE SMOOTH",
"661 565 LINE",
"670 556 LINE",
"670 689 LINE SMOOTH",
"670 703 OFFCURVE",
"662 711 OFFCURVE",
"649 711 CURVE SMOOTH",
"636 711 OFFCURVE",
"628 703 OFFCURVE",
"628 689 CURVE SMOOTH",
"628 556 LINE",
"637 565 LINE",
"144 565 LINE",
"153 556 LINE",
"153 689 LINE SMOOTH",
"153 703 OFFCURVE",
"145 711 OFFCURVE",
"132 711 CURVE SMOOTH",
"119 711 OFFCURVE",
"111 703 OFFCURVE",
"111 689 CURVE SMOOTH",
"111 556 LINE",
"120 565 LINE",
"31 565 LINE SMOOTH",
"17 565 OFFCURVE",
"9 558 OFFCURVE",
"9 546 CURVE SMOOTH",
"9 534 OFFCURVE",
"17 527 OFFCURVE",
"31 527 CURVE SMOOTH",
"120 527 LINE",
"111 536 LINE",
"111 16 LINE SMOOTH",
"111 2 OFFCURVE",
"119 -6 OFFCURVE",
"132 -6 CURVE SMOOTH"
);
},
{
closed = 1;
nodes = (
"153 527 LINE",
"628 527 LINE",
"628 377 LINE",
"153 377 LINE"
);
}
);
width = 781;
},
{
background = {
paths = (
{
closed = 1;
nodes = (
"302 0 LINE",
"302 249 LINE",
"552 249 LINE",
"552 0 LINE",
"767 0 LINE",
"767 495 LINE",
"841 495 LINE",
"841 645 LINE",
"767 645 LINE",
"767 705 LINE",
"552 705 LINE",
"552 645 LINE",
"302 645 LINE",
"302 705 LINE",
"87 705 LINE",
"87 645 LINE",
"13 645 LINE",
"13 495 LINE",
"87 495 LINE",
"87 0 LINE"
);
},
{
closed = 1;
nodes = (
"302 495 LINE",
"552 495 LINE",
"552 425 LINE",
"302 425 LINE"
);
}
);
};
layerId = "4121B50C-FD42-45C5-8FBE-41E76D98F91E";
paths = (
{
closed = 1;
nodes = (
"265 -10 OFFCURVE",
"302 29 OFFCURVE",
"302 100 CURVE SMOOTH",
"302 249 LINE",
"552 249 LINE",
"552 100 LINE SMOOTH",
"552 29 OFFCURVE",
"590 -10 OFFCURVE",
"660 -10 CURVE SMOOTH",
"729 -10 OFFCURVE",
"767 29 OFFCURVE",
"767 100 CURVE SMOOTH",
"767 521 LINE",
"690 495 LINE",
"775 495 LINE SMOOTH",
"824 495 OFFCURVE",
"851 522 OFFCURVE",
"851 570 CURVE SMOOTH",
"851 618 OFFCURVE",
"824 645 OFFCURVE",
"775 645 CURVE SMOOTH",
"720 645 LINE",
"767 577 LINE",
"767 605 LINE SMOOTH",
"767 676 OFFCURVE",
"729 715 OFFCURVE",
"660 715 CURVE SMOOTH",
"591 715 OFFCURVE",
"552 676 OFFCURVE",
"552 605 CURVE SMOOTH",
"552 577 LINE",
"579 645 LINE",
"275 645 LINE",
"302 577 LINE",
"302 605 LINE SMOOTH",
"302 676 OFFCURVE",
"264 715 OFFCURVE",
"195 715 CURVE SMOOTH",
"126 715 OFFCURVE",
"87 676 OFFCURVE",
"87 605 CURVE SMOOTH",
"87 577 LINE",
"124 645 LINE",
"79 645 LINE SMOOTH",
"30 645 OFFCURVE",
"3 618 OFFCURVE",
"3 570 CURVE SMOOTH",
"3 522 OFFCURVE",
"30 495 OFFCURVE",
"79 495 CURVE SMOOTH",
"154 495 LINE",
"87 515 LINE",
"87 100 LINE SMOOTH",
"87 29 OFFCURVE",
"126 -10 OFFCURVE",
"195 -10 CURVE SMOOTH"
);
},
{
closed = 1;
nodes = (
"302 495 LINE",
"552 495 LINE",
"552 425 LINE",
"302 425 LINE"
);
}
);
width = 854;
},
{
background = {
paths = (
{
closed = 1;
nodes = (
"114 0 LINE",
"168 338 LINE",
"643 338 LINE",
"589 0 LINE",
"631 0 LINE",
"715 527 LINE",
"811 527 LINE",
"817 565 LINE",
"721 565 LINE",
"743 705 LINE",
"701 705 LINE",
"679 565 LINE",
"204 565 LINE",
"226 705 LINE",
"184 705 LINE",
"162 565 LINE",
"66 565 LINE",
"60 527 LINE",
"156 527 LINE",
"72 0 LINE"
);
},
{
closed = 1;
nodes = (
"198 527 LINE",
"673 527 LINE",
"649 377 LINE",
"174 377 LINE"
);
}
);
};
layerId = "D8D4984A-F5A5-43C0-BF2B-5708C10C5E92";
paths = (
{
closed = 1;
nodes = (
"108 -6 OFFCURVE",
"115 2 OFFCURVE",
"117 16 CURVE SMOOTH",
"168 338 LINE",
"643 338 LINE",
"593 20 LINE SMOOTH",
"590 3 OFFCURVE",
"598 -6 OFFCURVE",
"611 -6 CURVE SMOOTH",
"625 -6 OFFCURVE",
"632 2 OFFCURVE",
"634 16 CURVE SMOOTH",
"717 540 LINE",
"709 527 LINE",
"795 527 LINE SMOOTH",
"809 527 OFFCURVE",
"820 535 OFFCURVE",
"820 549 CURVE SMOOTH",
"820 559 OFFCURVE",
"812 565 OFFCURVE",
"797 565 CURVE SMOOTH",
"716 565 LINE",
"719 551 LINE",
"740 685 LINE SMOOTH",
"742 701 OFFCURVE",
"735 711 OFFCURVE",
"722 711 CURVE SMOOTH",
"708 711 OFFCURVE",
"701 703 OFFCURVE",
"699 689 CURVE SMOOTH",
"677 551 LINE",
"686 565 LINE",
"194 565 LINE",
"203 558 LINE",
"223 685 LINE SMOOTH",
"226 701 OFFCURVE",
"218 711 OFFCURVE",
"205 711 CURVE SMOOTH",
"191 711 OFFCURVE",
"184 703 OFFCURVE",
"182 689 CURVE SMOOTH",
"161 559 LINE",
"169 565 LINE",
"82 565 LINE SMOOTH",
"68 565 OFFCURVE",
"57 557 OFFCURVE",
"57 543 CURVE SMOOTH",
"57 533 OFFCURVE",
"65 527 OFFCURVE",
"80 527 CURVE SMOOTH",
"161 527 LINE",
"157 533 LINE",
"76 20 LINE SMOOTH",
"73 3 OFFCURVE",
"81 -6 OFFCURVE",
"94 -6 CURVE SMOOTH"
);
},
{
closed = 1;
nodes = (
"198 527 LINE",
"673 527 LINE",
"649 377 LINE",
"174 377 LINE"
);
}
);
width = 781;
},
{
background = {
paths = (
{
closed = 1;
nodes = (
"263 0 LINE",
"305 269 LINE",
"555 269 LINE",
"513 0 LINE",
"728 0 LINE",
"807 500 LINE",
"881 500 LINE",
"905 650 LINE",
"831 650 LINE",
"839 705 LINE",
"624 705 LINE",
"616 650 LINE",
"366 650 LINE",
"374 705 LINE",
"159 705 LINE",
"151 650 LINE",
"77 650 LINE",
"53 500 LINE",
"127 500 LINE",
"48 0 LINE"
);
},
{
closed = 1;
nodes = (
"342 500 LINE",
"592 500 LINE",
"583 445 LINE",
"333 445 LINE"
);
}
);
};
layerId = "C92D7C27-2246-4784-91DF-7F4E0C5E615D";
paths = (
{
closed = 1;
nodes = (
"228 -10 OFFCURVE",
"267 25 OFFCURVE",
"278 97 CURVE SMOOTH",
"305 269 LINE",
"555 269 LINE",
"531 116 LINE SMOOTH",
"518 36 OFFCURVE",
"554 -10 OFFCURVE",
"622 -10 CURVE SMOOTH",
"693 -10 OFFCURVE",
"732 25 OFFCURVE",
"743 97 CURVE SMOOTH",
"814 544 LINE",
"762 500 LINE",
"814 500 LINE SMOOTH",
"870 500 OFFCURVE",
"904 534 OFFCURVE",
"904 590 CURVE SMOOTH",
"904 629 OFFCURVE",
"876 650 OFFCURVE",
"825 650 CURVE SMOOTH",
"786 650 LINE",
"820 583 LINE",
"822 595 LINE SMOOTH",
"835 671 OFFCURVE",
"798 715 OFFCURVE",
"731 715 CURVE SMOOTH",
"660 715 OFFCURVE",
"620 680 OFFCURVE",
"609 608 CURVE SMOOTH",
"607 595 LINE",
"661 650 LINE",
"321 650 LINE",
"354 577 LINE",
"357 595 LINE SMOOTH",
"370 671 OFFCURVE",
"333 715 OFFCURVE",
"266 715 CURVE SMOOTH",
"195 715 OFFCURVE",
"155 680 OFFCURVE",
"144 608 CURVE SMOOTH",
"142 595 LINE",
"196 650 LINE",
"144 650 LINE SMOOTH",
"88 650 OFFCURVE",
"54 616 OFFCURVE",
"54 560 CURVE SMOOTH",
"54 521 OFFCURVE",
"82 500 OFFCURVE",
"133 500 CURVE SMOOTH",
"172 500 LINE",
"134 544 LINE",
"66 116 LINE SMOOTH",
"53 36 OFFCURVE",
"89 -10 OFFCURVE",
"157 -10 CURVE SMOOTH"
);
},
{
closed = 1;
nodes = (
"342 500 LINE",
"592 500 LINE",
"583 445 LINE",
"333 445 LINE"
);
}
);
width = 854;
}
);
leftKerningGroup = H;
rightKerningGroup = H;
unicode = 0126;
userData = {
com.typemytype.robofont.layerData = {
b = {
anchors = (
);
components = (
);
contours = (
);
lib = {
};
name = Hbar;
unicodes = (
);
width = 1464;
};
};
};
},
{
color = 3;
glyphname = I;
lastChange = "2019-10-22 12:34:12 +0000";
layers = (
{
anchors = (
{
name = bottom;
position = "{117, 0}";
},
{
name = ogonek;
position = "{138, 0}";
},
{
name = top;
position = "{117, 705}";
},
{
name = topleft;
position = "{28, 705}";
}
);
background = {
anchors = (
{
name = bottom;
position = "{117, 0}";
},
{
name = ogonek;
position = "{138, 0}";
},
{
name = top;
position = "{117, 705}";
},
{
name = topleft;
position = "{28, 705}";
}
);
paths = (
{
closed = 1;
nodes = (
"131 -6 OFFCURVE",
"138 2 OFFCURVE",
"138 16 CURVE SMOOTH",
"138 689 LINE SMOOTH",
"138 703 OFFCURVE",
"130 711 OFFCURVE",
"117 711 CURVE SMOOTH",
"104 711 OFFCURVE",
"96 703 OFFCURVE",
"96 689 CURVE SMOOTH",
"96 16 LINE SMOOTH",
"96 2 OFFCURVE",
"104 -6 OFFCURVE",
"117 -6 CURVE SMOOTH"
);
}
);
};
layerId = "F1F93986-3ED8-4AAE-84C4-CA3EEECDDFA0";
paths = (
{
closed = 1;
nodes = (
"131 -6 OFFCURVE",
"138 2 OFFCURVE",
"138 16 CURVE SMOOTH",
"138 689 LINE SMOOTH",
"138 703 OFFCURVE",
"130 711 OFFCURVE",
"117 711 CURVE SMOOTH",
"104 711 OFFCURVE",
"96 703 OFFCURVE",
"96 689 CURVE SMOOTH",
"96 16 LINE SMOOTH",
"96 2 OFFCURVE",
"104 -6 OFFCURVE",
"117 -6 CURVE SMOOTH"
);
}
);
width = 234;
},
{
anchors = (
{
name = bottom;
position = "{164, 0}";
},
{
name = ogonek;
position = "{217, 0}";
},
{
name = top;
position = "{164, 705}";
},
{
name = topleft;
position = "{18, 705}";
}
);
background = {
anchors = (
{
name = bottom;
position = "{164, 0}";
},
{
name = ogonek;
position = "{217, 0}";
},
{
name = top;
position = "{164, 705}";
},
{
name = topleft;
position = "{18, 705}";
}
);
paths = (
{
closed = 1;
nodes = (
"235 -10 OFFCURVE",
"272 29 OFFCURVE",
"272 100 CURVE SMOOTH",
"272 605 LINE SMOOTH",
"272 676 OFFCURVE",
"234 715 OFFCURVE",
"165 715 CURVE SMOOTH",
"96 715 OFFCURVE",
"57 676 OFFCURVE",
"57 605 CURVE SMOOTH",
"57 100 LINE SMOOTH",
"57 29 OFFCURVE",
"96 -10 OFFCURVE",
"165 -10 CURVE SMOOTH"
);
}
);
};
layerId = "4121B50C-FD42-45C5-8FBE-41E76D98F91E";
paths = (
{
closed = 1;
nodes = (
"235 -10 OFFCURVE",
"272 29 OFFCURVE",
"272 100 CURVE SMOOTH",
"272 605 LINE SMOOTH",
"272 676 OFFCURVE",
"234 715 OFFCURVE",
"165 715 CURVE SMOOTH",
"96 715 OFFCURVE",
"57 676 OFFCURVE",
"57 605 CURVE SMOOTH",
"57 100 LINE SMOOTH",
"57 29 OFFCURVE",
"96 -10 OFFCURVE",
"165 -10 CURVE SMOOTH"
);
}
);
width = 329;
},
{
anchors = (
{
name = bottom;
position = "{79, 0}";
},
{
name = ogonek;
position = "{100, 0}";
},
{
name = top;
position = "{191, 705}";
},
{
name = topleft;
position = "{102, 705}";
}
);
background = {
anchors = (
{
name = bottom;
position = "{79, 0}";
},
{
name = ogonek;
position = "{100, 0}";
},
{
name = top;
position = "{191, 705}";
},
{
name = topleft;
position = "{102, 705}";
}
);
paths = (
{
closed = 1;
nodes = (
"93 0 OFFCURVE",
"101 8 OFFCURVE",
"103 22 CURVE SMOOTH",
"208 679 LINE SMOOTH",
"211 696 OFFCURVE",
"204 705 OFFCURVE",
"191 705 CURVE SMOOTH",
"177 705 OFFCURVE",
"169 697 OFFCURVE",
"167 683 CURVE SMOOTH",
"62 26 LINE SMOOTH",
"59 9 OFFCURVE",
"66 0 OFFCURVE",
"79 0 CURVE SMOOTH"
);
}
);
};
layerId = "D8D4984A-F5A5-43C0-BF2B-5708C10C5E92";
paths = (
{
closed = 1;
nodes = (
"93 -6 OFFCURVE",
"100 2 OFFCURVE",
"102 16 CURVE SMOOTH",
"208 685 LINE SMOOTH",
"211 702 OFFCURVE",
"203 711 OFFCURVE",
"190 711 CURVE SMOOTH",
"176 711 OFFCURVE",
"169 703 OFFCURVE",
"167 689 CURVE SMOOTH",
"61 20 LINE SMOOTH",
"58 3 OFFCURVE",
"66 -6 OFFCURVE",
"79 -6 CURVE SMOOTH"
);
}
);
width = 234;
},
{
anchors = (
{
name = bottom;
position = "{125, 0}";
},
{
name = ogonek;
position = "{176, 0}";
},
{
name = top;
position = "{236, 705}";
},
{
name = topleft;
position = "{89, 705}";
}
);
background = {
anchors = (
{
name = bottom;
position = "{125, 0}";
},
{
name = ogonek;
position = "{176, 0}";
},
{
name = top;
position = "{236, 705}";
},
{
name = topleft;
position = "{89, 705}";
}
);
paths = (
{
closed = 1;
nodes = (
"197 0 OFFCURVE",
"239 35 OFFCURVE",
"250 107 CURVE SMOOTH",
"325 579 LINE SMOOTH",
"338 659 OFFCURVE",
"305 705 OFFCURVE",
"238 705 CURVE SMOOTH",
"167 705 OFFCURVE",
"124 670 OFFCURVE",
"113 598 CURVE SMOOTH",
"38 126 LINE SMOOTH",
"25 46 OFFCURVE",
"58 0 OFFCURVE",
"126 0 CURVE SMOOTH"
);
}
);
};
layerId = "C92D7C27-2246-4784-91DF-7F4E0C5E615D";
paths = (
{
closed = 1;
nodes = (
"199 -10 OFFCURVE",
"238 25 OFFCURVE",
"249 97 CURVE SMOOTH",
"327 589 LINE SMOOTH",
"340 669 OFFCURVE",
"310 715 OFFCURVE",
"237 715 CURVE SMOOTH",
"166 715 OFFCURVE",
"126 680 OFFCURVE",
"115 608 CURVE SMOOTH",
"37 116 LINE SMOOTH",
"24 36 OFFCURVE",
"54 -10 OFFCURVE",
"128 -10 CURVE SMOOTH"
);
}
);
width = 329;
}
);
leftKerningGroup = H;
rightKerningGroup = H;
unicode = 0049;
userData = {
anchors = (
);
b = {
};
com.typemytype.robofont.layerData = {
b = {
anchors = (
);
components = (
);
contours = (
);
lib = {
};
name = I;
unicodes = (
);
width = 592;
};
};
components = (
);
contours = (
);
lib = {
};
name = I;
unicodes = (
);
width = 637;
};
},
{
color = 3;
glyphname = J;
lastChange = "2019-10-22 18:55:02 +0000";
layers = (
{
anchors = (
{
name = bottom;
position = "{181, 0}";
},
{
name = top;
position = "{180, 705}";
}
);
background = {
anchors = (
{
name = bottom;
position = "{181, 0}";
},
{
name = top;
position = "{180, 705}";
}
);
paths = (
{
closed = 1;
nodes = (
"44 -2 LINE SMOOTH",
"145 5 OFFCURVE",
"201 70 OFFCURVE",
"201 177 CURVE SMOOTH",
"201 705 LINE",
"159 705 LINE",
"159 179 LINE SMOOTH",
"159 96 OFFCURVE",
"116 42 OFFCURVE",
"41 36 CURVE SMOOTH",
"-10 32 LINE",
"-6 -6 LINE"
);
}
);
};
layerId = "F1F93986-3ED8-4AAE-84C4-CA3EEECDDFA0";
paths = (
{
closed = 1;
nodes = (
"44 -2 LINE SMOOTH",
"145 7 OFFCURVE",
"201 70 OFFCURVE",
"201 177 CURVE SMOOTH",
"201 689 LINE SMOOTH",
"201 703 OFFCURVE",
"193 711 OFFCURVE",
"180 711 CURVE SMOOTH",
"167 711 OFFCURVE",
"159 703 OFFCURVE",
"159 689 CURVE SMOOTH",
"159 179 LINE SMOOTH",
"159 96 OFFCURVE",
"116 43 OFFCURVE",
"41 36 CURVE SMOOTH",
"8 33 LINE SMOOTH",
"-5 32 OFFCURVE",
"-11 23 OFFCURVE",
"-11 15 CURVE SMOOTH",
"-11 4 OFFCURVE",
"-3 -6 OFFCURVE",
"12 -5 CURVE SMOOTH"
);
}
);
width = 297;
},
{
anchors = (
{
name = bottom;
position = "{246, 0}";
},
{
name = top;
position = "{246, 705}";
}
);
background = {
anchors = (
{
name = bottom;
position = "{246, 0}";
},
{
name = top;
position = "{246, 705}";
}
);
paths = (
{
closed = 1;
nodes = (
"117 -7 LINE SMOOTH",
"277 2 OFFCURVE",
"354 76 OFFCURVE",
"354 221 CURVE SMOOTH",
"354 705 LINE",
"139 705 LINE",
"139 217 LINE SMOOTH",
"139 177 OFFCURVE",
"123 166 OFFCURVE",
"80 164 CURVE SMOOTH",
"-9 159 LINE",
"4 -12 LINE"
);
}
);
};
layerId = "4121B50C-FD42-45C5-8FBE-41E76D98F91E";
paths = (
{
closed = 1;
nodes = (
"117 -7 LINE SMOOTH",
"277 2 OFFCURVE",
"354 76 OFFCURVE",
"354 221 CURVE SMOOTH",
"354 606 LINE SMOOTH",
"354 676 OFFCURVE",
"316 715 OFFCURVE",
"247 715 CURVE SMOOTH",
"178 715 OFFCURVE",
"139 676 OFFCURVE",
"139 606 CURVE SMOOTH",
"139 217 LINE SMOOTH",
"139 177 OFFCURVE",
"123 167 OFFCURVE",
"80 164 CURVE SMOOTH",
"53 162 LINE SMOOTH",
"8 159 OFFCURVE",
"-16 125 OFFCURVE",
"-16 82 CURVE SMOOTH",
"-16 27 OFFCURVE",
"18 -12 OFFCURVE",
"80 -9 CURVE SMOOTH"
);
}
);
width = 411;
},
{
anchors = (
{
name = bottom;
position = "{143, 0}";
},
{
name = top;
position = "{253, 705}";
}
);
background = {
anchors = (
{
name = bottom;
position = "{143, 0}";
},
{
name = top;
position = "{254, 705}";
}
);
paths = (
{
closed = 1;
nodes = (
"5 -3 LINE SMOOTH",
"112 4 OFFCURVE",
"173 68 OFFCURVE",
"190 177 CURVE SMOOTH",
"274 705 LINE",
"232 705 LINE",
"150 187 LINE SMOOTH",
"135 92 OFFCURVE",
"86 42 OFFCURVE",
"6 36 CURVE SMOOTH",
"-44 32 LINE",
"-43 -6 LINE"
);
}
);
};
layerId = "D8D4984A-F5A5-43C0-BF2B-5708C10C5E92";
paths = (
{
closed = 1;
nodes = (
"5 -3 LINE SMOOTH",
"112 8 OFFCURVE",
"173 68 OFFCURVE",
"190 177 CURVE SMOOTH",
"271 686 LINE SMOOTH",
"274 702 OFFCURVE",
"267 711 OFFCURVE",
"254 711 CURVE SMOOTH",
"240 711 OFFCURVE",
"232 704 OFFCURVE",
"230 690 CURVE SMOOTH",
"150 187 LINE SMOOTH",
"135 92 OFFCURVE",
"86 43 OFFCURVE",
"6 36 CURVE SMOOTH",
"-27 33 LINE SMOOTH",
"-41 32 OFFCURVE",
"-49 25 OFFCURVE",
"-49 13 CURVE SMOOTH",
"-49 0 OFFCURVE",
"-40 -8 OFFCURVE",
"-23 -6 CURVE SMOOTH"
);
}
);
width = 297;
},
{
anchors = (
{
name = bottom;
position = "{207, 0}";
},
{
name = top;
position = "{318, 705}";
}
);
background = {
anchors = (
{
name = bottom;
position = "{207, 0}";
},
{
name = top;
position = "{318, 705}";
}
);
paths = (
{
closed = 1;
nodes = (
"82 -6 LINE SMOOTH",
"265 4 OFFCURVE",
"327 74 OFFCURVE",
"349 215 CURVE SMOOTH",
"427 705 LINE",
"212 705 LINE",
"136 227 LINE SMOOTH",
"129 182 OFFCURVE",
"109 166 OFFCURVE",
"65 164 CURVE SMOOTH",
"-27 159 LINE",
"-33 -12 LINE"
);
}
);
};
layerId = "C92D7C27-2246-4784-91DF-7F4E0C5E615D";
paths = (
{
closed = 1;
nodes = (
"82 -6 LINE SMOOTH",
"265 4 OFFCURVE",
"327 74 OFFCURVE",
"349 215 CURVE SMOOTH",
"410 600 LINE SMOOTH",
"421 672 OFFCURVE",
"385 715 OFFCURVE",
"312 715 CURVE SMOOTH",
"246 715 OFFCURVE",
"207 683 OFFCURVE",
"197 617 CURVE SMOOTH",
"136 227 LINE SMOOTH",
"129 182 OFFCURVE",
"109 166 OFFCURVE",
"65 164 CURVE SMOOTH",
"37 163 LINE SMOOTH",
"-15 161 OFFCURVE",
"-38 130 OFFCURVE",
"-40 74 CURVE SMOOTH",
"-42 20 OFFCURVE",
"-5 -12 OFFCURVE",
"51 -8 CURVE SMOOTH"
);
}
);
width = 411;
}
);
leftKerningGroup = J;
rightKerningGroup = J;
unicode = 004A;
userData = {
anchors = (
);
b = {
};
com.typemytype.robofont.layerData = {
b = {
anchors = (
);
components = (
);
contours = (
);
lib = {
};
name = J;
unicodes = (
);
width = 1003;
};
};
components = (
);
contours = (
);
lib = {
};
name = J;
unicodes = (
);
width = 1126;
};
},
{
color = 3;
glyphname = K;
lastChange = "2019-10-22 22:21:42 +0000";
layers = (
{
anchors = (
{
name = bottom;
position = "{302, 0}";
},
{
name = top;
position = "{301, 705}";
},
{
name = topleft;
position = "{27, 705}";
}
);
background = {
anchors = (
{
name = bottom;
position = "{302, 0}";
},
{
name = top;
position = "{301, 705}";
},
{
name = topleft;
position = "{27, 705}";
}
);
paths = (
{
closed = 1;
nodes = (
"138 0 LINE",
"138 338 LINE",
"140 338 LINE",
"532 0 LINE",
"594 0 LINE",
"160 374 LINE",
"158 342 LINE",
"568 705 LINE",
"509 705 LINE",
"140 377 LINE",
"138 377 LINE",
"138 705 LINE",
"96 705 LINE",
"96 0 LINE"
);
}
);
};
layerId = "F1F93986-3ED8-4AAE-84C4-CA3EEECDDFA0";
paths = (
{
closed = 1;
nodes = (
"131 -6 OFFCURVE",
"138 2 OFFCURVE",
"138 16 CURVE SMOOTH",
"138 338 LINE",
"140 338 LINE",
"522 8 LINE SMOOTH",
"533 -2 OFFCURVE",
"541 -6 OFFCURVE",
"552 -6 CURVE SMOOTH",
"571 -6 OFFCURVE",
"581 11 OFFCURVE",
"561 28 CURVE SMOOTH",
"160 374 LINE",
"158 342 LINE",
"543 683 LINE SMOOTH",
"559 697 OFFCURVE",
"552 711 OFFCURVE",
"533 711 CURVE SMOOTH",
"522 711 OFFCURVE",
"512 707 OFFCURVE",
"499 696 CURVE SMOOTH",
"140 377 LINE",
"138 377 LINE",
"138 689 LINE SMOOTH",
"138 703 OFFCURVE",
"130 711 OFFCURVE",
"117 711 CURVE SMOOTH",
"104 711 OFFCURVE",
"96 703 OFFCURVE",
"96 689 CURVE SMOOTH",
"96 16 LINE SMOOTH",
"96 2 OFFCURVE",
"104 -6 OFFCURVE",
"117 -6 CURVE SMOOTH"
);
}
);
width = 590;
},
{
anchors = (
{
name = bottom;
position = "{362, 0}";
},
{
name = top;
position = "{362, 705}";
},
{
name = topleft;
position = "{18, 705}";
}
);
background = {
anchors = (
{
name = bottom;
position = "{362, 0}";
},
{
name = top;
position = "{362, 705}";
},
{
name = topleft;
position = "{18, 705}";
}
);
paths = (
{
closed = 1;
nodes = (
"272 0 LINE",
"272 314 LINE",
"274 314 LINE",
"534 0 LINE",
"788 0 LINE",
"446 416 LINE",
"446 331 LINE",
"780 705 LINE",
"527 705 LINE",
"274 408 LINE",
"272 408 LINE",
"272 705 LINE",
"57 705 LINE",
"57 0 LINE"
);
}
);
};
layerId = "4121B50C-FD42-45C5-8FBE-41E76D98F91E";
paths = (
{
closed = 1;
nodes = (
"235 -10 OFFCURVE",
"272 29 OFFCURVE",
"272 99 CURVE SMOOTH",
"272 314 LINE",
"274 314 LINE",
"490 53 LINE SMOOTH",
"524 11 OFFCURVE",
"551 -10 OFFCURVE",
"604 -10 CURVE SMOOTH",
"695 -10 OFFCURVE",
"727 73 OFFCURVE",
"671 142 CURVE SMOOTH",
"446 416 LINE",
"446 331 LINE",
"659 569 LINE SMOOTH",
"708 623 OFFCURVE",
"689 714 OFFCURVE",
"594 714 CURVE SMOOTH",
"551 714 OFFCURVE",
"520 697 OFFCURVE",
"493 666 CURVE SMOOTH",
"274 408 LINE",
"272 408 LINE",
"272 606 LINE SMOOTH",
"272 676 OFFCURVE",
"234 715 OFFCURVE",
"165 715 CURVE SMOOTH",
"96 715 OFFCURVE",
"57 676 OFFCURVE",
"57 606 CURVE SMOOTH",
"57 99 LINE SMOOTH",
"57 29 OFFCURVE",
"96 -10 OFFCURVE",
"165 -10 CURVE SMOOTH"
);
}
);
width = 739;
},
{
anchors = (
{
name = bottom;
position = "{274, 0}";
},
{
name = top;
position = "{375, 705}";
},
{
name = topleft;
position = "{101, 705}";
}
);
background = {
anchors = (
{
name = bottom;
position = "{274, 0}";
},
{
name = top;
position = "{375, 705}";
},
{
name = topleft;
position = "{101, 705}";
}
);
paths = (
{
closed = 1;
nodes = (
"100 0 LINE",
"154 338 LINE",
"156 338 LINE",
"499 0 LINE",
"556 0 LINE",
"183 369 LINE",
"178 339 LINE",
"645 705 LINE",
"583 705 LINE",
"162 377 LINE",
"160 377 LINE",
"212 705 LINE",
"170 705 LINE",
"58 0 LINE"
);
}
);
};
layerId = "D8D4984A-F5A5-43C0-BF2B-5708C10C5E92";
paths = (
{
closed = 1;
nodes = (
"94 -6 OFFCURVE",
"101 1 OFFCURVE",
"103 15 CURVE SMOOTH",
"154 338 LINE",
"156 338 LINE",
"493 6 LINE SMOOTH",
"501 -2 OFFCURVE",
"508 -6 OFFCURVE",
"517 -6 CURVE SMOOTH",
"536 -6 OFFCURVE",
"544 13 OFFCURVE",
"530 26 CURVE SMOOTH",
"183 369 LINE",
"178 339 LINE",
"613 680 LINE SMOOTH",
"627 691 OFFCURVE",
"620 711 OFFCURVE",
"602 711 CURVE SMOOTH",
"593 711 OFFCURVE",
"588 709 OFFCURVE",
"578 701 CURVE SMOOTH",
"162 377 LINE",
"160 377 LINE",
"209 686 LINE SMOOTH",
"212 702 OFFCURVE",
"204 711 OFFCURVE",
"191 711 CURVE SMOOTH",
"177 711 OFFCURVE",
"170 704 OFFCURVE",
"168 690 CURVE SMOOTH",
"62 19 LINE SMOOTH",
"59 3 OFFCURVE",
"67 -6 OFFCURVE",
"80 -6 CURVE SMOOTH"
);
}
);
width = 590;
},
{
anchors = (
{
name = bottom;
position = "{325, 0}";
},
{
name = top;
position = "{433, 705}";
},
{
name = topleft;
position = "{88, 705}";
}
);
background = {
anchors = (
{
name = bottom;
position = "{325, 0}";
},
{
name = top;
position = "{433, 705}";
},
{
name = topleft;
position = "{88, 705}";
}
);
paths = (
{
closed = 1;
nodes = (
"233 0 LINE",
"284 319 LINE",
"286 319 LINE",
"510 0 LINE",
"749 0 LINE",
"460 416 LINE",
"474 329 LINE",
"850 705 LINE",
"587 705 LINE",
"300 409 LINE",
"298 409 LINE",
"345 705 LINE",
"130 705 LINE",
"18 0 LINE"
);
}
);
};
guideLines = (
{
angle = -55.165;
position = "{588, 232}";
}
);
layerId = "C92D7C27-2246-4784-91DF-7F4E0C5E615D";
paths = (
{
closed = 1;
nodes = (
"198 -10 OFFCURVE",
"237 23 OFFCURVE",
"248 93 CURVE SMOOTH",
"284 319 LINE",
"286 319 LINE",
"466 62 LINE SMOOTH",
"505 6 OFFCURVE",
"532 -10 OFFCURVE",
"584 -10 CURVE SMOOTH",
"664 -10 OFFCURVE",
"704 66 OFFCURVE",
"659 130 CURVE SMOOTH",
"460 416 LINE",
"474 329 LINE",
"713 568 LINE SMOOTH",
"773 628 OFFCURVE",
"740 715 OFFCURVE",
"654 715 CURVE SMOOTH",
"606 715 OFFCURVE",
"580 698 OFFCURVE",
"548 665 CURVE SMOOTH",
"300 409 LINE",
"298 409 LINE",
"327 591 LINE SMOOTH",
"340 670 OFFCURVE",
"305 715 OFFCURVE",
"237 715 CURVE SMOOTH",
"167 715 OFFCURVE",
"126 680 OFFCURVE",
"115 610 CURVE SMOOTH",
"36 114 LINE SMOOTH",
"23 35 OFFCURVE",
"58 -10 OFFCURVE",
"127 -10 CURVE SMOOTH"
);
}
);
width = 739;
}
);
leftKerningGroup = H;
rightKerningGroup = K;
unicode = 004B;
userData = {
anchors = (
);
b = {
};
com.typemytype.robofont.layerData = {
b = {
anchors = (
);
components = (
);
contours = (
);
lib = {
};
name = K;
unicodes = (
);
width = 1210;
};
};
components = (
);
contours = (
);
lib = {
};
name = K;
unicodes = (
);
width = 1329;
};
},
{
color = 3;
glyphname = L;
lastChange = "2019-10-22 19:58:27 +0000";
layers = (
{
anchors = (
{
name = bottom;
position = "{305, 0}";
},
{
name = center;
position = "{161, 387}";
},
{
name = dot;
position = "{384, 386}";
},
{
name = top;
position = "{117, 705}";
},
{
name = topright;
position = "{260, 705}";
}
);
background = {
anchors = (
{
name = bottom;
position = "{305, 0}";
},
{
name = center;
position = "{161, 387}";
},
{
name = dot;
position = "{384, 386}";
},
{
name = top;
position = "{117, 705}";
},
{
name = topright;
position = "{260, 705}";
}
);
paths = (
{
closed = 1;
nodes = (
"514 0 LINE",
"514 39 LINE",
"138 39 LINE",
"138 705 LINE",
"96 705 LINE",
"96 0 LINE"
);
}
);
};
layerId = "F1F93986-3ED8-4AAE-84C4-CA3EEECDDFA0";
paths = (
{
closed = 1;
nodes = (
"498 0 LINE SMOOTH",
"512 0 OFFCURVE",
"520 7 OFFCURVE",
"520 20 CURVE SMOOTH",
"520 32 OFFCURVE",
"512 39 OFFCURVE",
"498 39 CURVE SMOOTH",
"138 39 LINE",
"138 689 LINE SMOOTH",
"138 703 OFFCURVE",
"130 711 OFFCURVE",
"117 711 CURVE SMOOTH",
"104 711 OFFCURVE",
"96 703 OFFCURVE",
"96 689 CURVE SMOOTH",
"96 22 LINE SMOOTH",
"96 8 OFFCURVE",
"104 0 OFFCURVE",
"118 0 CURVE SMOOTH"
);
}
);
width = 527;
},
{
anchors = (
{
name = bottom;
position = "{315, 0}";
},
{
name = center;
position = "{212, 387}";
},
{
name = dot;
position = "{465, 402}";
},
{
name = top;
position = "{164, 705}";
},
{
name = topright;
position = "{362, 705}";
}
);
background = {
anchors = (
{
name = bottom;
position = "{315, 0}";
},
{
name = center;
position = "{212, 387}";
},
{
name = dot;
position = "{465, 402}";
},
{
name = top;
position = "{164, 705}";
},
{
name = topright;
position = "{362, 705}";
}
);
paths = (
{
closed = 1;
nodes = (
"572 0 LINE",
"572 178 LINE",
"272 178 LINE",
"272 705 LINE",
"57 705 LINE",
"57 0 LINE"
);
}
);
};
layerId = "4121B50C-FD42-45C5-8FBE-41E76D98F91E";
paths = (
{
closed = 1;
nodes = (
"491 0 LINE SMOOTH",
"550 0 OFFCURVE",
"582 32 OFFCURVE",
"582 89 CURVE SMOOTH",
"582 146 OFFCURVE",
"550 178 OFFCURVE",
"491 178 CURVE SMOOTH",
"272 178 LINE",
"272 596 LINE SMOOTH",
"272 666 OFFCURVE",
"234 705 OFFCURVE",
"165 705 CURVE SMOOTH",
"96 705 OFFCURVE",
"57 666 OFFCURVE",
"57 596 CURVE SMOOTH",
"57 109 LINE SMOOTH",
"57 39 OFFCURVE",
"96 0 OFFCURVE",
"166 0 CURVE SMOOTH"
);
}
);
width = 598;
},
{
anchors = (
{
name = bottom;
position = "{267, 0}";
},
{
name = center;
position = "{185, 387}";
},
{
name = dot;
position = "{407, 386}";
},
{
name = top;
position = "{191, 705}";
},
{
name = topright;
position = "{333, 705}";
}
);
background = {
anchors = (
{
name = bottom;
position = "{267, 0}";
},
{
name = center;
position = "{185, 387}";
},
{
name = dot;
position = "{407, 386}";
},
{
name = top;
position = "{191, 705}";
},
{
name = topright;
position = "{333, 705}";
}
);
paths = (
{
closed = 1;
nodes = (
"476 0 LINE",
"482 39 LINE",
"107 39 LINE",
"212 705 LINE",
"170 705 LINE",
"58 0 LINE"
);
}
);
};
layerId = "D8D4984A-F5A5-43C0-BF2B-5708C10C5E92";
paths = (
{
closed = 1;
nodes = (
"462 0 LINE SMOOTH",
"474 0 OFFCURVE",
"485 6 OFFCURVE",
"485 24 CURVE SMOOTH",
"485 34 OFFCURVE",
"477 39 OFFCURVE",
"464 39 CURVE SMOOTH",
"107 39 LINE",
"209 687 LINE SMOOTH",
"211 702 OFFCURVE",
"205 711 OFFCURVE",
"191 711 CURVE SMOOTH",
"178 711 OFFCURVE",
"170 705 OFFCURVE",
"168 691 CURVE SMOOTH",
"62 24 LINE SMOOTH",
"60 9 OFFCURVE",
"67 0 OFFCURVE",
"82 0 CURVE SMOOTH"
);
}
);
width = 527;
},
{
anchors = (
{
name = bottom;
position = "{281, 0}";
},
{
name = center;
position = "{233, 387}";
},
{
name = dot;
position = "{488, 402}";
},
{
name = top;
position = "{235, 705}";
},
{
name = topright;
position = "{433, 705}";
}
);
background = {
anchors = (
{
name = bottom;
position = "{281, 0}";
},
{
name = center;
position = "{233, 387}";
},
{
name = dot;
position = "{488, 402}";
},
{
name = top;
position = "{235, 705}";
},
{
name = topright;
position = "{433, 705}";
}
);
paths = (
{
closed = 1;
nodes = (
"533 0 LINE",
"561 178 LINE",
"262 178 LINE",
"345 705 LINE",
"130 705 LINE",
"18 0 LINE"
);
}
);
};
layerId = "C92D7C27-2246-4784-91DF-7F4E0C5E615D";
paths = (
{
closed = 1;
nodes = (
"452 0 LINE SMOOTH",
"519 0 OFFCURVE",
"558 40 OFFCURVE",
"558 106 CURVE SMOOTH",
"558 152 OFFCURVE",
"524 178 OFFCURVE",
"464 178 CURVE SMOOTH",
"262 178 LINE",
"329 598 LINE SMOOTH",
"341 672 OFFCURVE",
"305 715 OFFCURVE",
"233 715 CURVE SMOOTH",
"166 715 OFFCURVE",
"126 681 OFFCURVE",
"116 615 CURVE SMOOTH",
"37 117 LINE SMOOTH",
"25 43 OFFCURVE",
"62 0 OFFCURVE",
"137 0 CURVE SMOOTH"
);
}
);
width = 598;
}
);
leftKerningGroup = H;
rightKerningGroup = L;
unicode = 004C;
userData = {
anchors = (
);
b = {
};
com.typemytype.robofont.layerData = {
b = {
anchors = (
);
components = (
);
contours = (
{
points = (
{
segmentType = curve;
smooth = 1;
x = 266;
y = 0;
},
{
segmentType = line;
smooth = 1;
x = 1035;
y = 0;
},
{
smooth = 0;
x = 1084;
y = 0;
},
{
smooth = 0;
x = 1108;
y = 34;
},
{
segmentType = curve;
smooth = 1;
x = 1108;
y = 71;
},
{
smooth = 0;
x = 1108;
y = 107;
},
{
smooth = 0;
x = 1084;
y = 141;
},
{
segmentType = curve;
smooth = 1;
x = 1035;
y = 141;
},
{
segmentType = line;
smooth = 0;
x = 356;
y = 141;
},
{
segmentType = line;
smooth = 0;
x = 356;
y = 665;
},
{
segmentType = line;
smooth = 1;
x = 975;
y = 665;
},
{
smooth = 0;
x = 1024;
y = 665;
},
{
smooth = 0;
x = 1049;
y = 698;
},
{
segmentType = curve;
smooth = 1;
x = 1049;
y = 734;
},
{
smooth = 0;
x = 1049;
y = 770;
},
{
smooth = 0;
x = 1026;
y = 803;
},
{
segmentType = curve;
smooth = 1;
x = 975;
y = 803;
},
{
segmentType = line;
smooth = 0;
x = 356;
y = 803;
},
{
segmentType = line;
smooth = 0;
x = 356;
y = 1285;
},
{
segmentType = line;
smooth = 1;
x = 1007;
y = 1285;
},
{
smooth = 0;
x = 1056;
y = 1285;
},
{
smooth = 0;
x = 1080;
y = 1319;
},
{
segmentType = curve;
smooth = 1;
x = 1080;
y = 1356;
},
{
smooth = 0;
x = 1080;
y = 1392;
},
{
smooth = 0;
x = 1056;
y = 1426;
},
{
segmentType = curve;
smooth = 1;
x = 1007;
y = 1426;
},
{
segmentType = line;
smooth = 1;
x = 261;
y = 1426;
},
{
smooth = 0;
x = 213;
y = 1426;
},
{
smooth = 0;
x = 178;
y = 1383;
},
{
segmentType = curve;
smooth = 1;
x = 178;
y = 1340;
},
{
segmentType = line;
smooth = 1;
x = 178;
y = 86;
},
{
smooth = 0;
x = 178;
y = 41;
},
{
smooth = 0;
x = 222;
y = 0;
}
);
}
);
lib = {
};
name = L;
unicodes = (
);
width = 1095;
};
};
components = (
);
contours = (
);
lib = {
};
name = L;
unicodes = (
);
width = 1169;
};
},
{
color = 3;
glyphname = M;
lastChange = "2019-10-22 20:53:23 +0000";
layers = (
{
anchors = (
{
name = bottom;
position = "{422, 0}";
},
{
name = top;
position = "{422, 705}";
}
);
background = {
anchors = (
{
name = bottom;
position = "{422, 0}";
},
{
name = top;
position = "{422, 705}";
}
);
paths = (
{
closed = 1;
nodes = (
"137 0 LINE",
"137 666 LINE",
"112 666 LINE",
"406 110 LINE",
"441 110 LINE",
"731 665 LINE",
"707 665 LINE",
"707 0 LINE",
"746 0 LINE",
"746 705 LINE",
"710 705 LINE",
"409 127 LINE",
"437 127 LINE",
"134 705 LINE",
"98 705 LINE",
"98 0 LINE"
);
}
);
};
layerId = "F1F93986-3ED8-4AAE-84C4-CA3EEECDDFA0";
paths = (
{
closed = 1;
nodes = (
"130 -6 OFFCURVE",
"137 2 OFFCURVE",
"137 16 CURVE SMOOTH",
"137 666 LINE",
"112 666 LINE",
"401 120 LINE SMOOTH",
"406 110 OFFCURVE",
"412 104 OFFCURVE",
"424 104 CURVE SMOOTH",
"436 104 OFFCURVE",
"440 109 OFFCURVE",
"446 120 CURVE SMOOTH",
"731 665 LINE",
"707 665 LINE",
"707 16 LINE SMOOTH",
"707 2 OFFCURVE",
"714 -6 OFFCURVE",
"727 -6 CURVE SMOOTH",
"739 -6 OFFCURVE",
"746 2 OFFCURVE",
"746 16 CURVE SMOOTH",
"746 689 LINE SMOOTH",
"746 703 OFFCURVE",
"739 711 OFFCURVE",
"728 711 CURVE SMOOTH",
"716 711 OFFCURVE",
"711 706 OFFCURVE",
"705 695 CURVE SMOOTH",
"409 127 LINE",
"437 127 LINE",
"139 695 LINE SMOOTH",
"133 706 OFFCURVE",
"128 711 OFFCURVE",
"116 711 CURVE SMOOTH",
"105 711 OFFCURVE",
"98 703 OFFCURVE",
"98 689 CURVE SMOOTH",
"98 16 LINE SMOOTH",
"98 2 OFFCURVE",
"106 -6 OFFCURVE",
"118 -6 CURVE SMOOTH"
);
}
);
width = 844;
},
{
anchors = (
{
name = bottom;
position = "{447, 0}";
},
{
name = top;
position = "{447, 705}";
}
);
background = {
anchors = (
{
name = bottom;
position = "{447, 0}";
},
{
name = top;
position = "{447, 705}";
}
);
paths = (
{
closed = 1;
nodes = (
"253 0 LINE",
"253 365 LINE",
"230 365 LINE",
"388 103 LINE",
"502 103 LINE",
"660 365 LINE",
"640 365 LINE",
"640 0 LINE",
"834 0 LINE",
"834 705 LINE",
"660 705 LINE",
"431 301 LINE",
"467 301 LINE",
"238 705 LINE",
"59 705 LINE",
"59 0 LINE"
);
}
);
};
layerId = "4121B50C-FD42-45C5-8FBE-41E76D98F91E";
paths = (
{
closed = 1;
nodes = (
"219 -10 OFFCURVE",
"253 25 OFFCURVE",
"253 88 CURVE SMOOTH",
"253 365 LINE",
"230 365 LINE",
"364 143 LINE SMOOTH",
"384 109 OFFCURVE",
"406 93 OFFCURVE",
"445 93 CURVE SMOOTH",
"484 93 OFFCURVE",
"506 109 OFFCURVE",
"526 143 CURVE SMOOTH",
"660 365 LINE",
"640 365 LINE",
"640 88 LINE SMOOTH",
"640 25 OFFCURVE",
"674 -10 OFFCURVE",
"737 -10 CURVE SMOOTH",
"800 -10 OFFCURVE",
"834 25 OFFCURVE",
"834 88 CURVE SMOOTH",
"834 617 LINE SMOOTH",
"834 680 OFFCURVE",
"798 715 OFFCURVE",
"736 715 CURVE SMOOTH",
"682 715 OFFCURVE",
"654 695 OFFCURVE",
"627 647 CURVE SMOOTH",
"431 301 LINE",
"467 301 LINE",
"271 647 LINE SMOOTH",
"244 695 OFFCURVE",
"216 715 OFFCURVE",
"162 715 CURVE SMOOTH",
"97 715 OFFCURVE",
"59 680 OFFCURVE",
"59 617 CURVE SMOOTH",
"59 88 LINE SMOOTH",
"59 25 OFFCURVE",
"93 -10 OFFCURVE",
"156 -10 CURVE SMOOTH"
);
}
);
width = 893;
},
{
anchors = (
{
name = bottom;
position = "{389, 0}";
},
{
name = top;
position = "{496, 705}";
}
);
background = {
anchors = (
{
name = bottom;
position = "{389, 0}";
},
{
name = top;
position = "{496, 705}";
}
);
paths = (
{
closed = 1;
nodes = (
"99 0 LINE",
"204 666 LINE",
"184 666 LINE",
"385 110 LINE",
"420 110 LINE",
"798 665 LINE",
"773 665 LINE",
"668 0 LINE",
"707 0 LINE",
"819 705 LINE",
"783 705 LINE",
"389 127 LINE",
"416 127 LINE",
"208 705 LINE",
"172 705 LINE",
"60 0 LINE"
);
}
);
};
guideLines = (
{
angle = -69.5796;
position = "{318, 396}";
}
);
layerId = "D8D4984A-F5A5-43C0-BF2B-5708C10C5E92";
paths = (
{
closed = 1;
nodes = (
"95 0 OFFCURVE",
"100 7 OFFCURVE",
"102 19 CURVE SMOOTH",
"204 666 LINE",
"184 666 LINE",
"381 122 LINE SMOOTH",
"385 110 OFFCURVE",
"391 104 OFFCURVE",
"403 104 CURVE SMOOTH",
"414 104 OFFCURVE",
"419 108 OFFCURVE",
"425 117 CURVE SMOOTH",
"798 665 LINE",
"773 665 LINE",
"672 23 LINE SMOOTH",
"670 8 OFFCURVE",
"678 0 OFFCURVE",
"690 0 CURVE SMOOTH",
"703 0 OFFCURVE",
"708 7 OFFCURVE",
"710 19 CURVE SMOOTH",
"816 687 LINE SMOOTH",
"818 702 OFFCURVE",
"813 711 OFFCURVE",
"801 711 CURVE SMOOTH",
"790 711 OFFCURVE",
"784 706 OFFCURVE",
"778 697 CURVE SMOOTH",
"389 127 LINE",
"416 127 LINE",
"212 693 LINE SMOOTH",
"208 705 OFFCURVE",
"203 711 OFFCURVE",
"191 711 CURVE SMOOTH",
"179 711 OFFCURVE",
"172 705 OFFCURVE",
"170 691 CURVE SMOOTH",
"64 23 LINE SMOOTH",
"62 8 OFFCURVE",
"70 0 OFFCURVE",
"82 0 CURVE SMOOTH"
);
}
);
width = 844;
},
{
anchors = (
{
name = bottom;
position = "{417, 0}";
},
{
name = top;
position = "{519, 705}";
}
);
background = {
anchors = (
{
name = bottom;
position = "{417, 0}";
},
{
name = top;
position = "{519, 705}";
}
);
paths = (
{
closed = 1;
nodes = (
"214 0 LINE",
"272 364 LINE",
"250 364 LINE",
"370 103 LINE",
"484 103 LINE",
"682 372 LINE",
"660 372 LINE",
"601 0 LINE",
"795 0 LINE",
"907 705 LINE",
"723 705 LINE",
"432 301 LINE",
"463 301 LINE",
"301 705 LINE",
"132 705 LINE",
"20 0 LINE"
);
}
);
};
layerId = "C92D7C27-2246-4784-91DF-7F4E0C5E615D";
paths = (
{
closed = 1;
nodes = (
"181 -10 OFFCURVE",
"217 21 OFFCURVE",
"226 80 CURVE SMOOTH",
"271 364 LINE",
"250 364 LINE",
"349 149 LINE SMOOTH",
"367 110 OFFCURVE",
"388 93 OFFCURVE",
"427 93 CURVE SMOOTH",
"466 93 OFFCURVE",
"487 106 OFFCURVE",
"510 138 CURVE SMOOTH",
"682 372 LINE",
"660 372 LINE",
"616 95 LINE SMOOTH",
"606 29 OFFCURVE",
"637 -10 OFFCURVE",
"702 -10 CURVE SMOOTH",
"762 -10 OFFCURVE",
"799 20 OFFCURVE",
"808 80 CURVE SMOOTH",
"892 610 LINE SMOOTH",
"902 676 OFFCURVE",
"869 715 OFFCURVE",
"802 715 CURVE SMOOTH",
"750 715 OFFCURVE",
"718 698 OFFCURVE",
"686 654 CURVE SMOOTH",
"432 301 LINE",
"463 301 LINE",
"327 639 LINE SMOOTH",
"305 695 OFFCURVE",
"277 715 OFFCURVE",
"224 715 CURVE SMOOTH",
"165 715 OFFCURVE",
"128 685 OFFCURVE",
"119 625 CURVE SMOOTH",
"35 95 LINE SMOOTH",
"25 30 OFFCURVE",
"51 -10 OFFCURVE",
"121 -10 CURVE SMOOTH"
);
}
);
width = 893;
}
);
leftKerningGroup = H;
rightKerningGroup = H;
unicode = 004D;
userData = {
anchors = (
);
b = {
};
com.typemytype.robofont.layerData = {
b = {
anchors = (
);
components = (
);
contours = (
);
lib = {
};
name = M;
unicodes = (
);
width = 1899;
};
};
components = (
);
contours = (
);
lib = {
};
name = M;
unicodes = (
);
width = 1984;
};
},
{
color = 3;
glyphname = N;
lastChange = "2019-10-22 22:21:42 +0000";
layers = (
{
anchors = (
{
name = bottom;
position = "{366, 0}";
},
{
name = top;
position = "{366, 705}";
}
);
background = {
anchors = (
{
name = bottom;
position = "{366, 0}";
},
{
name = top;
position = "{366, 705}";
}
);
paths = (
{
closed = 1;
nodes = (
"135 0 LINE",
"135 663 LINE",
"114 663 LINE",
"602 0 LINE",
"636 0 LINE",
"636 705 LINE",
"597 705 LINE",
"597 42 LINE",
"619 42 LINE",
"131 705 LINE",
"96 705 LINE",
"96 0 LINE"
);
}
);
};
layerId = "F1F93986-3ED8-4AAE-84C4-CA3EEECDDFA0";
paths = (
{
closed = 1;
nodes = (
"128 -6 OFFCURVE",
"135 2 OFFCURVE",
"135 16 CURVE SMOOTH",
"135 663 LINE",
"114 663 LINE",
"596 8 LINE SMOOTH",
"603 -2 OFFCURVE",
"609 -6 OFFCURVE",
"619 -6 CURVE SMOOTH",
"630 -6 OFFCURVE",
"636 2 OFFCURVE",
"636 17 CURVE SMOOTH",
"636 689 LINE SMOOTH",
"636 703 OFFCURVE",
"629 711 OFFCURVE",
"617 711 CURVE SMOOTH",
"605 711 OFFCURVE",
"597 703 OFFCURVE",
"597 689 CURVE SMOOTH",
"597 42 LINE",
"619 42 LINE",
"137 697 LINE SMOOTH",
"130 707 OFFCURVE",
"126 711 OFFCURVE",
"114 711 CURVE SMOOTH",
"103 711 OFFCURVE",
"96 703 OFFCURVE",
"96 688 CURVE SMOOTH",
"96 16 LINE SMOOTH",
"96 2 OFFCURVE",
"104 -6 OFFCURVE",
"116 -6 CURVE SMOOTH"
);
}
);
width = 732;
},
{
anchors = (
{
name = bottom;
position = "{382, 0}";
},
{
name = top;
position = "{381, 705}";
}
);
background = {
anchors = (
{
name = bottom;
position = "{382, 0}";
},
{
name = top;
position = "{381, 705}";
}
);
paths = (
{
closed = 1;
nodes = (
"257 0 LINE",
"257 390 LINE",
"227 390 LINE",
"549 0 LINE",
"706 0 LINE",
"706 705 LINE",
"506 705 LINE",
"506 315 LINE",
"536 315 LINE",
"214 705 LINE",
"57 705 LINE",
"57 0 LINE"
);
}
);
};
layerId = "4121B50C-FD42-45C5-8FBE-41E76D98F91E";
paths = (
{
closed = 1;
nodes = (
"222 -10 OFFCURVE",
"257 26 OFFCURVE",
"257 91 CURVE SMOOTH",
"257 390 LINE",
"227 390 LINE",
"507 51 LINE SMOOTH",
"542 8 OFFCURVE",
"566 -10 OFFCURVE",
"619 -10 CURVE SMOOTH",
"672 -10 OFFCURVE",
"706 28 OFFCURVE",
"706 86 CURVE SMOOTH",
"706 614 LINE SMOOTH",
"706 679 OFFCURVE",
"671 715 OFFCURVE",
"606 715 CURVE SMOOTH",
"541 715 OFFCURVE",
"506 679 OFFCURVE",
"506 614 CURVE SMOOTH",
"506 315 LINE",
"536 315 LINE",
"256 654 LINE SMOOTH",
"221 697 OFFCURVE",
"199 715 OFFCURVE",
"151 715 CURVE SMOOTH",
"94 715 OFFCURVE",
"57 677 OFFCURVE",
"57 609 CURVE SMOOTH",
"57 91 LINE SMOOTH",
"57 26 OFFCURVE",
"92 -10 OFFCURVE",
"157 -10 CURVE SMOOTH"
);
}
);
width = 763;
},
{
anchors = (
{
name = bottom;
position = "{338, 0}";
},
{
name = top;
position = "{440, 705}";
}
);
background = {
anchors = (
{
name = bottom;
position = "{338, 0}";
},
{
name = top;
position = "{440, 705}";
}
);
paths = (
{
closed = 1;
nodes = (
"97 0 LINE",
"202 663 LINE",
"185 663 LINE",
"563 0 LINE",
"597 0 LINE",
"709 705 LINE",
"670 705 LINE",
"565 42 LINE",
"583 42 LINE",
"205 705 LINE",
"170 705 LINE",
"58 0 LINE"
);
}
);
};
layerId = "D8D4984A-F5A5-43C0-BF2B-5708C10C5E92";
paths = (
{
closed = 1;
nodes = (
"90 -6 OFFCURVE",
"97 0 OFFCURVE",
"99 14 CURVE SMOOTH",
"202 663 LINE",
"185 663 LINE",
"558 9 LINE SMOOTH",
"564 -1 OFFCURVE",
"569 -6 OFFCURVE",
"580 -6 CURVE SMOOTH",
"591 -6 OFFCURVE",
"597 0 OFFCURVE",
"599 14 CURVE SMOOTH",
"706 687 LINE SMOOTH",
"708 702 OFFCURVE",
"703 711 OFFCURVE",
"691 711 CURVE SMOOTH",
"678 711 OFFCURVE",
"670 705 OFFCURVE",
"668 691 CURVE SMOOTH",
"565 42 LINE",
"583 42 LINE",
"210 696 LINE SMOOTH",
"204 706 OFFCURVE",
"200 711 OFFCURVE",
"189 711 CURVE SMOOTH",
"178 711 OFFCURVE",
"170 705 OFFCURVE",
"168 691 CURVE SMOOTH",
"61 18 LINE SMOOTH",
"59 3 OFFCURVE",
"65 -6 OFFCURVE",
"77 -6 CURVE SMOOTH"
);
}
);
width = 732;
},
{
anchors = (
{
name = bottom;
position = "{353, 0}";
},
{
name = top;
position = "{449, 705}";
}
);
background = {
anchors = (
{
name = bottom;
position = "{353, 0}";
},
{
name = top;
position = "{449, 705}";
}
);
paths = (
{
closed = 1;
nodes = (
"218 0 LINE",
"284 415 LINE",
"251 415 LINE",
"510 0 LINE",
"667 0 LINE",
"779 705 LINE",
"579 705 LINE",
"513 290 LINE",
"546 290 LINE",
"287 705 LINE",
"130 705 LINE",
"18 0 LINE"
);
}
);
};
layerId = "C92D7C27-2246-4784-91DF-7F4E0C5E615D";
paths = (
{
closed = 1;
nodes = (
"189 -10 OFFCURVE",
"221 22 OFFCURVE",
"232 88 CURVE SMOOTH",
"284 415 LINE",
"251 415 LINE",
"474 57 LINE SMOOTH",
"503 10 OFFCURVE",
"532 -10 OFFCURVE",
"587 -10 CURVE SMOOTH",
"639 -10 OFFCURVE",
"670 21 OFFCURVE",
"680 81 CURVE SMOOTH",
"762 598 LINE SMOOTH",
"774 672 OFFCURVE",
"741 715 OFFCURVE",
"678 715 CURVE SMOOTH",
"612 715 OFFCURVE",
"576 683 OFFCURVE",
"565 617 CURVE SMOOTH",
"513 290 LINE",
"546 290 LINE",
"322 649 LINE SMOOTH",
"293 696 OFFCURVE",
"269 715 OFFCURVE",
"215 715 CURVE SMOOTH",
"163 715 OFFCURVE",
"127 684 OFFCURVE",
"117 624 CURVE SMOOTH",
"35 107 LINE SMOOTH",
"23 33 OFFCURVE",
"59 -10 OFFCURVE",
"123 -10 CURVE SMOOTH"
);
}
);
width = 763;
}
);
leftKerningGroup = H;
rightKerningGroup = H;
unicode = 004E;
userData = {
anchors = (
);
b = {
};
com.typemytype.robofont.layerData = {
b = {
anchors = (
);
components = (
);
contours = (
);
lib = {
};
name = N;
unicodes = (
);
width = 1499;
};
};
components = (
);
contours = (
);
lib = {
};
name = N;
unicodes = (
);
width = 1557;
};
},
{
color = 3;
glyphname = Eng;
lastChange = "2019-10-23 08:36:23 +0000";
layers = (
{
anchors = (
{
name = bottom;
position = "{366, 0}";
},
{
name = top;
position = "{366, 705}";
}
);
background = {
anchors = (
{
name = bottom;
position = "{366, 0}";
},
{
name = top;
position = "{366, 705}";
}
);
paths = (
{
closed = 1;
nodes = (
"494 -190 LINE SMOOTH",
"584 -184 OFFCURVE",
"636 -124 OFFCURVE",
"636 -21 CURVE SMOOTH",
"636 705 LINE",
"597 705 LINE",
"597 42 LINE",
"619 42 LINE",
"131 705 LINE",
"96 705 LINE",
"96 0 LINE",
"135 0 LINE",
"135 663 LINE",
"114 663 LINE",
"602 0 LINE",
"597 25 LINE",
"597 -22 LINE SMOOTH",
"597 -102 OFFCURVE",
"559 -147 OFFCURVE",
"489 -152 CURVE SMOOTH",
"448 -155 LINE",
"451 -193 LINE"
);
}
);
};
layerId = "F1F93986-3ED8-4AAE-84C4-CA3EEECDDFA0";
paths = (
{
closed = 1;
nodes = (
"571 -192 OFFCURVE",
"636 -138 OFFCURVE",
"636 -21 CURVE SMOOTH",
"636 689 LINE SMOOTH",
"636 703 OFFCURVE",
"629 711 OFFCURVE",
"617 711 CURVE SMOOTH",
"605 711 OFFCURVE",
"597 703 OFFCURVE",
"597 689 CURVE SMOOTH",
"597 42 LINE",
"619 42 LINE",
"137 697 LINE SMOOTH",
"130 707 OFFCURVE",
"126 711 OFFCURVE",
"114 711 CURVE SMOOTH",
"103 711 OFFCURVE",
"96 703 OFFCURVE",
"96 688 CURVE SMOOTH",
"96 16 LINE SMOOTH",
"96 2 OFFCURVE",
"104 -6 OFFCURVE",
"116 -6 CURVE SMOOTH",
"128 -6 OFFCURVE",
"135 2 OFFCURVE",
"135 16 CURVE SMOOTH",
"135 663 LINE",
"114 663 LINE",
"602 0 LINE",
"597 25 LINE",
"597 -22 LINE SMOOTH",
"597 -114 OFFCURVE",
"552 -151 OFFCURVE",
"467 -154 CURVE SMOOTH",
"438 -155 OFFCURVE",
"441 -192 OFFCURVE",
"470 -192 CURVE SMOOTH"
);
}
);
width = 732;
},
{
anchors = (
{
name = bottom;
position = "{382, 0}";
},
{
name = top;
position = "{381, 705}";
}
);
background = {
anchors = (
{
name = bottom;
position = "{382, 0}";
},
{
name = top;
position = "{381, 705}";
}
);
paths = (
{
closed = 1;
nodes = (
"457 -190 LINE SMOOTH",
"647 -177 OFFCURVE",
"706 -120 OFFCURVE",
"706 39 CURVE SMOOTH",
"706 705 LINE",
"506 705 LINE",
"506 315 LINE",
"536 315 LINE",
"214 705 LINE",
"57 705 LINE",
"57 0 LINE",
"257 0 LINE",
"257 390 LINE",
"227 390 LINE",
"549 0 LINE",
"507 76 LINE",
"507 8 LINE SMOOTH",
"507 -24 OFFCURVE",
"490 -38 OFFCURVE",
"454 -42 CURVE SMOOTH",
"399 -48 LINE",
"413 -193 LINE"
);
}
);
};
layerId = "4121B50C-FD42-45C5-8FBE-41E76D98F91E";
paths = (
{
closed = 1;
nodes = (
"636 -186 OFFCURVE",
"706 -120 OFFCURVE",
"706 39 CURVE SMOOTH",
"706 614 LINE SMOOTH",
"706 679 OFFCURVE",
"671 715 OFFCURVE",
"606 715 CURVE SMOOTH",
"541 715 OFFCURVE",
"506 679 OFFCURVE",
"506 614 CURVE SMOOTH",
"506 315 LINE",
"536 315 LINE",
"256 654 LINE SMOOTH",
"221 697 OFFCURVE",
"199 715 OFFCURVE",
"151 715 CURVE SMOOTH",
"94 715 OFFCURVE",
"57 677 OFFCURVE",
"57 609 CURVE SMOOTH",
"57 91 LINE SMOOTH",
"57 26 OFFCURVE",
"92 -10 OFFCURVE",
"157 -10 CURVE SMOOTH",
"222 -10 OFFCURVE",
"257 26 OFFCURVE",
"257 91 CURVE SMOOTH",
"257 390 LINE",
"227 390 LINE",
"549 0 LINE",
"507 76 LINE",
"507 8 LINE SMOOTH",
"507 -24 OFFCURVE",
"483 -39 OFFCURVE",
"449 -42 CURVE SMOOTH",
"371 -49 OFFCURVE",
"361 -186 OFFCURVE",
"481 -186 CURVE SMOOTH"
);
}
);
width = 763;
},
{
anchors = (
{
name = bottom;
position = "{327, 0}";
},
{
name = top;
position = "{439, 705}";
}
);
background = {
anchors = (
{
name = bottom;
position = "{327, 0}";
},
{
name = top;
position = "{439, 705}";
}
);
paths = (
{
closed = 1;
nodes = (
"430 -190 LINE SMOOTH",
"517 -184 OFFCURVE",
"577 -129 OFFCURVE",
"593 -26 CURVE SMOOTH",
"709 705 LINE",
"670 705 LINE",
"565 42 LINE",
"582 42 LINE",
"205 705 LINE",
"170 705 LINE",
"58 0 LINE",
"97 0 LINE",
"202 663 LINE",
"185 663 LINE",
"563 0 LINE",
"562 22 LINE",
"555 -22 LINE",
"542 -102 OFFCURVE",
"499 -147 OFFCURVE",
"426 -152 CURVE SMOOTH",
"385 -155 LINE",
"387 -193 LINE"
);
}
);
};
layerId = "D8D4984A-F5A5-43C0-BF2B-5708C10C5E92";
paths = (
{
closed = 1;
nodes = (
"507 -191 OFFCURVE",
"576 -137 OFFCURVE",
"593 -26 CURVE SMOOTH",
"706 687 LINE SMOOTH",
"708 702 OFFCURVE",
"703 711 OFFCURVE",
"691 711 CURVE SMOOTH",
"678 711 OFFCURVE",
"670 705 OFFCURVE",
"668 691 CURVE SMOOTH",
"565 42 LINE",
"583 42 LINE",
"210 696 LINE SMOOTH",
"204 706 OFFCURVE",
"200 711 OFFCURVE",
"189 711 CURVE SMOOTH",
"178 711 OFFCURVE",
"170 705 OFFCURVE",
"168 691 CURVE SMOOTH",
"61 18 LINE SMOOTH",
"59 3 OFFCURVE",
"65 -6 OFFCURVE",
"77 -6 CURVE SMOOTH",
"90 -6 OFFCURVE",
"97 0 OFFCURVE",
"99 14 CURVE SMOOTH",
"202 663 LINE",
"185 663 LINE",
"563 0 LINE",
"562 22 LINE",
"555 -22 LINE SMOOTH",
"540 -114 OFFCURVE",
"485 -153 OFFCURVE",
"404 -153 CURVE SMOOTH",
"378 -153 OFFCURVE",
"378 -191 OFFCURVE",
"406 -191 CURVE SMOOTH"
);
}
);
width = 732;
},
{
anchors = (
{
name = bottom;
position = "{343, 0}";
},
{
name = top;
position = "{453, 705}";
}
);
background = {
anchors = (
{
name = bottom;
position = "{343, 0}";
},
{
name = top;
position = "{453, 705}";
}
);
paths = (
{
closed = 1;
nodes = (
"412 -190 LINE SMOOTH",
"594 -178 OFFCURVE",
"648 -120 OFFCURVE",
"673 39 CURVE SMOOTH",
"779 705 LINE",
"579 705 LINE",
"513 290 LINE",
"546 290 LINE",
"287 705 LINE",
"130 705 LINE",
"18 0 LINE",
"218 0 LINE",
"284 415 LINE",
"251 415 LINE",
"510 0 LINE",
"480 76 LINE",
"469 8 LINE SMOOTH",
"464 -24 OFFCURVE",
"451 -37 OFFCURVE",
"404 -42 CURVE SMOOTH",
"351 -48 LINE",
"365 -193 LINE"
);
}
);
};
layerId = "C92D7C27-2246-4784-91DF-7F4E0C5E615D";
paths = (
{
closed = 1;
nodes = (
"583 -190 OFFCURVE",
"650 -117 OFFCURVE",
"674 39 CURVE SMOOTH",
"762 598 LINE SMOOTH",
"774 672 OFFCURVE",
"741 715 OFFCURVE",
"678 715 CURVE SMOOTH",
"612 715 OFFCURVE",
"575 683 OFFCURVE",
"565 617 CURVE SMOOTH",
"513 290 LINE",
"546 290 LINE",
"322 649 LINE SMOOTH",
"293 696 OFFCURVE",
"269 715 OFFCURVE",
"215 715 CURVE SMOOTH",
"163 715 OFFCURVE",
"127 684 OFFCURVE",
"117 624 CURVE SMOOTH",
"35 107 LINE SMOOTH",
"23 33 OFFCURVE",
"59 -10 OFFCURVE",
"123 -10 CURVE SMOOTH",
"189 -10 OFFCURVE",
"222 22 OFFCURVE",
"232 88 CURVE SMOOTH",
"284 415 LINE",
"251 415 LINE",
"510 0 LINE",
"480 76 LINE",
"469 8 LINE SMOOTH",
"464 -24 OFFCURVE",
"439 -39 OFFCURVE",
"411 -42 CURVE SMOOTH",
"318 -52 OFFCURVE",
"316 -190 OFFCURVE",
"420 -190 CURVE SMOOTH"
);
}
);
width = 763;
}
);
leftKerningGroup = H;
rightKerningGroup = H;
unicode = 014A;
userData = {
com.typemytype.robofont.layerData = {
b = {
anchors = (
);
components = (
);
contours = (
);
lib = {
};
name = Eng;
unicodes = (
);
width = 1495;
};
};
};
},
{
color = 3;
glyphname = O;
lastChange = "2019-10-22 14:36:52 +0000";
layers = (
{
anchors = (
{
name = Qtail;
position = "{375, -8}";
},
{
name = bottom;
position = "{375, 0}";
},
{
name = center;
position = "{376, 353}";
},
{
name = ogonek;
position = "{430, 0}";
},
{
name = top;
position = "{375, 705}";
},
{
name = topleft;
position = "{26, 705}";
},
{
name = topright;
position = "{448, 705}";
}
);
background = {
anchors = (
{
name = Qtail;
position = "{375, -8}";
},
{
name = bottom;
position = "{375, 0}";
},
{
name = center;
position = "{376, 353}";
},
{
name = ogonek;
position = "{430, 0}";
},
{
name = top;
position = "{375, 705}";
},
{
name = topleft;
position = "{26, 705}";
},
{
name = topright;
position = "{448, 705}";
}
);
paths = (
{
closed = 1;
nodes = (
"566 -8 OFFCURVE",
"684 130 OFFCURVE",
"684 354 CURVE SMOOTH",
"684 576 OFFCURVE",
"567 713 OFFCURVE",
"375 713 CURVE SMOOTH",
"183 713 OFFCURVE",
"67 576 OFFCURVE",
"67 353 CURVE SMOOTH",
"67 130 OFFCURVE",
"185 -8 OFFCURVE",
"375 -8 CURVE SMOOTH"
);
},
{
closed = 1;
nodes = (
"208 33 OFFCURVE",
"112 151 OFFCURVE",
"112 353 CURVE SMOOTH",
"112 555 OFFCURVE",
"208 672 OFFCURVE",
"375 672 CURVE SMOOTH",
"544 672 OFFCURVE",
"639 556 OFFCURVE",
"639 353 CURVE SMOOTH",
"639 150 OFFCURVE",
"543 33 OFFCURVE",
"375 33 CURVE SMOOTH"
);
}
);
};
layerId = "F1F93986-3ED8-4AAE-84C4-CA3EEECDDFA0";
paths = (
{
closed = 1;
nodes = (
"566 -8 OFFCURVE",
"684 130 OFFCURVE",
"684 354 CURVE SMOOTH",
"684 576 OFFCURVE",
"567 713 OFFCURVE",
"375 713 CURVE SMOOTH",
"183 713 OFFCURVE",
"67 576 OFFCURVE",
"67 353 CURVE SMOOTH",
"67 130 OFFCURVE",
"185 -8 OFFCURVE",
"375 -8 CURVE SMOOTH"
);
},
{
closed = 1;
nodes = (
"208 33 OFFCURVE",
"112 151 OFFCURVE",
"112 353 CURVE SMOOTH",
"112 555 OFFCURVE",
"208 672 OFFCURVE",
"375 672 CURVE SMOOTH",
"544 672 OFFCURVE",
"639 556 OFFCURVE",
"639 353 CURVE SMOOTH",
"639 150 OFFCURVE",
"543 33 OFFCURVE",
"375 33 CURVE SMOOTH"
);
}
);
width = 751;
},
{
anchors = (
{
name = Qtail;
position = "{409, -12}";
},
{
name = bottom;
position = "{409, 0}";
},
{
name = center;
position = "{409, 353}";
},
{
name = ogonek;
position = "{473, 0}";
},
{
name = top;
position = "{408, 705}";
},
{
name = topleft;
position = "{26, 705}";
},
{
name = topright;
position = "{473, 705}";
}
);
background = {
anchors = (
{
name = Qtail;
position = "{409, -12}";
},
{
name = bottom;
position = "{409, 0}";
},
{
name = center;
position = "{409, 353}";
},
{
name = ogonek;
position = "{473, 0}";
},
{
name = top;
position = "{408, 705}";
},
{
name = topleft;
position = "{26, 705}";
},
{
name = topright;
position = "{473, 705}";
}
);
paths = (
{
closed = 1;
nodes = (
"629 -12 OFFCURVE",
"779 135 OFFCURVE",
"779 353 CURVE SMOOTH",
"779 571 OFFCURVE",
"629 717 OFFCURVE",
"410 717 CURVE SMOOTH",
"191 717 OFFCURVE",
"41 571 OFFCURVE",
"41 353 CURVE SMOOTH",
"41 136 OFFCURVE",
"191 -12 OFFCURVE",
"410 -12 CURVE SMOOTH"
);
},
{
closed = 1;
nodes = (
"319 167 OFFCURVE",
"264 236 OFFCURVE",
"264 353 CURVE SMOOTH",
"264 470 OFFCURVE",
"319 538 OFFCURVE",
"410 538 CURVE SMOOTH",
"501 538 OFFCURVE",
"556 469 OFFCURVE",
"556 353 CURVE SMOOTH",
"556 237 OFFCURVE",
"501 167 OFFCURVE",
"410 167 CURVE SMOOTH"
);
}
);
};
layerId = "4121B50C-FD42-45C5-8FBE-41E76D98F91E";
paths = (
{
closed = 1;
nodes = (
"629 -12 OFFCURVE",
"779 135 OFFCURVE",
"779 353 CURVE SMOOTH",
"779 571 OFFCURVE",
"629 717 OFFCURVE",
"410 717 CURVE SMOOTH",
"191 717 OFFCURVE",
"41 571 OFFCURVE",
"41 353 CURVE SMOOTH",
"41 136 OFFCURVE",
"191 -12 OFFCURVE",
"410 -12 CURVE SMOOTH"
);
},
{
closed = 1;
nodes = (
"319 167 OFFCURVE",
"264 236 OFFCURVE",
"264 353 CURVE SMOOTH",
"264 470 OFFCURVE",
"319 538 OFFCURVE",
"410 538 CURVE SMOOTH",
"501 538 OFFCURVE",
"556 469 OFFCURVE",
"556 353 CURVE SMOOTH",
"556 237 OFFCURVE",
"501 167 OFFCURVE",
"410 167 CURVE SMOOTH"
);
}
);
width = 820;
},
{
anchors = (
{
name = Qtail;
position = "{347, -8}";
},
{
name = bottom;
position = "{350, 0}";
},
{
name = center;
position = "{393, 353}";
},
{
name = ogonek;
position = "{401, 0}";
},
{
name = top;
position = "{440, 705}";
},
{
name = topleft;
position = "{99, 705}";
},
{
name = topright;
position = "{487, 705}";
}
);
background = {
anchors = (
{
name = Qtail;
position = "{347, -8}";
},
{
name = bottom;
position = "{350, 0}";
},
{
name = center;
position = "{393, 353}";
},
{
name = ogonek;
position = "{401, 0}";
},
{
name = top;
position = "{440, 705}";
},
{
name = topleft;
position = "{99, 705}";
},
{
name = topright;
position = "{487, 705}";
}
);
paths = (
{
closed = 1;
nodes = (
"585 -8 OFFCURVE",
"704 179 OFFCURVE",
"704 416 CURVE SMOOTH",
"704 609 OFFCURVE",
"597 713 OFFCURVE",
"429 713 CURVE SMOOTH",
"201 713 OFFCURVE",
"82 526 OFFCURVE",
"82 289 CURVE SMOOTH",
"82 96 OFFCURVE",
"189 -8 OFFCURVE",
"357 -8 CURVE SMOOTH"
);
},
{
closed = 1;
nodes = (
"214 33 OFFCURVE",
"127 116 OFFCURVE",
"127 289 CURVE SMOOTH",
"127 507 OFFCURVE",
"232 672 OFFCURVE",
"426 672 CURVE SMOOTH",
"572 672 OFFCURVE",
"659 589 OFFCURVE",
"659 416 CURVE SMOOTH",
"659 199 OFFCURVE",
"554 33 OFFCURVE",
"359 33 CURVE SMOOTH"
);
}
);
};
layerId = "D8D4984A-F5A5-43C0-BF2B-5708C10C5E92";
paths = (
{
closed = 1;
nodes = (
"585 -8 OFFCURVE",
"704 179 OFFCURVE",
"704 416 CURVE SMOOTH",
"704 609 OFFCURVE",
"597 713 OFFCURVE",
"429 713 CURVE SMOOTH",
"201 713 OFFCURVE",
"82 526 OFFCURVE",
"82 289 CURVE SMOOTH",
"82 96 OFFCURVE",
"189 -8 OFFCURVE",
"357 -8 CURVE SMOOTH"
);
},
{
closed = 1;
nodes = (
"214 33 OFFCURVE",
"127 116 OFFCURVE",
"127 289 CURVE SMOOTH",
"127 507 OFFCURVE",
"232 672 OFFCURVE",
"426 672 CURVE SMOOTH",
"572 672 OFFCURVE",
"659 589 OFFCURVE",
"659 416 CURVE SMOOTH",
"659 199 OFFCURVE",
"554 33 OFFCURVE",
"359 33 CURVE SMOOTH"
);
}
);
width = 751;
},
{
anchors = (
{
name = Qtail;
position = "{387, -12}";
},
{
name = bottom;
position = "{375, 0}";
},
{
name = center;
position = "{426, 353}";
},
{
name = ogonek;
position = "{444, 0}";
},
{
name = top;
position = "{465, 705}";
},
{
name = topleft;
position = "{98, 705}";
},
{
name = topright;
position = "{530, 705}";
}
);
background = {
anchors = (
{
name = Qtail;
position = "{387, -12}";
},
{
name = bottom;
position = "{375, 0}";
},
{
name = center;
position = "{426, 353}";
},
{
name = ogonek;
position = "{444, 0}";
},
{
name = top;
position = "{465, 705}";
},
{
name = topleft;
position = "{98, 705}";
},
{
name = topright;
position = "{530, 705}";
}
);
paths = (
{
closed = 1;
nodes = (
"635 -12 OFFCURVE",
"796 151 OFFCURVE",
"796 397 CURVE SMOOTH",
"796 597 OFFCURVE",
"658 717 OFFCURVE",
"449 717 CURVE SMOOTH",
"219 717 OFFCURVE",
"58 554 OFFCURVE",
"58 308 CURVE SMOOTH",
"58 108 OFFCURVE",
"196 -12 OFFCURVE",
"404 -12 CURVE SMOOTH"
);
},
{
closed = 1;
nodes = (
"329 167 OFFCURVE",
"281 214 OFFCURVE",
"281 312 CURVE SMOOTH",
"281 448 OFFCURVE",
"343 538 OFFCURVE",
"446 538 CURVE SMOOTH",
"524 538 OFFCURVE",
"573 491 OFFCURVE",
"573 393 CURVE SMOOTH",
"573 257 OFFCURVE",
"510 167 OFFCURVE",
"407 167 CURVE SMOOTH"
);
}
);
};
layerId = "C92D7C27-2246-4784-91DF-7F4E0C5E615D";
paths = (
{
closed = 1;
nodes = (
"635 -12 OFFCURVE",
"796 151 OFFCURVE",
"796 397 CURVE SMOOTH",
"796 597 OFFCURVE",
"658 717 OFFCURVE",
"449 717 CURVE SMOOTH",
"219 717 OFFCURVE",
"58 554 OFFCURVE",
"58 308 CURVE SMOOTH",
"58 108 OFFCURVE",
"196 -12 OFFCURVE",
"404 -12 CURVE SMOOTH"
);
},
{
closed = 1;
nodes = (
"329 167 OFFCURVE",
"281 214 OFFCURVE",
"281 312 CURVE SMOOTH",
"281 448 OFFCURVE",
"343 538 OFFCURVE",
"446 538 CURVE SMOOTH",
"524 538 OFFCURVE",
"573 491 OFFCURVE",
"573 393 CURVE SMOOTH",
"573 257 OFFCURVE",
"510 167 OFFCURVE",
"407 167 CURVE SMOOTH"
);
}
);
width = 820;
}
);
leftKerningGroup = O;
rightKerningGroup = O;
unicode = 004F;
userData = {
anchors = (
);
b = {
};
com.typemytype.robofont.guides = (
);
com.typemytype.robofont.layerData = {
b = {
anchors = (
);
components = (
);
contours = (
);
lib = {
};
name = O;
unicodes = (
);
width = 1597;
};
};
components = (
);
contours = (
);
lib = {
};
name = O;
unicodes = (
);
width = 1604;
};
},
{
color = 3;
glyphname = OE;
lastChange = "2019-10-22 22:21:34 +0000";
layers = (
{
anchors = (
{
name = bottom;
position = "{585, 0}";
},
{
name = top;
position = "{585, 705}";
}
);
background = {
anchors = (
{
name = bottom;
position = "{585, 0}";
},
{
name = top;
position = "{585, 705}";
}
);
paths = (
{
closed = 1;
nodes = (
"988 0 LINE",
"988 39 LINE",
"606 39 LINE",
"606 338 LINE",
"968 338 LINE",
"968 377 LINE",
"606 377 LINE",
"606 666 LINE",
"988 666 LINE",
"988 705 LINE",
"412 705 LINE SMOOTH",
"191 705 OFFCURVE",
"67 583 OFFCURVE",
"67 353 CURVE SMOOTH",
"67 123 OFFCURVE",
"191 0 OFFCURVE",
"412 0 CURVE SMOOTH"
);
},
{
closed = 1;
nodes = (
"213 39 OFFCURVE",
"112 145 OFFCURVE",
"112 353 CURVE SMOOTH",
"112 561 OFFCURVE",
"213 666 OFFCURVE",
"416 666 CURVE SMOOTH",
"564 666 LINE",
"564 39 LINE",
"416 39 LINE SMOOTH"
);
}
);
};
layerId = "F1F93986-3ED8-4AAE-84C4-CA3EEECDDFA0";
paths = (
{
closed = 1;
nodes = (
"973 0 LINE SMOOTH",
"986 0 OFFCURVE",
"994 7 OFFCURVE",
"994 20 CURVE SMOOTH",
"994 32 OFFCURVE",
"986 39 OFFCURVE",
"973 39 CURVE SMOOTH",
"606 39 LINE",
"606 338 LINE",
"953 338 LINE SMOOTH",
"966 338 OFFCURVE",
"974 345 OFFCURVE",
"974 358 CURVE SMOOTH",
"974 370 OFFCURVE",
"966 377 OFFCURVE",
"953 377 CURVE SMOOTH",
"606 377 LINE",
"606 666 LINE",
"973 666 LINE SMOOTH",
"986 666 OFFCURVE",
"994 673 OFFCURVE",
"994 686 CURVE SMOOTH",
"994 698 OFFCURVE",
"986 705 OFFCURVE",
"973 705 CURVE SMOOTH",
"412 705 LINE SMOOTH",
"191 705 OFFCURVE",
"67 583 OFFCURVE",
"67 353 CURVE SMOOTH",
"67 123 OFFCURVE",
"191 0 OFFCURVE",
"412 0 CURVE SMOOTH"
);
},
{
closed = 1;
nodes = (
"213 39 OFFCURVE",
"112 145 OFFCURVE",
"112 353 CURVE SMOOTH",
"112 561 OFFCURVE",
"213 666 OFFCURVE",
"416 666 CURVE SMOOTH",
"564 666 LINE",
"564 39 LINE",
"416 39 LINE SMOOTH"
);
}
);
width = 1038;
},
{
anchors = (
{
name = bottom;
position = "{610, 0}";
},
{
name = top;
position = "{610, 705}";
}
);
background = {
anchors = (
{
name = bottom;
position = "{610, 0}";
},
{
name = top;
position = "{610, 705}";
}
);
paths = (
{
closed = 1;
nodes = (
"1021 0 LINE",
"1021 164 LINE",
"712 164 LINE",
"712 276 LINE",
"998 276 LINE",
"998 440 LINE",
"712 440 LINE",
"712 541 LINE",
"1021 541 LINE",
"1021 705 LINE",
"435 705 LINE SMOOTH",
"185 705 OFFCURVE",
"41 575 OFFCURVE",
"41 353 CURVE SMOOTH",
"41 130 OFFCURVE",
"185 0 OFFCURVE",
"435 0 CURVE SMOOTH"
);
},
{
closed = 1;
nodes = (
"323 174 OFFCURVE",
"264 231 OFFCURVE",
"264 353 CURVE SMOOTH",
"264 475 OFFCURVE",
"324 531 OFFCURVE",
"447 531 CURVE SMOOTH",
"507 531 LINE",
"507 174 LINE",
"447 174 LINE SMOOTH"
);
}
);
};
layerId = "4121B50C-FD42-45C5-8FBE-41E76D98F91E";
paths = (
{
closed = 1;
nodes = (
"948 0 LINE SMOOTH",
"1002 0 OFFCURVE",
"1031 29 OFFCURVE",
"1031 82 CURVE SMOOTH",
"1031 135 OFFCURVE",
"1002 164 OFFCURVE",
"948 164 CURVE SMOOTH",
"712 164 LINE",
"712 276 LINE",
"925 276 LINE SMOOTH",
"979 276 OFFCURVE",
"1008 305 OFFCURVE",
"1008 358 CURVE SMOOTH",
"1008 411 OFFCURVE",
"979 440 OFFCURVE",
"925 440 CURVE SMOOTH",
"712 440 LINE",
"712 541 LINE",
"948 541 LINE SMOOTH",
"1002 541 OFFCURVE",
"1031 570 OFFCURVE",
"1031 623 CURVE SMOOTH",
"1031 676 OFFCURVE",
"1002 705 OFFCURVE",
"948 705 CURVE SMOOTH",
"435 705 LINE SMOOTH",
"185 705 OFFCURVE",
"41 575 OFFCURVE",
"41 353 CURVE SMOOTH",
"41 130 OFFCURVE",
"185 0 OFFCURVE",
"435 0 CURVE SMOOTH"
);
},
{
closed = 1;
nodes = (
"323 174 OFFCURVE",
"264 231 OFFCURVE",
"264 353 CURVE SMOOTH",
"264 475 OFFCURVE",
"324 531 OFFCURVE",
"447 531 CURVE SMOOTH",
"507 531 LINE",
"507 174 LINE",
"447 174 LINE SMOOTH"
);
}
);
width = 1074;
},
{
anchors = (
{
name = bottom;
position = "{546, 0}";
},
{
name = top;
position = "{658, 705}";
}
);
background = {
anchors = (
{
name = bottom;
position = "{546, 0}";
},
{
name = top;
position = "{658, 705}";
}
);
paths = (
{
closed = 1;
nodes = (
"951 0 LINE",
"957 39 LINE",
"575 39 LINE",
"622 338 LINE",
"985 338 LINE",
"991 377 LINE",
"629 377 LINE",
"675 666 LINE",
"1055 666 LINE",
"1061 705 LINE",
"476 705 LINE SMOOTH",
"197 705 OFFCURVE",
"81 515 OFFCURVE",
"81 289 CURVE SMOOTH",
"81 105 OFFCURVE",
"196 0 OFFCURVE",
"400 0 CURVE SMOOTH"
);
},
{
closed = 1;
nodes = (
"218 39 OFFCURVE",
"126 127 OFFCURVE",
"126 289 CURVE SMOOTH",
"126 490 OFFCURVE",
"219 666 OFFCURVE",
"474 666 CURVE SMOOTH",
"633 666 LINE",
"533 39 LINE",
"401 39 LINE SMOOTH"
);
}
);
};
layerId = "D8D4984A-F5A5-43C0-BF2B-5708C10C5E92";
paths = (
{
closed = 1;
nodes = (
"937 0 LINE SMOOTH",
"949 0 OFFCURVE",
"960 6 OFFCURVE",
"960 24 CURVE SMOOTH",
"960 34 OFFCURVE",
"952 39 OFFCURVE",
"939 39 CURVE SMOOTH",
"575 39 LINE",
"622 338 LINE",
"971 338 LINE SMOOTH",
"983 338 OFFCURVE",
"994 344 OFFCURVE",
"994 362 CURVE SMOOTH",
"994 372 OFFCURVE",
"986 377 OFFCURVE",
"973 377 CURVE SMOOTH",
"629 377 LINE",
"675 666 LINE",
"1041 666 LINE SMOOTH",
"1053 666 OFFCURVE",
"1064 672 OFFCURVE",
"1064 690 CURVE SMOOTH",
"1064 700 OFFCURVE",
"1056 705 OFFCURVE",
"1043 705 CURVE SMOOTH",
"476 705 LINE SMOOTH",
"197 705 OFFCURVE",
"81 515 OFFCURVE",
"81 289 CURVE SMOOTH",
"81 105 OFFCURVE",
"196 0 OFFCURVE",
"400 0 CURVE SMOOTH"
);
},
{
closed = 1;
nodes = (
"218 39 OFFCURVE",
"126 127 OFFCURVE",
"126 289 CURVE SMOOTH",
"126 490 OFFCURVE",
"219 666 OFFCURVE",
"474 666 CURVE SMOOTH",
"633 666 LINE",
"533 39 LINE",
"401 39 LINE SMOOTH"
);
}
);
width = 1038;
},
{
anchors = (
{
name = bottom;
position = "{571, 0}";
},
{
name = top;
position = "{682, 705}";
}
);
background = {
anchors = (
{
name = bottom;
position = "{571, 0}";
},
{
name = top;
position = "{682, 705}";
}
);
paths = (
{
closed = 1;
nodes = (
"982 0 LINE",
"1007 164 LINE",
"698 164 LINE",
"716 276 LINE",
"1002 276 LINE",
"1028 440 LINE",
"742 440 LINE",
"758 541 LINE",
"1067 541 LINE",
"1093 705 LINE",
"482 705 LINE SMOOTH",
"208 705 OFFCURVE",
"59 559 OFFCURVE",
"60 313 CURVE SMOOTH",
"61 118 OFFCURVE",
"198 0 OFFCURVE",
"442 0 CURVE SMOOTH"
);
},
{
closed = 1;
nodes = (
"337 174 OFFCURVE",
"283 224 OFFCURVE",
"283 317 CURVE SMOOTH",
"283 455 OFFCURVE",
"352 531 OFFCURVE",
"480 531 CURVE SMOOTH",
"552 531 LINE",
"495 174 LINE",
"442 174 LINE SMOOTH"
);
}
);
};
layerId = "C92D7C27-2246-4784-91DF-7F4E0C5E615D";
paths = (
{
closed = 1;
nodes = (
"909 0 LINE SMOOTH",
"969 0 OFFCURVE",
"1006 38 OFFCURVE",
"1006 98 CURVE SMOOTH",
"1006 140 OFFCURVE",
"973 164 OFFCURVE",
"919 164 CURVE SMOOTH",
"698 164 LINE",
"716 276 LINE",
"929 276 LINE SMOOTH",
"989 276 OFFCURVE",
"1026 313 OFFCURVE",
"1026 373 CURVE SMOOTH",
"1026 415 OFFCURVE",
"996 440 OFFCURVE",
"940 440 CURVE SMOOTH",
"742 440 LINE",
"758 541 LINE",
"994 541 LINE SMOOTH",
"1054 541 OFFCURVE",
"1091 578 OFFCURVE",
"1091 638 CURVE SMOOTH",
"1091 680 OFFCURVE",
"1061 705 OFFCURVE",
"1005 705 CURVE SMOOTH",
"482 705 LINE SMOOTH",
"208 705 OFFCURVE",
"59 559 OFFCURVE",
"60 313 CURVE SMOOTH",
"61 118 OFFCURVE",
"198 0 OFFCURVE",
"442 0 CURVE SMOOTH"
);
},
{
closed = 1;
nodes = (
"337 174 OFFCURVE",
"283 224 OFFCURVE",
"283 317 CURVE SMOOTH",
"283 455 OFFCURVE",
"352 531 OFFCURVE",
"480 531 CURVE SMOOTH",
"552 531 LINE",
"495 174 LINE",
"442 174 LINE SMOOTH"
);
}
);
width = 1074;
}
);
leftKerningGroup = O;
rightKerningGroup = E;
unicode = 0152;
},
{
color = 3;
glyphname = P;
lastChange = "2019-10-22 22:24:27 +0000";
layers = (
{
anchors = (
{
name = bottom;
position = "{316, 0}";
},
{
name = top;
position = "{316, 705}";
}
);
background = {
anchors = (
{
name = bottom;
position = "{316, 0}";
},
{
name = top;
position = "{316, 705}";
}
);
paths = (
{
closed = 1;
nodes = (
"138 0 LINE",
"138 297 LINE",
"351 297 LINE SMOOTH",
"499 297 OFFCURVE",
"580 370 OFFCURVE",
"580 501 CURVE SMOOTH",
"580 632 OFFCURVE",
"499 705 OFFCURVE",
"351 705 CURVE SMOOTH",
"96 705 LINE",
"96 0 LINE"
);
},
{
closed = 1;
nodes = (
"138 666 LINE",
"350 666 LINE SMOOTH",
"474 666 OFFCURVE",
"536 609 OFFCURVE",
"536 501 CURVE SMOOTH",
"536 393 OFFCURVE",
"474 336 OFFCURVE",
"350 336 CURVE SMOOTH",
"138 336 LINE"
);
}
);
};
layerId = "F1F93986-3ED8-4AAE-84C4-CA3EEECDDFA0";
paths = (
{
closed = 1;
nodes = (
"131 -6 OFFCURVE",
"138 2 OFFCURVE",
"138 16 CURVE SMOOTH",
"138 297 LINE",
"351 297 LINE SMOOTH",
"499 297 OFFCURVE",
"580 370 OFFCURVE",
"580 501 CURVE SMOOTH",
"580 632 OFFCURVE",
"499 705 OFFCURVE",
"351 705 CURVE SMOOTH",
"118 705 LINE SMOOTH",
"104 705 OFFCURVE",
"96 697 OFFCURVE",
"96 683 CURVE SMOOTH",
"96 16 LINE SMOOTH",
"96 2 OFFCURVE",
"104 -6 OFFCURVE",
"117 -6 CURVE SMOOTH"
);
},
{
closed = 1;
nodes = (
"138 666 LINE",
"350 666 LINE SMOOTH",
"474 666 OFFCURVE",
"536 609 OFFCURVE",
"536 501 CURVE SMOOTH",
"536 393 OFFCURVE",
"474 336 OFFCURVE",
"350 336 CURVE SMOOTH",
"138 336 LINE"
);
}
);
width = 616;
},
{
anchors = (
{
name = bottom;
position = "{348, 0}";
},
{
name = top;
position = "{347, 705}";
}
);
background = {
anchors = (
{
name = bottom;
position = "{348, 0}";
},
{
name = top;
position = "{347, 705}";
}
);
paths = (
{
closed = 1;
nodes = (
"272 0 LINE",
"272 231 LINE",
"415 231 LINE SMOOTH",
"577 231 OFFCURVE",
"670 321 OFFCURVE",
"670 468 CURVE SMOOTH",
"670 615 OFFCURVE",
"577 705 OFFCURVE",
"415 705 CURVE SMOOTH",
"57 705 LINE",
"57 0 LINE"
);
},
{
closed = 1;
nodes = (
"272 541 LINE",
"375 541 LINE SMOOTH",
"433 541 OFFCURVE",
"466 518 OFFCURVE",
"466 468 CURVE SMOOTH",
"466 418 OFFCURVE",
"433 395 OFFCURVE",
"375 395 CURVE SMOOTH",
"272 395 LINE"
);
}
);
};
layerId = "4121B50C-FD42-45C5-8FBE-41E76D98F91E";
paths = (
{
closed = 1;
nodes = (
"235 -10 OFFCURVE",
"272 29 OFFCURVE",
"272 99 CURVE SMOOTH",
"272 231 LINE",
"415 231 LINE SMOOTH",
"577 231 OFFCURVE",
"670 321 OFFCURVE",
"670 468 CURVE SMOOTH",
"670 615 OFFCURVE",
"577 705 OFFCURVE",
"415 705 CURVE SMOOTH",
"166 705 LINE SMOOTH",
"96 705 OFFCURVE",
"57 666 OFFCURVE",
"57 596 CURVE SMOOTH",
"57 99 LINE SMOOTH",
"57 29 OFFCURVE",
"96 -10 OFFCURVE",
"165 -10 CURVE SMOOTH"
);
},
{
closed = 1;
nodes = (
"272 541 LINE",
"375 541 LINE SMOOTH",
"433 541 OFFCURVE",
"466 518 OFFCURVE",
"466 468 CURVE SMOOTH",
"466 418 OFFCURVE",
"433 395 OFFCURVE",
"375 395 CURVE SMOOTH",
"272 395 LINE"
);
}
);
width = 689;
},
{
anchors = (
{
name = bottom;
position = "{278, 0}";
},
{
name = top;
position = "{390, 705}";
}
);
background = {
anchors = (
{
name = bottom;
position = "{278, 0}";
},
{
name = top;
position = "{390, 705}";
}
);
paths = (
{
closed = 1;
nodes = (
"100 0 LINE",
"147 297 LINE",
"370 297 LINE SMOOTH",
"533 297 OFFCURVE",
"621 386 OFFCURVE",
"621 521 CURVE SMOOTH",
"621 645 OFFCURVE",
"540 705 OFFCURVE",
"407 705 CURVE SMOOTH",
"170 705 LINE",
"58 0 LINE"
);
},
{
closed = 1;
nodes = (
"206 666 LINE",
"407 666 LINE SMOOTH",
"518 666 OFFCURVE",
"577 621 OFFCURVE",
"577 520 CURVE SMOOTH",
"577 400 OFFCURVE",
"506 336 OFFCURVE",
"374 336 CURVE SMOOTH",
"154 336 LINE"
);
}
);
};
layerId = "D8D4984A-F5A5-43C0-BF2B-5708C10C5E92";
paths = (
{
closed = 1;
nodes = (
"94 -6 OFFCURVE",
"100 0 OFFCURVE",
"102 14 CURVE SMOOTH",
"147 297 LINE",
"370 297 LINE SMOOTH",
"533 297 OFFCURVE",
"621 386 OFFCURVE",
"621 521 CURVE SMOOTH",
"621 645 OFFCURVE",
"540 705 OFFCURVE",
"407 705 CURVE SMOOTH",
"190 705 LINE SMOOTH",
"177 705 OFFCURVE",
"169 699 OFFCURVE",
"167 685 CURVE SMOOTH",
"61 18 LINE SMOOTH",
"59 3 OFFCURVE",
"67 -6 OFFCURVE",
"81 -6 CURVE SMOOTH"
);
},
{
closed = 1;
nodes = (
"206 666 LINE",
"407 666 LINE SMOOTH",
"518 666 OFFCURVE",
"577 621 OFFCURVE",
"577 520 CURVE SMOOTH",
"577 400 OFFCURVE",
"506 336 OFFCURVE",
"374 336 CURVE SMOOTH",
"154 336 LINE"
);
}
);
width = 616;
},
{
anchors = (
{
name = bottom;
position = "{307, 0}";
},
{
name = top;
position = "{418, 705}";
}
);
background = {
anchors = (
{
name = bottom;
position = "{307, 0}";
},
{
name = top;
position = "{418, 705}";
}
);
paths = (
{
closed = 1;
nodes = (
"233 0 LINE",
"270 231 LINE",
"401 231 LINE SMOOTH",
"599 231 OFFCURVE",
"705 324 OFFCURVE",
"705 497 CURVE SMOOTH",
"705 624 OFFCURVE",
"620 705 OFFCURVE",
"441 705 CURVE SMOOTH",
"130 705 LINE",
"18 0 LINE"
);
},
{
closed = 1;
nodes = (
"319 541 LINE",
"411 541 LINE SMOOTH",
"474 541 OFFCURVE",
"501 521 OFFCURVE",
"501 477 CURVE SMOOTH",
"501 423 OFFCURVE",
"470 395 OFFCURVE",
"409 395 CURVE SMOOTH",
"296 395 LINE"
);
}
);
};
guideLines = (
{
angle = 261.0524;
position = "{286, 335}";
}
);
layerId = "C92D7C27-2246-4784-91DF-7F4E0C5E615D";
paths = (
{
closed = 1;
nodes = (
"196 -10 OFFCURVE",
"238 25 OFFCURVE",
"249 97 CURVE SMOOTH",
"270 231 LINE",
"401 231 LINE SMOOTH",
"599 231 OFFCURVE",
"705 324 OFFCURVE",
"705 497 CURVE SMOOTH",
"705 624 OFFCURVE",
"620 705 OFFCURVE",
"441 705 CURVE SMOOTH",
"238 705 LINE SMOOTH",
"166 705 OFFCURVE",
"124 670 OFFCURVE",
"113 598 CURVE SMOOTH",
"37 116 LINE SMOOTH",
"24 36 OFFCURVE",
"57 -10 OFFCURVE",
"125 -10 CURVE SMOOTH"
);
},
{
closed = 1;
nodes = (
"319 541 LINE",
"411 541 LINE SMOOTH",
"474 541 OFFCURVE",
"501 521 OFFCURVE",
"501 477 CURVE SMOOTH",
"501 423 OFFCURVE",
"470 395 OFFCURVE",
"409 395 CURVE SMOOTH",
"296 395 LINE"
);
}
);
width = 689;
}
);
leftKerningGroup = H;
rightKerningGroup = P;
unicode = 0050;
userData = {
anchors = (
);
b = {
};
com.typemytype.robofont.layerData = {
b = {
anchors = (
);
components = (
);
contours = (
{
points = (
{
segmentType = curve;
smooth = 1;
x = 266;
y = 0;
},
{
segmentType = line;
smooth = 1;
x = 1035;
y = 0;
},
{
smooth = 0;
x = 1084;
y = 0;
},
{
smooth = 0;
x = 1108;
y = 34;
},
{
segmentType = curve;
smooth = 1;
x = 1108;
y = 71;
},
{
smooth = 0;
x = 1108;
y = 107;
},
{
smooth = 0;
x = 1084;
y = 141;
},
{
segmentType = curve;
smooth = 1;
x = 1035;
y = 141;
},
{
segmentType = line;
smooth = 0;
x = 356;
y = 141;
},
{
segmentType = line;
smooth = 0;
x = 356;
y = 665;
},
{
segmentType = line;
smooth = 1;
x = 975;
y = 665;
},
{
smooth = 0;
x = 1024;
y = 665;
},
{
smooth = 0;
x = 1049;
y = 698;
},
{
segmentType = curve;
smooth = 1;
x = 1049;
y = 734;
},
{
smooth = 0;
x = 1049;
y = 770;
},
{
smooth = 0;
x = 1026;
y = 803;
},
{
segmentType = curve;
smooth = 1;
x = 975;
y = 803;
},
{
segmentType = line;
smooth = 0;
x = 356;
y = 803;
},
{
segmentType = line;
smooth = 0;
x = 356;
y = 1285;
},
{
segmentType = line;
smooth = 1;
x = 1007;
y = 1285;
},
{
smooth = 0;
x = 1056;
y = 1285;
},
{
smooth = 0;
x = 1080;
y = 1319;
},
{
segmentType = curve;
smooth = 1;
x = 1080;
y = 1356;
},
{
smooth = 0;
x = 1080;
y = 1392;
},
{
smooth = 0;
x = 1056;
y = 1426;
},
{
segmentType = curve;
smooth = 1;
x = 1007;
y = 1426;
},
{
segmentType = line;
smooth = 1;
x = 261;
y = 1426;
},
{
smooth = 0;
x = 213;
y = 1426;
},
{
smooth = 0;
x = 178;
y = 1383;
},
{
segmentType = curve;
smooth = 1;
x = 178;
y = 1340;
},
{
segmentType = line;
smooth = 1;
x = 178;
y = 86;
},
{
smooth = 0;
x = 178;
y = 41;
},
{
smooth = 0;
x = 222;
y = 0;
}
);
}
);
lib = {
};
name = P;
unicodes = (
);
width = 1201;
};
};
components = (
);
contours = (
);
lib = {
};
name = P;
unicodes = (
);
width = 1319;
};
},
{
color = 3;
glyphname = Thorn;
lastChange = "2019-10-22 22:29:28 +0000";
layers = (
{
anchors = (
{
name = bottom;
position = "{316, 0}";
},
{
name = top;
position = "{316, 705}";
}
);
background = {
anchors = (
{
name = bottom;
position = "{316, 0}";
},
{
name = top;
position = "{316, 705}";
}
);
paths = (
{
closed = 1;
nodes = (
"138 0 LINE",
"138 161 LINE",
"351 161 LINE SMOOTH",
"499 161 OFFCURVE",
"580 234 OFFCURVE",
"580 365 CURVE SMOOTH",
"580 496 OFFCURVE",
"499 569 OFFCURVE",
"351 569 CURVE SMOOTH",
"138 569 LINE",
"138 705 LINE",
"96 705 LINE",
"96 0 LINE"
);
},
{
closed = 1;
nodes = (
"138 530 LINE",
"350 530 LINE SMOOTH",
"474 530 OFFCURVE",
"536 473 OFFCURVE",
"536 365 CURVE SMOOTH",
"536 257 OFFCURVE",
"474 200 OFFCURVE",
"350 200 CURVE SMOOTH",
"138 200 LINE"
);
}
);
};
layerId = "F1F93986-3ED8-4AAE-84C4-CA3EEECDDFA0";
paths = (
{
closed = 1;
nodes = (
"131 -6 OFFCURVE",
"138 2 OFFCURVE",
"138 16 CURVE SMOOTH",
"138 161 LINE",
"351 161 LINE SMOOTH",
"499 161 OFFCURVE",
"580 234 OFFCURVE",
"580 365 CURVE SMOOTH",
"580 496 OFFCURVE",
"499 569 OFFCURVE",
"351 569 CURVE SMOOTH",
"138 569 LINE",
"138 689 LINE SMOOTH",
"138 703 OFFCURVE",
"130 711 OFFCURVE",
"117 711 CURVE SMOOTH",
"104 711 OFFCURVE",
"96 703 OFFCURVE",
"96 689 CURVE SMOOTH",
"96 16 LINE SMOOTH",
"96 2 OFFCURVE",
"104 -6 OFFCURVE",
"117 -6 CURVE SMOOTH"
);
},
{
closed = 1;
nodes = (
"138 530 LINE",
"350 530 LINE SMOOTH",
"474 530 OFFCURVE",
"536 473 OFFCURVE",
"536 365 CURVE SMOOTH",
"536 257 OFFCURVE",
"474 200 OFFCURVE",
"350 200 CURVE SMOOTH",
"138 200 LINE"
);
}
);
width = 616;
},
{
anchors = (
{
name = bottom;
position = "{352, 0}";
},
{
name = top;
position = "{351, 705}";
}
);
background = {
anchors = (
{
name = bottom;
position = "{352, 0}";
},
{
name = top;
position = "{351, 705}";
}
);
paths = (
{
closed = 1;
nodes = (
"272 0 LINE",
"272 131 LINE",
"419 131 LINE SMOOTH",
"581 131 OFFCURVE",
"674 221 OFFCURVE",
"674 368 CURVE SMOOTH",
"674 515 OFFCURVE",
"581 605 OFFCURVE",
"419 605 CURVE SMOOTH",
"272 605 LINE",
"272 705 LINE",
"57 705 LINE",
"57 0 LINE"
);
},
{
closed = 1;
nodes = (
"272 441 LINE",
"379 441 LINE SMOOTH",
"437 441 OFFCURVE",
"470 418 OFFCURVE",
"470 368 CURVE SMOOTH",
"470 318 OFFCURVE",
"437 295 OFFCURVE",
"379 295 CURVE SMOOTH",
"272 295 LINE"
);
}
);
};
layerId = "4121B50C-FD42-45C5-8FBE-41E76D98F91E";
paths = (
{
closed = 1;
nodes = (
"235 0 OFFCURVE",
"272 39 OFFCURVE",
"272 109 CURVE SMOOTH",
"272 131 LINE",
"419 131 LINE SMOOTH",
"581 131 OFFCURVE",
"674 221 OFFCURVE",
"674 368 CURVE SMOOTH",
"674 515 OFFCURVE",
"581 605 OFFCURVE",
"419 605 CURVE SMOOTH",
"272 605 LINE",
"272 611 LINE SMOOTH",
"272 666 OFFCURVE",
"236 705 OFFCURVE",
"168 705 CURVE SMOOTH",
"98 705 OFFCURVE",
"57 666 OFFCURVE",
"57 596 CURVE SMOOTH",
"57 109 LINE SMOOTH",
"57 39 OFFCURVE",
"96 0 OFFCURVE",
"165 0 CURVE SMOOTH"
);
},
{
closed = 1;
nodes = (
"272 441 LINE",
"379 441 LINE SMOOTH",
"437 441 OFFCURVE",
"470 418 OFFCURVE",
"470 368 CURVE SMOOTH",
"470 318 OFFCURVE",
"437 295 OFFCURVE",
"379 295 CURVE SMOOTH",
"272 295 LINE"
);
}
);
width = 693;
},
{
anchors = (
{
name = bottom;
position = "{277, 0}";
},
{
name = top;
position = "{389, 705}";
}
);
background = {
anchors = (
{
name = bottom;
position = "{277, 0}";
},
{
name = top;
position = "{389, 705}";
}
);
paths = (
{
closed = 1;
nodes = (
"100 0 LINE",
"126 162 LINE",
"348 162 LINE SMOOTH",
"511 162 OFFCURVE",
"599 251 OFFCURVE",
"599 386 CURVE SMOOTH",
"599 510 OFFCURVE",
"518 570 OFFCURVE",
"385 570 CURVE SMOOTH",
"191 570 LINE",
"212 705 LINE",
"170 705 LINE",
"58 0 LINE"
);
},
{
closed = 1;
nodes = (
"184 531 LINE",
"385 531 LINE SMOOTH",
"496 531 OFFCURVE",
"555 486 OFFCURVE",
"555 385 CURVE SMOOTH",
"555 265 OFFCURVE",
"484 201 OFFCURVE",
"352 201 CURVE SMOOTH",
"132 201 LINE"
);
}
);
};
layerId = "D8D4984A-F5A5-43C0-BF2B-5708C10C5E92";
paths = (
{
closed = 1;
nodes = (
"92 -6 OFFCURVE",
"100 1 OFFCURVE",
"102 15 CURVE SMOOTH",
"126 162 LINE",
"348 162 LINE SMOOTH",
"511 162 OFFCURVE",
"599 251 OFFCURVE",
"599 386 CURVE SMOOTH",
"599 510 OFFCURVE",
"518 570 OFFCURVE",
"385 570 CURVE SMOOTH",
"191 570 LINE",
"209 686 LINE SMOOTH",
"211 701 OFFCURVE",
"204 711 OFFCURVE",
"191 711 CURVE SMOOTH",
"177 711 OFFCURVE",
"169 704 OFFCURVE",
"167 690 CURVE SMOOTH",
"61 19 LINE SMOOTH",
"58 3 OFFCURVE",
"65 -6 OFFCURVE",
"78 -6 CURVE SMOOTH"
);
},
{
closed = 1;
nodes = (
"184 531 LINE",
"385 531 LINE SMOOTH",
"496 531 OFFCURVE",
"555 486 OFFCURVE",
"555 385 CURVE SMOOTH",
"555 265 OFFCURVE",
"484 201 OFFCURVE",
"352 201 CURVE SMOOTH",
"132 201 LINE"
);
}
);
width = 616;
},
{
anchors = (
{
name = bottom;
position = "{313, 0}";
},
{
name = top;
position = "{423, 705}";
}
);
background = {
anchors = (
{
name = bottom;
position = "{313, 0}";
},
{
name = top;
position = "{423, 705}";
}
);
paths = (
{
closed = 1;
nodes = (
"233 0 LINE",
"254 131 LINE",
"389 131 LINE SMOOTH",
"587 131 OFFCURVE",
"693 224 OFFCURVE",
"693 397 CURVE SMOOTH",
"693 524 OFFCURVE",
"608 605 OFFCURVE",
"429 605 CURVE SMOOTH",
"329 605 LINE",
"345 705 LINE",
"130 705 LINE",
"18 0 LINE"
);
},
{
closed = 1;
nodes = (
"303 441 LINE",
"399 441 LINE SMOOTH",
"462 441 OFFCURVE",
"489 421 OFFCURVE",
"489 377 CURVE SMOOTH",
"489 323 OFFCURVE",
"458 295 OFFCURVE",
"397 295 CURVE SMOOTH",
"280 295 LINE"
);
}
);
};
layerId = "C92D7C27-2246-4784-91DF-7F4E0C5E615D";
paths = (
{
closed = 1;
nodes = (
"196 -10 OFFCURVE",
"238 25 OFFCURVE",
"249 97 CURVE SMOOTH",
"254 131 LINE",
"389 131 LINE SMOOTH",
"587 131 OFFCURVE",
"693 224 OFFCURVE",
"693 397 CURVE SMOOTH",
"693 524 OFFCURVE",
"607 605 OFFCURVE",
"429 605 CURVE SMOOTH",
"328 605 LINE",
"330 616 LINE SMOOTH",
"340 669 OFFCURVE",
"305 705 OFFCURVE",
"238 705 CURVE SMOOTH",
"167 705 OFFCURVE",
"124 670 OFFCURVE",
"113 598 CURVE SMOOTH",
"37 116 LINE SMOOTH",
"24 36 OFFCURVE",
"57 -10 OFFCURVE",
"125 -10 CURVE SMOOTH"
);
},
{
closed = 1;
nodes = (
"303 441 LINE",
"399 441 LINE SMOOTH",
"462 441 OFFCURVE",
"489 421 OFFCURVE",
"489 377 CURVE SMOOTH",
"489 323 OFFCURVE",
"458 295 OFFCURVE",
"397 295 CURVE SMOOTH",
"280 295 LINE"
);
}
);
width = 693;
}
);
leftKerningGroup = H;
rightKerningGroup = THORN;
unicode = 00DE;
},
{
color = 3;
glyphname = R;
lastChange = "2019-10-23 08:35:59 +0000";
layers = (
{
anchors = (
{
name = bottom;
position = "{334, 0}";
},
{
name = top;
position = "{334, 705}";
}
);
background = {
anchors = (
{
name = bottom;
position = "{334, 0}";
},
{
name = top;
position = "{334, 705}";
}
);
paths = (
{
closed = 1;
nodes = (
"138 0 LINE",
"138 312 LINE",
"295 312 LINE SMOOTH",
"373 312 OFFCURVE",
"413 295 OFFCURVE",
"450 226 CURVE SMOOTH",
"572 0 LINE",
"618 0 LINE",
"487 242 LINE SMOOTH",
"455 302 OFFCURVE",
"421 327 OFFCURVE",
"370 327 CURVE SMOOTH",
"362 327 LINE",
"351 315 LINE",
"495 315 OFFCURVE",
"580 385 OFFCURVE",
"580 508 CURVE SMOOTH",
"580 635 OFFCURVE",
"499 705 OFFCURVE",
"351 705 CURVE SMOOTH",
"96 705 LINE",
"96 0 LINE"
);
},
{
closed = 1;
nodes = (
"138 666 LINE",
"347 666 LINE SMOOTH",
"473 666 OFFCURVE",
"536 612 OFFCURVE",
"536 509 CURVE SMOOTH",
"536 405 OFFCURVE",
"473 351 OFFCURVE",
"347 351 CURVE SMOOTH",
"138 351 LINE"
);
}
);
};
layerId = "F1F93986-3ED8-4AAE-84C4-CA3EEECDDFA0";
paths = (
{
closed = 1;
nodes = (
"131 -6 OFFCURVE",
"138 2 OFFCURVE",
"138 16 CURVE SMOOTH",
"138 312 LINE",
"295 312 LINE SMOOTH",
"373 312 OFFCURVE",
"413 295 OFFCURVE",
"450 226 CURVE SMOOTH",
"566 10 LINE SMOOTH",
"571 0 OFFCURVE",
"578 -6 OFFCURVE",
"590 -6 CURVE SMOOTH",
"604 -6 OFFCURVE",
"611 11 OFFCURVE",
"602 28 CURVE SMOOTH",
"487 242 LINE SMOOTH",
"455 302 OFFCURVE",
"421 327 OFFCURVE",
"370 327 CURVE SMOOTH",
"362 327 LINE",
"351 315 LINE",
"495 315 OFFCURVE",
"580 385 OFFCURVE",
"580 508 CURVE SMOOTH",
"580 635 OFFCURVE",
"499 705 OFFCURVE",
"351 705 CURVE SMOOTH",
"118 705 LINE SMOOTH",
"104 705 OFFCURVE",
"96 697 OFFCURVE",
"96 683 CURVE SMOOTH",
"96 16 LINE SMOOTH",
"96 2 OFFCURVE",
"104 -6 OFFCURVE",
"117 -6 CURVE SMOOTH"
);
},
{
closed = 1;
nodes = (
"138 666 LINE",
"347 666 LINE SMOOTH",
"473 666 OFFCURVE",
"536 612 OFFCURVE",
"536 509 CURVE SMOOTH",
"536 405 OFFCURVE",
"473 351 OFFCURVE",
"347 351 CURVE SMOOTH",
"138 351 LINE"
);
}
);
width = 654;
},
{
anchors = (
{
name = bottom;
position = "{363, 0}";
},
{
name = top;
position = "{362, 705}";
}
);
background = {
anchors = (
{
name = bottom;
position = "{363, 0}";
},
{
name = top;
position = "{362, 705}";
}
);
paths = (
{
closed = 1;
nodes = (
"272 0 LINE",
"272 252 LINE",
"305 252 LINE SMOOTH",
"326 252 OFFCURVE",
"348 243 OFFCURVE",
"359 224 CURVE SMOOTH",
"482 0 LINE",
"718 0 LINE",
"613 191 LINE SMOOTH",
"583 245 OFFCURVE",
"537 273 OFFCURVE",
"479 273 CURVE SMOOTH",
"422 273 LINE",
"415 254 LINE",
"578 254 OFFCURVE",
"670 340 OFFCURVE",
"670 479 CURVE SMOOTH",
"670 619 OFFCURVE",
"577 705 OFFCURVE",
"415 705 CURVE SMOOTH",
"57 705 LINE",
"57 0 LINE"
);
},
{
closed = 1;
nodes = (
"272 541 LINE",
"375 541 LINE SMOOTH",
"433 541 OFFCURVE",
"466 519 OFFCURVE",
"466 472 CURVE SMOOTH",
"466 424 OFFCURVE",
"433 402 OFFCURVE",
"375 402 CURVE SMOOTH",
"272 402 LINE"
);
}
);
};
layerId = "4121B50C-FD42-45C5-8FBE-41E76D98F91E";
paths = (
{
closed = 1;
nodes = (
"235 -10 OFFCURVE",
"272 29 OFFCURVE",
"272 99 CURVE SMOOTH",
"272 252 LINE",
"305 252 LINE SMOOTH",
"326 252 OFFCURVE",
"348 244 OFFCURVE",
"359 224 CURVE SMOOTH",
"445 67 LINE SMOOTH",
"474 13 OFFCURVE",
"510 -10 OFFCURVE",
"570 -10 CURVE SMOOTH",
"663 -10 OFFCURVE",
"686 60 OFFCURVE",
"648 128 CURVE SMOOTH",
"613 191 LINE SMOOTH",
"583 245 OFFCURVE",
"537 273 OFFCURVE",
"479 273 CURVE SMOOTH",
"422 273 LINE",
"415 254 LINE",
"578 254 OFFCURVE",
"670 340 OFFCURVE",
"670 479 CURVE SMOOTH",
"670 619 OFFCURVE",
"577 705 OFFCURVE",
"415 705 CURVE SMOOTH",
"166 705 LINE SMOOTH",
"96 705 OFFCURVE",
"57 666 OFFCURVE",
"57 596 CURVE SMOOTH",
"57 99 LINE SMOOTH",
"57 29 OFFCURVE",
"96 -10 OFFCURVE",
"165 -10 CURVE SMOOTH"
);
},
{
closed = 1;
nodes = (
"272 541 LINE",
"375 541 LINE SMOOTH",
"433 541 OFFCURVE",
"466 519 OFFCURVE",
"466 472 CURVE SMOOTH",
"466 424 OFFCURVE",
"433 402 OFFCURVE",
"375 402 CURVE SMOOTH",
"272 402 LINE"
);
}
);
width = 718;
},
{
anchors = (
{
name = bottom;
position = "{305, 0}";
},
{
name = top;
position = "{402, 705}";
}
);
background = {
anchors = (
{
name = bottom;
position = "{305, 0}";
},
{
name = top;
position = "{402, 705}";
}
);
paths = (
{
closed = 1;
nodes = (
"100 0 LINE",
"149 312 LINE",
"317 312 LINE SMOOTH",
"395 312 OFFCURVE",
"429 288 OFFCURVE",
"455 221 CURVE SMOOTH",
"539 0 LINE",
"580 0 LINE",
"491 234 LINE SMOOTH",
"468 294 OFFCURVE",
"434 327 OFFCURVE",
"381 327 CURVE SMOOTH",
"373 327 LINE",
"373 316 LINE",
"515 312 OFFCURVE",
"621 385 OFFCURVE",
"621 520 CURVE SMOOTH",
"621 634 OFFCURVE",
"549 705 OFFCURVE",
"401 705 CURVE SMOOTH",
"170 705 LINE",
"58 0 LINE"
);
},
{
closed = 1;
nodes = (
"206 666 LINE",
"401 666 LINE SMOOTH",
"523 666 OFFCURVE",
"577 616 OFFCURVE",
"577 519 CURVE SMOOTH",
"577 412 OFFCURVE",
"504 351 OFFCURVE",
"383 351 CURVE SMOOTH",
"156 351 LINE"
);
}
);
};
layerId = "D8D4984A-F5A5-43C0-BF2B-5708C10C5E92";
paths = (
{
closed = 1;
nodes = (
"93 -6 OFFCURVE",
"100 1 OFFCURVE",
"102 15 CURVE SMOOTH",
"149 312 LINE",
"317 312 LINE SMOOTH",
"395 312 OFFCURVE",
"429 288 OFFCURVE",
"455 221 CURVE SMOOTH",
"535 12 LINE SMOOTH",
"540 -1 OFFCURVE",
"546 -6 OFFCURVE",
"557 -6 CURVE SMOOTH",
"573 -6 OFFCURVE",
"578 5 OFFCURVE",
"571 24 CURVE SMOOTH",
"491 234 LINE SMOOTH",
"468 294 OFFCURVE",
"434 327 OFFCURVE",
"381 327 CURVE SMOOTH",
"373 327 LINE",
"373 316 LINE",
"515 312 OFFCURVE",
"621 385 OFFCURVE",
"621 520 CURVE SMOOTH",
"621 634 OFFCURVE",
"549 705 OFFCURVE",
"401 705 CURVE SMOOTH",
"191 705 LINE SMOOTH",
"177 705 OFFCURVE",
"169 698 OFFCURVE",
"167 684 CURVE SMOOTH",
"62 19 LINE SMOOTH",
"59 3 OFFCURVE",
"66 -6 OFFCURVE",
"79 -6 CURVE SMOOTH"
);
},
{
closed = 1;
nodes = (
"206 666 LINE",
"401 666 LINE SMOOTH",
"523 666 OFFCURVE",
"577 616 OFFCURVE",
"577 519 CURVE SMOOTH",
"577 412 OFFCURVE",
"504 351 OFFCURVE",
"383 351 CURVE SMOOTH",
"156 351 LINE"
);
}
);
width = 654;
},
{
anchors = (
{
name = bottom;
position = "{326, 0}";
},
{
name = top;
position = "{420, 705}";
}
);
background = {
anchors = (
{
name = bottom;
position = "{326, 0}";
},
{
name = top;
position = "{420, 705}";
}
);
paths = (
{
closed = 1;
nodes = (
"233 0 LINE",
"273 252 LINE",
"310 252 LINE SMOOTH",
"339 252 OFFCURVE",
"356 240 OFFCURVE",
"367 210 CURVE SMOOTH",
"446 0 LINE",
"667 0 LINE",
"603 166 LINE SMOOTH",
"578 231 OFFCURVE",
"535 273 OFFCURVE",
"463 273 CURVE SMOOTH",
"419 273 LINE",
"419 254 LINE",
"584 254 OFFCURVE",
"705 327 OFFCURVE",
"705 500 CURVE SMOOTH",
"705 628 OFFCURVE",
"612 705 OFFCURVE",
"449 705 CURVE SMOOTH",
"130 705 LINE",
"18 0 LINE"
);
},
{
closed = 1;
nodes = (
"319 541 LINE",
"411 541 LINE SMOOTH",
"473 541 OFFCURVE",
"501 521 OFFCURVE",
"501 480 CURVE SMOOTH",
"501 427 OFFCURVE",
"469 402 OFFCURVE",
"408 402 CURVE SMOOTH",
"297 402 LINE"
);
}
);
};
layerId = "C92D7C27-2246-4784-91DF-7F4E0C5E615D";
paths = (
{
closed = 1;
nodes = (
"196 -10 OFFCURVE",
"238 25 OFFCURVE",
"249 97 CURVE SMOOTH",
"273 252 LINE",
"310 252 LINE SMOOTH",
"339 252 OFFCURVE",
"356 240 OFFCURVE",
"367 210 CURVE SMOOTH",
"415 83 LINE SMOOTH",
"439 18 OFFCURVE",
"470 -10 OFFCURVE",
"529 -10 CURVE SMOOTH",
"621 -10 OFFCURVE",
"652 41 OFFCURVE",
"619 125 CURVE SMOOTH",
"603 166 LINE SMOOTH",
"577 231 OFFCURVE",
"535 273 OFFCURVE",
"463 273 CURVE SMOOTH",
"419 273 LINE",
"419 254 LINE",
"584 254 OFFCURVE",
"705 327 OFFCURVE",
"705 500 CURVE SMOOTH",
"705 628 OFFCURVE",
"612 705 OFFCURVE",
"449 705 CURVE SMOOTH",
"238 705 LINE SMOOTH",
"166 705 OFFCURVE",
"124 670 OFFCURVE",
"113 598 CURVE SMOOTH",
"37 116 LINE SMOOTH",
"24 36 OFFCURVE",
"57 -10 OFFCURVE",
"125 -10 CURVE SMOOTH"
);
},
{
closed = 1;
nodes = (
"319 541 LINE",
"411 541 LINE SMOOTH",
"473 541 OFFCURVE",
"501 521 OFFCURVE",
"501 480 CURVE SMOOTH",
"501 427 OFFCURVE",
"469 402 OFFCURVE",
"408 402 CURVE SMOOTH",
"297 402 LINE"
);
}
);
width = 718;
}
);
leftKerningGroup = H;
rightKerningGroup = R;
unicode = 0052;
userData = {
anchors = (
);
b = {
};
com.typemytype.robofont.guides = (
);
com.typemytype.robofont.layerData = {
b = {
anchors = (
);
components = (
);
contours = (
{
points = (
{
segmentType = curve;
smooth = 1;
x = 267;
y = 0;
},
{
smooth = 0;
x = 311;
y = 0;
},
{
smooth = 0;
x = 356;
y = 27;
},
{
segmentType = curve;
smooth = 1;
x = 356;
y = 84;
},
{
segmentType = line;
smooth = 0;
x = 356;
y = 628;
},
{
segmentType = line;
smooth = 1;
x = 669;
y = 628;
},
{
smooth = 0;
x = 962;
y = 628;
},
{
smooth = 0;
x = 1182;
y = 722;
},
{
segmentType = curve;
smooth = 1;
x = 1182;
y = 1026;
},
{
smooth = 0;
x = 1182;
y = 1324;
},
{
smooth = 0;
x = 993;
y = 1426;
},
{
segmentType = curve;
smooth = 1;
x = 684;
y = 1426;
},
{
segmentType = line;
smooth = 1;
x = 268;
y = 1426;
},
{
smooth = 0;
x = 217;
y = 1426;
},
{
smooth = 0;
x = 178;
y = 1387;
},
{
segmentType = curve;
smooth = 1;
x = 178;
y = 1339;
},
{
segmentType = line;
smooth = 1;
x = 178;
y = 84;
},
{
smooth = 0;
x = 178;
y = 28;
},
{
smooth = 0;
x = 222;
y = 0;
}
);
},
{
points = (
{
segmentType = line;
smooth = 0;
x = 356;
y = 764;
},
{
segmentType = line;
smooth = 0;
x = 356;
y = 1285;
},
{
segmentType = line;
smooth = 1;
x = 684;
y = 1285;
},
{
smooth = 0;
x = 914;
y = 1285;
},
{
smooth = 0;
x = 1008;
y = 1210;
},
{
segmentType = curve;
smooth = 1;
x = 1008;
y = 1026;
},
{
smooth = 0;
x = 1008;
y = 838;
},
{
smooth = 0;
x = 901;
y = 764;
},
{
segmentType = curve;
smooth = 1;
x = 670;
y = 764;
}
);
}
);
lib = {
};
name = R;
unicodes = (
);
width = 1363;
};
};
components = (
);
contours = (
);
lib = {
};
name = R;
unicodes = (
);
width = 1408;
};
},
{
color = 3;
glyphname = S;
lastChange = "2019-10-23 08:39:46 +0000";
layers = (
{
anchors = (
{
name = bottom;
position = "{310, 0}";
},
{
name = top;
position = "{304, 705}";
}
);
background = {
anchors = (
{
name = bottom;
position = "{310, 0}";
},
{
name = top;
position = "{304, 705}";
}
);
paths = (
{
closed = 1;
nodes = (
"462 -8 OFFCURVE",
"555 69 OFFCURVE",
"555 180 CURVE SMOOTH",
"555 275 OFFCURVE",
"491 325 OFFCURVE",
"355 353 CURVE SMOOTH",
"256 373 LINE SMOOTH",
"155 393 OFFCURVE",
"112 435 OFFCURVE",
"112 513 CURVE SMOOTH",
"112 609 OFFCURVE",
"190 672 OFFCURVE",
"308 672 CURVE SMOOTH",
"393 672 OFFCURVE",
"456 647 OFFCURVE",
"519 586 CURVE",
"539 622 LINE",
"482 682 OFFCURVE",
"403 713 OFFCURVE",
"308 713 CURVE SMOOTH",
"167 713 OFFCURVE",
"68 632 OFFCURVE",
"68 513 CURVE SMOOTH",
"68 413 OFFCURVE",
"129 356 OFFCURVE",
"254 331 CURVE SMOOTH",
"353 311 LINE SMOOTH",
"465 288 OFFCURVE",
"511 251 OFFCURVE",
"511 179 CURVE SMOOTH",
"511 91 OFFCURVE",
"443 33 OFFCURVE",
"310 33 CURVE SMOOTH",
"205 33 OFFCURVE",
"142 58 OFFCURVE",
"72 115 CURVE",
"52 79 LINE",
"116 22 OFFCURVE",
"200 -8 OFFCURVE",
"310 -8 CURVE SMOOTH"
);
}
);
};
layerId = "F1F93986-3ED8-4AAE-84C4-CA3EEECDDFA0";
paths = (
{
closed = 1;
nodes = (
"462 -8 OFFCURVE",
"555 69 OFFCURVE",
"555 180 CURVE SMOOTH",
"555 275 OFFCURVE",
"491 325 OFFCURVE",
"355 353 CURVE SMOOTH",
"256 373 LINE SMOOTH",
"155 393 OFFCURVE",
"112 435 OFFCURVE",
"112 513 CURVE SMOOTH",
"112 609 OFFCURVE",
"190 672 OFFCURVE",
"308 672 CURVE SMOOTH",
"385 672 OFFCURVE",
"448 650 OFFCURVE",
"505 599 CURVE SMOOTH",
"529 577 OFFCURVE",
"552 612 OFFCURVE",
"529 633 CURVE SMOOTH",
"469 688 OFFCURVE",
"396 713 OFFCURVE",
"308 713 CURVE SMOOTH",
"167 713 OFFCURVE",
"68 632 OFFCURVE",
"68 513 CURVE SMOOTH",
"68 413 OFFCURVE",
"129 356 OFFCURVE",
"254 331 CURVE SMOOTH",
"353 311 LINE SMOOTH",
"465 288 OFFCURVE",
"511 251 OFFCURVE",
"511 179 CURVE SMOOTH",
"511 91 OFFCURVE",
"443 33 OFFCURVE",
"310 33 CURVE SMOOTH",
"214 33 OFFCURVE",
"149 54 OFFCURVE",
"86 104 CURVE SMOOTH",
"61 124 OFFCURVE",
"37 89 OFFCURVE",
"62 69 CURVE SMOOTH",
"124 19 OFFCURVE",
"209 -8 OFFCURVE",
"310 -8 CURVE SMOOTH"
);
}
);
width = 600;
},
{
anchors = (
{
name = bottom;
position = "{335, 0}";
},
{
name = top;
position = "{345, 705}";
}
);
background = {
anchors = (
{
name = bottom;
position = "{335, 0}";
},
{
name = top;
position = "{345, 705}";
}
);
paths = (
{
closed = 1;
nodes = (
"518 -12 OFFCURVE",
"640 81 OFFCURVE",
"640 224 CURVE SMOOTH",
"640 328 OFFCURVE",
"577 395 OFFCURVE",
"449 423 CURVE SMOOTH",
"329 449 LINE SMOOTH",
"276 460 OFFCURVE",
"261 473 OFFCURVE",
"261 491 CURVE SMOOTH",
"261 521 OFFCURVE",
"294 542 OFFCURVE",
"359 542 CURVE SMOOTH",
"434 542 OFFCURVE",
"504 521 OFFCURVE",
"552 488 CURVE",
"610 644 LINE",
"556 688 OFFCURVE",
"459 717 OFFCURVE",
"362 717 CURVE SMOOTH",
"176 717 OFFCURVE",
"51 623 OFFCURVE",
"51 480 CURVE SMOOTH",
"51 373 OFFCURVE",
"113 305 OFFCURVE",
"242 277 CURVE SMOOTH",
"362 251 LINE SMOOTH",
"414 240 OFFCURVE",
"430 227 OFFCURVE",
"430 206 CURVE SMOOTH",
"430 183 OFFCURVE",
"407 163 OFFCURVE",
"330 163 CURVE SMOOTH",
"250 163 OFFCURVE",
"157 190 OFFCURVE",
"97 227 CURVE",
"39 61 LINE",
"106 17 OFFCURVE",
"218 -12 OFFCURVE",
"330 -12 CURVE SMOOTH"
);
}
);
};
layerId = "4121B50C-FD42-45C5-8FBE-41E76D98F91E";
paths = (
{
closed = 1;
nodes = (
"518 -12 OFFCURVE",
"640 81 OFFCURVE",
"640 224 CURVE SMOOTH",
"640 328 OFFCURVE",
"577 395 OFFCURVE",
"449 423 CURVE SMOOTH",
"329 449 LINE SMOOTH",
"276 460 OFFCURVE",
"261 473 OFFCURVE",
"261 491 CURVE SMOOTH",
"261 521 OFFCURVE",
"294 542 OFFCURVE",
"359 542 CURVE SMOOTH",
"398 542 OFFCURVE",
"449 534 OFFCURVE",
"483 522 CURVE SMOOTH",
"606 478 OFFCURVE",
"644 633 OFFCURVE",
"553 678 CURVE SMOOTH",
"502 703 OFFCURVE",
"425 717 OFFCURVE",
"362 717 CURVE SMOOTH",
"176 717 OFFCURVE",
"51 623 OFFCURVE",
"51 480 CURVE SMOOTH",
"51 373 OFFCURVE",
"113 305 OFFCURVE",
"242 277 CURVE SMOOTH",
"362 251 LINE SMOOTH",
"414 240 OFFCURVE",
"430 227 OFFCURVE",
"430 206 CURVE SMOOTH",
"430 183 OFFCURVE",
"407 163 OFFCURVE",
"330 163 CURVE SMOOTH",
"282 163 OFFCURVE",
"211 176 OFFCURVE",
"164 195 CURVE SMOOTH",
"50 242 OFFCURVE",
"-7 77 OFFCURVE",
"96 30 CURVE SMOOTH",
"157 2 OFFCURVE",
"253 -12 OFFCURVE",
"330 -12 CURVE SMOOTH"
);
}
);
width = 663;
},
{
anchors = (
{
name = bottom;
position = "{286, 0}";
},
{
name = top;
position = "{373, 705}";
}
);
background = {
anchors = (
{
name = bottom;
position = "{286, 0}";
},
{
name = top;
position = "{373, 705}";
}
);
paths = (
{
closed = 1;
nodes = (
"436 -8 OFFCURVE",
"544 62 OFFCURVE",
"544 186 CURVE SMOOTH",
"544 269 OFFCURVE",
"489 326 OFFCURVE",
"357 356 CURVE SMOOTH",
"258 380 LINE SMOOTH",
"183 398 OFFCURVE",
"144 429 OFFCURVE",
"144 512 CURVE SMOOTH",
"144 609 OFFCURVE",
"233 672 OFFCURVE",
"347 672 CURVE SMOOTH",
"429 672 OFFCURVE",
"505 648 OFFCURVE",
"564 585 CURVE",
"587 620 LINE",
"531 685 OFFCURVE",
"439 713 OFFCURVE",
"349 713 CURVE SMOOTH",
"210 713 OFFCURVE",
"100 632 OFFCURVE",
"100 512 CURVE SMOOTH",
"100 407 OFFCURVE",
"159 361 OFFCURVE",
"249 340 CURVE SMOOTH",
"348 316 LINE SMOOTH",
"463 290 OFFCURVE",
"500 245 OFFCURVE",
"500 182 CURVE SMOOTH",
"500 89 OFFCURVE",
"417 33 OFFCURVE",
"297 33 CURVE SMOOTH",
"197 33 OFFCURVE",
"126 50 OFFCURVE",
"56 112 CURVE",
"33 79 LINE",
"99 15 OFFCURVE",
"192 -8 OFFCURVE",
"295 -8 CURVE SMOOTH"
);
}
);
};
layerId = "D8D4984A-F5A5-43C0-BF2B-5708C10C5E92";
paths = (
{
closed = 1;
nodes = (
"436 -8 OFFCURVE",
"544 62 OFFCURVE",
"544 186 CURVE SMOOTH",
"544 269 OFFCURVE",
"489 326 OFFCURVE",
"357 356 CURVE SMOOTH",
"258 380 LINE SMOOTH",
"183 398 OFFCURVE",
"144 429 OFFCURVE",
"144 512 CURVE SMOOTH",
"144 609 OFFCURVE",
"233 672 OFFCURVE",
"347 672 CURVE SMOOTH",
"421 672 OFFCURVE",
"494 654 OFFCURVE",
"550 599 CURVE SMOOTH",
"574 575 OFFCURVE",
"597 609 OFFCURVE",
"577 631 CURVE SMOOTH",
"521 690 OFFCURVE",
"432 713 OFFCURVE",
"349 713 CURVE SMOOTH",
"210 713 OFFCURVE",
"100 632 OFFCURVE",
"100 512 CURVE SMOOTH",
"100 407 OFFCURVE",
"159 361 OFFCURVE",
"249 340 CURVE SMOOTH",
"348 316 LINE SMOOTH",
"463 290 OFFCURVE",
"500 245 OFFCURVE",
"500 182 CURVE SMOOTH",
"500 89 OFFCURVE",
"417 33 OFFCURVE",
"297 33 CURVE SMOOTH",
"206 33 OFFCURVE",
"136 47 OFFCURVE",
"69 101 CURVE SMOOTH",
"43 121 OFFCURVE",
"21 88 OFFCURVE",
"43 69 CURVE SMOOTH",
"107 13 OFFCURVE",
"200 -8 OFFCURVE",
"295 -8 CURVE SMOOTH"
);
}
);
width = 600;
},
{
anchors = (
{
name = bottom;
position = "{316, 0}";
},
{
name = top;
position = "{396, 705}";
}
);
background = {
anchors = (
{
name = bottom;
position = "{316, 0}";
},
{
name = top;
position = "{396, 705}";
}
);
paths = (
{
closed = 1;
nodes = (
"476 -12 OFFCURVE",
"635 66 OFFCURVE",
"635 235 CURVE SMOOTH",
"635 327 OFFCURVE",
"571 398 OFFCURVE",
"467 422 CURVE SMOOTH",
"348 450 LINE SMOOTH",
"307 460 OFFCURVE",
"288 476 OFFCURVE",
"288 496 CURVE SMOOTH",
"288 522 OFFCURVE",
"323 542 OFFCURVE",
"387 542 CURVE SMOOTH",
"442 542 OFFCURVE",
"519 527 OFFCURVE",
"580 488 CURVE",
"652 641 LINE",
"572 693 OFFCURVE",
"475 717 OFFCURVE",
"388 717 CURVE SMOOTH",
"225 717 OFFCURVE",
"78 631 OFFCURVE",
"78 473 CURVE SMOOTH",
"78 381 OFFCURVE",
"142 310 OFFCURVE",
"246 286 CURVE SMOOTH",
"365 258 LINE SMOOTH",
"405 249 OFFCURVE",
"425 234 OFFCURVE",
"425 210 CURVE SMOOTH",
"425 184 OFFCURVE",
"392 163 OFFCURVE",
"326 163 CURVE SMOOTH",
"258 163 OFFCURVE",
"165 184 OFFCURVE",
"81 232 CURVE",
"13 70 LINE",
"93 16 OFFCURVE",
"201 -12 OFFCURVE",
"305 -12 CURVE SMOOTH"
);
}
);
};
guideLines = (
{
position = "{361, 163}";
},
{
angle = 90;
position = "{425, 222}";
},
{
angle = 270;
position = "{288, 510}";
}
);
layerId = "C92D7C27-2246-4784-91DF-7F4E0C5E615D";
paths = (
{
closed = 1;
nodes = (
"476 -12 OFFCURVE",
"635 66 OFFCURVE",
"635 235 CURVE SMOOTH",
"635 327 OFFCURVE",
"571 398 OFFCURVE",
"467 422 CURVE SMOOTH",
"348 450 LINE SMOOTH",
"307 460 OFFCURVE",
"288 476 OFFCURVE",
"288 496 CURVE SMOOTH",
"288 522 OFFCURVE",
"323 542 OFFCURVE",
"387 542 CURVE SMOOTH",
"424 542 OFFCURVE",
"471 533 OFFCURVE",
"510 520 CURVE SMOOTH",
"650 473 OFFCURVE",
"687 629 OFFCURVE",
"593 674 CURVE SMOOTH",
"527 706 OFFCURVE",
"448 717 OFFCURVE",
"388 717 CURVE SMOOTH",
"225 717 OFFCURVE",
"78 631 OFFCURVE",
"78 473 CURVE SMOOTH",
"78 381 OFFCURVE",
"142 310 OFFCURVE",
"246 286 CURVE SMOOTH",
"365 258 LINE SMOOTH",
"405 249 OFFCURVE",
"425 234 OFFCURVE",
"425 210 CURVE SMOOTH",
"425 184 OFFCURVE",
"392 163 OFFCURVE",
"326 163 CURVE SMOOTH",
"282 163 OFFCURVE",
"210 174 OFFCURVE",
"152 199 CURVE SMOOTH",
"35 250 OFFCURVE",
"-27 84 OFFCURVE",
"79 34 CURVE SMOOTH",
"145 3 OFFCURVE",
"232 -12 OFFCURVE",
"305 -12 CURVE SMOOTH"
);
}
);
width = 663;
}
);
leftKerningGroup = S;
rightKerningGroup = S;
unicode = 0053;
userData = {
anchors = (
);
b = {
};
com.typemytype.robofont.layerData = {
b = {
anchors = (
);
components = (
);
contours = (
);
lib = {
};
name = S;
unicodes = (
);
width = 1274;
};
};
components = (
);
contours = (
);
lib = {
};
name = S;
unicodes = (
);
width = 1317;
};
},
{
color = 3;
glyphname = Germandbls;
lastChange = "2019-10-23 09:13:29 +0000";
layers = (
{
background = {
paths = (
{
closed = 1;
nodes = (
"547 -8 OFFCURVE",
"626 61 OFFCURVE",
"626 186 CURVE SMOOTH",
"626 290 OFFCURVE",
"560 354 OFFCURVE",
"456 367 CURVE",
"456 353 LINE",
"537 370 OFFCURVE",
"588 440 OFFCURVE",
"588 529 CURVE SMOOTH",
"588 643 OFFCURVE",
"498 713 OFFCURVE",
"358 713 CURVE SMOOTH",
"195 713 OFFCURVE",
"96 630 OFFCURVE",
"96 470 CURVE SMOOTH",
"96 0 LINE",
"138 0 LINE",
"138 467 LINE SMOOTH",
"138 604 OFFCURVE",
"215 673 OFFCURVE",
"359 673 CURVE SMOOTH",
"478 673 OFFCURVE",
"544 621 OFFCURVE",
"544 524 CURVE SMOOTH",
"544 427 OFFCURVE",
"478 374 OFFCURVE",
"375 374 CURVE SMOOTH",
"255 374 LINE",
"255 335 LINE",
"402 335 LINE SMOOTH",
"523 335 OFFCURVE",
"582 281 OFFCURVE",
"582 186 CURVE SMOOTH",
"582 90 OFFCURVE",
"523 32 OFFCURVE",
"413 32 CURVE SMOOTH",
"343 32 OFFCURVE",
"290 49 OFFCURVE",
"238 96 CURVE",
"216 61 LINE",
"262 16 OFFCURVE",
"332 -8 OFFCURVE",
"413 -8 CURVE SMOOTH"
);
}
);
};
layerId = "F1F93986-3ED8-4AAE-84C4-CA3EEECDDFA0";
paths = (
{
closed = 1;
nodes = (
"547 -8 OFFCURVE",
"626 61 OFFCURVE",
"626 186 CURVE SMOOTH",
"626 290 OFFCURVE",
"560 354 OFFCURVE",
"456 367 CURVE",
"456 353 LINE",
"537 370 OFFCURVE",
"588 440 OFFCURVE",
"588 529 CURVE SMOOTH",
"588 643 OFFCURVE",
"498 713 OFFCURVE",
"358 713 CURVE SMOOTH",
"195 713 OFFCURVE",
"96 630 OFFCURVE",
"96 470 CURVE SMOOTH",
"96 16 LINE SMOOTH",
"96 2 OFFCURVE",
"104 -6 OFFCURVE",
"117 -6 CURVE SMOOTH",
"130 -6 OFFCURVE",
"138 2 OFFCURVE",
"138 16 CURVE SMOOTH",
"138 467 LINE SMOOTH",
"138 604 OFFCURVE",
"215 673 OFFCURVE",
"359 673 CURVE SMOOTH",
"478 673 OFFCURVE",
"544 621 OFFCURVE",
"544 524 CURVE SMOOTH",
"544 427 OFFCURVE",
"478 374 OFFCURVE",
"375 374 CURVE SMOOTH",
"271 374 LINE SMOOTH",
"257 374 OFFCURVE",
"249 367 OFFCURVE",
"249 355 CURVE SMOOTH",
"249 343 OFFCURVE",
"257 335 OFFCURVE",
"271 335 CURVE SMOOTH",
"402 335 LINE SMOOTH",
"523 335 OFFCURVE",
"582 281 OFFCURVE",
"582 186 CURVE SMOOTH",
"582 90 OFFCURVE",
"523 32 OFFCURVE",
"413 32 CURVE SMOOTH",
"351 32 OFFCURVE",
"298 46 OFFCURVE",
"251 84 CURVE SMOOTH",
"226 103 OFFCURVE",
"205 68 OFFCURVE",
"226 51 CURVE SMOOTH",
"272 12 OFFCURVE",
"340 -8 OFFCURVE",
"413 -8 CURVE SMOOTH"
);
}
);
width = 697;
},
{
background = {
paths = (
{
closed = 1;
nodes = (
"640 -12 OFFCURVE",
"730 67 OFFCURVE",
"730 195 CURVE SMOOTH",
"730 293 OFFCURVE",
"667 365 OFFCURVE",
"573 375 CURVE",
"573 354 LINE",
"651 384 OFFCURVE",
"694 444 OFFCURVE",
"694 520 CURVE SMOOTH",
"694 641 OFFCURVE",
"585 716 OFFCURVE",
"410 716 CURVE SMOOTH",
"180 716 OFFCURVE",
"57 617 OFFCURVE",
"57 430 CURVE SMOOTH",
"57 0 LINE",
"272 0 LINE",
"272 430 LINE SMOOTH",
"272 511 OFFCURVE",
"311 548 OFFCURVE",
"396 548 CURVE SMOOTH",
"460 548 OFFCURVE",
"491 529 OFFCURVE",
"491 490 CURVE SMOOTH",
"491 452 OFFCURVE",
"464 432 OFFCURVE",
"412 432 CURVE SMOOTH",
"354 432 LINE",
"354 271 LINE",
"424 271 LINE SMOOTH",
"496 271 OFFCURVE",
"527 253 OFFCURVE",
"527 211 CURVE SMOOTH",
"527 177 OFFCURVE",
"502 154 OFFCURVE",
"464 154 CURVE SMOOTH",
"426 154 OFFCURVE",
"394 164 OFFCURVE",
"353 188 CURVE",
"298 38 LINE",
"356 1 OFFCURVE",
"409 -12 OFFCURVE",
"490 -12 CURVE SMOOTH"
);
}
);
};
layerId = "4121B50C-FD42-45C5-8FBE-41E76D98F91E";
paths = (
{
closed = 1;
nodes = (
"640 -12 OFFCURVE",
"730 67 OFFCURVE",
"730 195 CURVE SMOOTH",
"730 293 OFFCURVE",
"667 365 OFFCURVE",
"573 375 CURVE",
"573 354 LINE",
"651 384 OFFCURVE",
"694 444 OFFCURVE",
"694 520 CURVE SMOOTH",
"694 641 OFFCURVE",
"585 716 OFFCURVE",
"410 716 CURVE SMOOTH",
"180 716 OFFCURVE",
"57 617 OFFCURVE",
"57 430 CURVE SMOOTH",
"57 99 LINE SMOOTH",
"57 29 OFFCURVE",
"95 -10 OFFCURVE",
"165 -10 CURVE SMOOTH",
"234 -10 OFFCURVE",
"272 29 OFFCURVE",
"272 99 CURVE SMOOTH",
"272 430 LINE SMOOTH",
"272 511 OFFCURVE",
"311 548 OFFCURVE",
"396 548 CURVE SMOOTH",
"460 548 OFFCURVE",
"491 529 OFFCURVE",
"491 490 CURVE SMOOTH",
"491 452 OFFCURVE",
"464 432 OFFCURVE",
"420 432 CURVE SMOOTH",
"408 432 LINE SMOOTH",
"369 432 OFFCURVE",
"339 406 OFFCURVE",
"339 352 CURVE SMOOTH",
"339 298 OFFCURVE",
"373 271 OFFCURVE",
"419 271 CURVE SMOOTH",
"432 271 LINE SMOOTH",
"496 271 OFFCURVE",
"527 253 OFFCURVE",
"527 211 CURVE SMOOTH",
"527 177 OFFCURVE",
"502 154 OFFCURVE",
"464 154 CURVE SMOOTH",
"444 154 OFFCURVE",
"422 158 OFFCURVE",
"399 167 CURVE SMOOTH",
"313 201 OFFCURVE",
"263 44 OFFCURVE",
"367 6 CURVE SMOOTH",
"397 -5 OFFCURVE",
"440 -12 OFFCURVE",
"490 -12 CURVE SMOOTH"
);
}
);
width = 764;
},
{
background = {
paths = (
{
closed = 1;
nodes = (
"533 -8 OFFCURVE",
"618 68 OFFCURVE",
"618 205 CURVE SMOOTH",
"618 288 OFFCURVE",
"562 349 OFFCURVE",
"475 363 CURVE",
"475 349 LINE",
"566 363 OFFCURVE",
"637 431 OFFCURVE",
"637 538 CURVE SMOOTH",
"637 640 OFFCURVE",
"557 713 OFFCURVE",
"419 713 CURVE SMOOTH",
"251 713 OFFCURVE",
"158 634 OFFCURVE",
"133 472 CURVE SMOOTH",
"58 0 LINE",
"100 0 LINE",
"174 467 LINE SMOOTH",
"196 605 OFFCURVE",
"273 672 OFFCURVE",
"416 672 CURVE SMOOTH",
"529 672 OFFCURVE",
"593 619 OFFCURVE",
"593 537 CURVE SMOOTH",
"593 432 OFFCURVE",
"517 374 OFFCURVE",
"409 374 CURVE SMOOTH",
"277 374 LINE",
"270 335 LINE",
"411 335 LINE SMOOTH",
"515 335 OFFCURVE",
"574 290 OFFCURVE",
"574 204 CURVE SMOOTH",
"574 94 OFFCURVE",
"508 33 OFFCURVE",
"381 33 CURVE SMOOTH",
"316 33 OFFCURVE",
"259 54 OFFCURVE",
"209 95 CURVE",
"186 61 LINE",
"226 22 OFFCURVE",
"299 -8 OFFCURVE",
"378 -8 CURVE SMOOTH"
);
}
);
};
layerId = "D8D4984A-F5A5-43C0-BF2B-5708C10C5E92";
paths = (
{
closed = 1;
nodes = (
"533 -8 OFFCURVE",
"618 68 OFFCURVE",
"618 205 CURVE SMOOTH",
"618 288 OFFCURVE",
"562 349 OFFCURVE",
"475 363 CURVE",
"475 349 LINE",
"566 363 OFFCURVE",
"637 431 OFFCURVE",
"637 538 CURVE SMOOTH",
"637 640 OFFCURVE",
"557 713 OFFCURVE",
"419 713 CURVE SMOOTH",
"251 713 OFFCURVE",
"159 634 OFFCURVE",
"133 472 CURVE SMOOTH",
"61 19 LINE SMOOTH",
"58 3 OFFCURVE",
"65 -6 OFFCURVE",
"78 -6 CURVE SMOOTH",
"92 -6 OFFCURVE",
"100 1 OFFCURVE",
"102 15 CURVE SMOOTH",
"174 467 LINE SMOOTH",
"196 605 OFFCURVE",
"273 672 OFFCURVE",
"416 672 CURVE SMOOTH",
"529 672 OFFCURVE",
"593 619 OFFCURVE",
"593 537 CURVE SMOOTH",
"593 432 OFFCURVE",
"517 374 OFFCURVE",
"409 374 CURVE SMOOTH",
"292 374 LINE SMOOTH",
"280 374 OFFCURVE",
"268 369 OFFCURVE",
"268 351 CURVE SMOOTH",
"268 341 OFFCURVE",
"275 335 OFFCURVE",
"289 335 CURVE SMOOTH",
"411 335 LINE SMOOTH",
"515 335 OFFCURVE",
"574 290 OFFCURVE",
"574 204 CURVE SMOOTH",
"574 94 OFFCURVE",
"508 33 OFFCURVE",
"381 33 CURVE SMOOTH",
"324 33 OFFCURVE",
"268 50 OFFCURVE",
"224 84 CURVE SMOOTH",
"198 104 OFFCURVE",
"176 69 OFFCURVE",
"198 51 CURVE SMOOTH",
"239 15 OFFCURVE",
"309 -8 OFFCURVE",
"378 -8 CURVE SMOOTH"
);
}
);
width = 697;
},
{
associatedMasterId = "D8D4984A-F5A5-43C0-BF2B-5708C10C5E92";
background = {
anchors = (
{
name = bottom;
position = "{330, 0}";
},
{
name = top;
position = "{441, 705}";
}
);
paths = (
{
closed = 1;
nodes = (
"377 0 LINE SMOOTH",
"534 0 OFFCURVE",
"619 70 OFFCURVE",
"619 207 CURVE SMOOTH",
"619 290 OFFCURVE",
"563 349 OFFCURVE",
"474 363 CURVE",
"474 349 LINE",
"585 363 OFFCURVE",
"656 434 OFFCURVE",
"656 541 CURVE SMOOTH",
"656 643 OFFCURVE",
"586 705 OFFCURVE",
"448 705 CURVE SMOOTH",
"201 705 LINE",
"89 0 LINE"
);
},
{
closed = 1;
nodes = (
"185 337 LINE",
"410 337 LINE SMOOTH",
"516 337 OFFCURVE",
"575 292 OFFCURVE",
"575 206 CURVE SMOOTH",
"575 96 OFFCURVE",
"510 39 OFFCURVE",
"381 39 CURVE SMOOTH",
"138 39 LINE"
);
},
{
closed = 1;
nodes = (
"237 666 LINE",
"445 666 LINE SMOOTH",
"558 666 OFFCURVE",
"612 622 OFFCURVE",
"612 540 CURVE SMOOTH",
"612 435 OFFCURVE",
"536 376 OFFCURVE",
"418 376 CURVE SMOOTH",
"191 376 LINE"
);
}
);
};
layerId = "8CDD07C9-93B3-4414-AC32-B24B1420B2AA";
name = "Sep 17 19, 16:50";
paths = (
{
closed = 1;
nodes = (
"507 -7 OFFCURVE",
"597 62 OFFCURVE",
"617 186 CURVE SMOOTH",
"633 290 OFFCURVE",
"577 354 OFFCURVE",
"475 367 CURVE",
"473 353 LINE",
"557 370 OFFCURVE",
"619 440 OFFCURVE",
"633 529 CURVE SMOOTH",
"651 643 OFFCURVE",
"572 713 OFFCURVE",
"432 713 CURVE SMOOTH",
"269 713 OFFCURVE",
"157 630 OFFCURVE",
"132 470 CURVE SMOOTH",
"57 0 LINE",
"99 0 LINE",
"173 467 LINE SMOOTH",
"195 604 OFFCURVE",
"283 673 OFFCURVE",
"427 673 CURVE SMOOTH",
"546 673 OFFCURVE",
"604 621 OFFCURVE",
"588 524 CURVE SMOOTH",
"573 427 OFFCURVE",
"499 374 OFFCURVE",
"396 374 CURVE SMOOTH",
"276 374 LINE",
"269 335 LINE",
"416 335 LINE SMOOTH",
"537 335 OFFCURVE",
"588 281 OFFCURVE",
"573 186 CURVE SMOOTH",
"558 91 OFFCURVE",
"490 33 OFFCURVE",
"380 33 CURVE SMOOTH",
"310 33 OFFCURVE",
"259 50 OFFCURVE",
"215 97 CURVE",
"187 62 LINE",
"226 17 OFFCURVE",
"292 -7 OFFCURVE",
"373 -7 CURVE SMOOTH"
);
}
);
width = 697;
},
{
background = {
paths = (
{
closed = 1;
nodes = (
"632 -12 OFFCURVE",
"720 91 OFFCURVE",
"720 193 CURVE SMOOTH",
"720 274 OFFCURVE",
"671 352 OFFCURVE",
"576 370 CURVE",
"576 353 LINE",
"669 377 OFFCURVE",
"726 451 OFFCURVE",
"726 528 CURVE SMOOTH",
"726 625 OFFCURVE",
"632 717 OFFCURVE",
"448 717 CURVE SMOOTH",
"247 717 OFFCURVE",
"122 653 OFFCURVE",
"89 450 CURVE SMOOTH",
"18 0 LINE",
"233 0 LINE",
"301 430 LINE SMOOTH",
"314 511 OFFCURVE",
"345 548 OFFCURVE",
"430 548 CURVE SMOOTH",
"493 548 OFFCURVE",
"523 522 OFFCURVE",
"523 494 CURVE SMOOTH",
"523 447 OFFCURVE",
"496 432 OFFCURVE",
"444 432 CURVE SMOOTH",
"383 432 LINE",
"358 271 LINE",
"429 271 LINE SMOOTH",
"492 271 OFFCURVE",
"517 242 OFFCURVE",
"517 213 CURVE SMOOTH",
"517 182 OFFCURVE",
"491 154 OFFCURVE",
"457 154 CURVE SMOOTH",
"417 154 OFFCURVE",
"370 165 OFFCURVE",
"344 190 CURVE",
"275 46 LINE",
"336 8 OFFCURVE",
"380 -12 OFFCURVE",
"466 -12 CURVE SMOOTH"
);
}
);
};
guideLines = (
{
position = "{463, 154}";
},
{
angle = 90;
position = "{519, 231}";
},
{
angle = 270;
position = "{717, 253}";
}
);
layerId = "C92D7C27-2246-4784-91DF-7F4E0C5E615D";
paths = (
{
closed = 1;
nodes = (
"632 -12 OFFCURVE",
"720 91 OFFCURVE",
"720 193 CURVE SMOOTH",
"720 274 OFFCURVE",
"671 352 OFFCURVE",
"576 370 CURVE",
"576 353 LINE",
"669 377 OFFCURVE",
"726 451 OFFCURVE",
"726 528 CURVE SMOOTH",
"726 625 OFFCURVE",
"632 717 OFFCURVE",
"448 717 CURVE SMOOTH",
"247 717 OFFCURVE",
"121 653 OFFCURVE",
"89 450 CURVE SMOOTH",
"35 107 LINE SMOOTH",
"23 33 OFFCURVE",
"58 -10 OFFCURVE",
"130 -10 CURVE SMOOTH",
"197 -10 OFFCURVE",
"237 24 OFFCURVE",
"247 90 CURVE SMOOTH",
"301 430 LINE SMOOTH",
"314 511 OFFCURVE",
"345 548 OFFCURVE",
"430 548 CURVE SMOOTH",
"493 548 OFFCURVE",
"523 522 OFFCURVE",
"523 494 CURVE SMOOTH",
"523 447 OFFCURVE",
"501 432 OFFCURVE",
"445 432 CURVE SMOOTH",
"439 432 LINE SMOOTH",
"381 432 OFFCURVE",
"359 393 OFFCURVE",
"359 332 CURVE SMOOTH",
"359 295 OFFCURVE",
"388 271 OFFCURVE",
"423 271 CURVE SMOOTH",
"430 271 LINE SMOOTH",
"497 271 OFFCURVE",
"517 242 OFFCURVE",
"517 213 CURVE SMOOTH",
"517 182 OFFCURVE",
"491 154 OFFCURVE",
"457 154 CURVE SMOOTH",
"438 154 OFFCURVE",
"417 156 OFFCURVE",
"388 165 CURVE SMOOTH",
"294 193 OFFCURVE",
"246 45 OFFCURVE",
"343 9 CURVE SMOOTH",
"385 -7 OFFCURVE",
"418 -12 OFFCURVE",
"466 -12 CURVE SMOOTH"
);
}
);
width = 764;
},
{
associatedMasterId = "C92D7C27-2246-4784-91DF-7F4E0C5E615D";
background = {
anchors = (
{
name = bottom;
position = "{375, 0}";
},
{
name = top;
position = "{486, 705}";
}
);
paths = (
{
closed = 1;
nodes = (
"453 0 LINE SMOOTH",
"617 0 OFFCURVE",
"724 76 OFFCURVE",
"724 212 CURVE SMOOTH",
"724 293 OFFCURVE",
"675 355 OFFCURVE",
"588 372 CURVE",
"588 355 LINE",
"686 373 OFFCURVE",
"755 437 OFFCURVE",
"755 534 CURVE SMOOTH",
"755 628 OFFCURVE",
"692 705 OFFCURVE",
"519 705 CURVE SMOOTH",
"186 705 LINE",
"74 0 LINE"
);
},
{
closed = 1;
nodes = (
"324 280 LINE",
"449 280 LINE SMOOTH",
"496 280 OFFCURVE",
"521 263 OFFCURVE",
"521 227 CURVE SMOOTH",
"521 183 OFFCURVE",
"495 156 OFFCURVE",
"439 156 CURVE SMOOTH",
"304 156 LINE"
);
},
{
closed = 1;
nodes = (
"366 549 LINE",
"482 549 LINE SMOOTH",
"531 549 OFFCURVE",
"551 533 OFFCURVE",
"551 505 CURVE SMOOTH",
"551 458 OFFCURVE",
"523 436 OFFCURVE",
"462 436 CURVE SMOOTH",
"348 436 LINE"
);
}
);
};
layerId = "A04DDD51-6256-4B78-A425-A37192C2C8A1";
name = "Sep 17 19, 14:24";
paths = (
{
closed = 1;
nodes = (
"233 0 LINE",
"301 430 LINE SMOOTH",
"314 511 OFFCURVE",
"359 548 OFFCURVE",
"444 548 CURVE SMOOTH",
"508 548 OFFCURVE",
"536 529 OFFCURVE",
"529 490 CURVE SMOOTH",
"523 452 OFFCURVE",
"493 432 OFFCURVE",
"441 432 CURVE SMOOTH",
"383 432 LINE",
"358 271 LINE",
"428 271 LINE SMOOTH",
"500 271 OFFCURVE",
"528 253 OFFCURVE",
"521 211 CURVE SMOOTH",
"516 177 OFFCURVE",
"487 154 OFFCURVE",
"449 154 CURVE SMOOTH",
"411 154 OFFCURVE",
"381 164 OFFCURVE",
"344 188 CURVE",
"265 38 LINE",
"317 1 OFFCURVE",
"368 -12 OFFCURVE",
"449 -12 CURVE SMOOTH",
"599 -12 OFFCURVE",
"701 67 OFFCURVE",
"722 195 CURVE SMOOTH",
"737 293 OFFCURVE",
"686 365 OFFCURVE",
"593 375 CURVE",
"590 354 LINE",
"673 384 OFFCURVE",
"725 444 OFFCURVE",
"737 520 CURVE SMOOTH",
"756 641 OFFCURVE",
"659 716 OFFCURVE",
"484 716 CURVE SMOOTH",
"254 716 OFFCURVE",
"115 617 OFFCURVE",
"86 430 CURVE SMOOTH",
"18 0 LINE"
);
}
);
width = 764;
}
);
leftKerningGroup = H;
rightKerningGroup = Germandbls;
unicode = 1E9E;
},
{
color = 3;
glyphname = Schwa;
lastChange = "2019-10-23 09:54:19 +0000";
layers = (
{
anchors = (
{
name = bottom;
position = "{371, 0}";
},
{
name = top;
position = "{371, 705}";
}
);
background = {
anchors = (
{
name = bottom;
position = "{371, 0}";
},
{
name = top;
position = "{371, 705}";
}
);
paths = (
{
closed = 1;
nodes = (
"566 -8 OFFCURVE",
"684 129 OFFCURVE",
"684 353 CURVE SMOOTH",
"684 577 OFFCURVE",
"558 713 OFFCURVE",
"355 713 CURVE SMOOTH",
"244 713 OFFCURVE",
"158 681 OFFCURVE",
"93 618 CURVE",
"114 583 LINE",
"182 646 OFFCURVE",
"248 672 OFFCURVE",
"354 672 CURVE SMOOTH",
"535 672 OFFCURVE",
"639 556 OFFCURVE",
"639 353 CURVE SMOOTH",
"639 151 OFFCURVE",
"541 33 OFFCURVE",
"379 33 CURVE SMOOTH",
"199 33 OFFCURVE",
"111 146 OFFCURVE",
"111 353 CURVE",
"99 337 LINE",
"644 337 LINE",
"644 376 LINE",
"67 376 LINE",
"67 348 LINE SMOOTH",
"67 132 OFFCURVE",
"170 -8 OFFCURVE",
"380 -8 CURVE SMOOTH"
);
}
);
};
layerId = "F1F93986-3ED8-4AAE-84C4-CA3EEECDDFA0";
paths = (
{
closed = 1;
nodes = (
"566 -8 OFFCURVE",
"684 129 OFFCURVE",
"684 353 CURVE SMOOTH",
"684 577 OFFCURVE",
"558 713 OFFCURVE",
"355 713 CURVE SMOOTH",
"252 713 OFFCURVE",
"165 684 OFFCURVE",
"102 627 CURVE SMOOTH",
"80 607 OFFCURVE",
"104 575 OFFCURVE",
"126 594 CURVE SMOOTH",
"189 649 OFFCURVE",
"257 672 OFFCURVE",
"354 672 CURVE SMOOTH",
"535 672 OFFCURVE",
"639 556 OFFCURVE",
"639 353 CURVE SMOOTH",
"639 151 OFFCURVE",
"541 33 OFFCURVE",
"379 33 CURVE SMOOTH",
"199 33 OFFCURVE",
"111 146 OFFCURVE",
"111 353 CURVE",
"99 337 LINE",
"654 337 LINE",
"654 376 LINE",
"89 376 LINE SMOOTH",
"73 376 OFFCURVE",
"67 368 OFFCURVE",
"67 348 CURVE SMOOTH",
"67 132 OFFCURVE",
"170 -8 OFFCURVE",
"380 -8 CURVE SMOOTH"
);
}
);
width = 751;
},
{
anchors = (
{
name = bottom;
position = "{415, 0}";
},
{
name = top;
position = "{415, 705}";
}
);
background = {
anchors = (
{
name = bottom;
position = "{415, 0}";
},
{
name = top;
position = "{415, 705}";
}
);
paths = (
{
closed = 1;
nodes = (
"628 -12 OFFCURVE",
"779 132 OFFCURVE",
"779 351 CURVE SMOOTH",
"779 577 OFFCURVE",
"620 717 OFFCURVE",
"385 717 CURVE SMOOTH",
"259 717 OFFCURVE",
"148 688 OFFCURVE",
"73 646 CURVE",
"141 484 LINE",
"206 519 OFFCURVE",
"284 538 OFFCURVE",
"356 538 CURVE SMOOTH",
"490 538 OFFCURVE",
"556 476 OFFCURVE",
"556 353 CURVE SMOOTH",
"556 218 OFFCURVE",
"505 158 OFFCURVE",
"408 158 CURVE SMOOTH",
"311 158 OFFCURVE",
"259 218 OFFCURVE",
"259 353 CURVE",
"203 271 LINE",
"612 271 LINE",
"612 432 LINE",
"41 432 LINE",
"41 370 LINE SMOOTH",
"41 146 OFFCURVE",
"174 -12 OFFCURVE",
"419 -12 CURVE SMOOTH"
);
}
);
};
layerId = "4121B50C-FD42-45C5-8FBE-41E76D98F91E";
paths = (
{
closed = 1;
nodes = (
"628 -12 OFFCURVE",
"779 132 OFFCURVE",
"779 351 CURVE SMOOTH",
"779 577 OFFCURVE",
"620 717 OFFCURVE",
"385 717 CURVE SMOOTH",
"299 717 OFFCURVE",
"209 702 OFFCURVE",
"148 679 CURVE SMOOTH",
"36 637 OFFCURVE",
"90 473 OFFCURVE",
"213 515 CURVE SMOOTH",
"257 530 OFFCURVE",
"313 538 OFFCURVE",
"356 538 CURVE SMOOTH",
"490 538 OFFCURVE",
"556 476 OFFCURVE",
"556 353 CURVE SMOOTH",
"556 218 OFFCURVE",
"505 158 OFFCURVE",
"408 158 CURVE SMOOTH",
"311 158 OFFCURVE",
"259 218 OFFCURVE",
"259 353 CURVE",
"203 271 LINE",
"612 271 LINE",
"612 432 LINE",
"101 432 LINE SMOOTH",
"63 432 OFFCURVE",
"41 410 OFFCURVE",
"41 370 CURVE SMOOTH",
"41 146 OFFCURVE",
"174 -12 OFFCURVE",
"419 -12 CURVE SMOOTH"
);
}
);
width = 820;
},
{
anchors = (
{
name = bottom;
position = "{332, 0}";
},
{
name = top;
position = "{444, 705}";
}
);
background = {
anchors = (
{
name = bottom;
position = "{332, 0}";
},
{
name = top;
position = "{444, 705}";
}
);
paths = (
{
closed = 1;
nodes = (
"573 -8 OFFCURVE",
"704 162 OFFCURVE",
"704 416 CURVE SMOOTH",
"704 587 OFFCURVE",
"586 713 OFFCURVE",
"412 713 CURVE SMOOTH",
"294 713 OFFCURVE",
"202 684 OFFCURVE",
"134 619 CURVE",
"153 583 LINE",
"224 646 OFFCURVE",
"292 672 OFFCURVE",
"405 672 CURVE SMOOTH",
"561 672 OFFCURVE",
"659 570 OFFCURVE",
"659 416 CURVE SMOOTH",
"659 199 OFFCURVE",
"554 33 OFFCURVE",
"358 33 CURVE SMOOTH",
"163 33 OFFCURVE",
"103 178 OFFCURVE",
"127 353 CURVE",
"113 337 LINE",
"656 337 LINE",
"662 376 LINE",
"87 376 LINE",
"83 349 LINE SMOOTH",
"56 170 OFFCURVE",
"135 -8 OFFCURVE",
"352 -8 CURVE SMOOTH"
);
}
);
};
guideLines = (
{
position = "{-407, 586}";
}
);
layerId = "D8D4984A-F5A5-43C0-BF2B-5708C10C5E92";
paths = (
{
closed = 1;
nodes = (
"573 -8 OFFCURVE",
"704 162 OFFCURVE",
"704 416 CURVE SMOOTH",
"704 587 OFFCURVE",
"586 713 OFFCURVE",
"412 713 CURVE SMOOTH",
"303 713 OFFCURVE",
"210 687 OFFCURVE",
"146 629 CURVE SMOOTH",
"121 607 OFFCURVE",
"144 574 OFFCURVE",
"170 596 CURVE SMOOTH",
"231 649 OFFCURVE",
"303 672 OFFCURVE",
"405 672 CURVE SMOOTH",
"561 672 OFFCURVE",
"659 570 OFFCURVE",
"659 416 CURVE SMOOTH",
"659 199 OFFCURVE",
"554 33 OFFCURVE",
"358 33 CURVE SMOOTH",
"163 33 OFFCURVE",
"103 178 OFFCURVE",
"127 353 CURVE",
"113 337 LINE",
"666 337 LINE",
"672 376 LINE",
"108 376 LINE SMOOTH",
"92 376 OFFCURVE",
"86 369 OFFCURVE",
"83 349 CURVE SMOOTH",
"56 170 OFFCURVE",
"135 -8 OFFCURVE",
"352 -8 CURVE SMOOTH"
);
}
);
width = 751;
},
{
anchors = (
{
name = bottom;
position = "{376, 0}";
},
{
name = top;
position = "{487, 705}";
}
);
background = {
anchors = (
{
name = bottom;
position = "{376, 0}";
},
{
name = top;
position = "{487, 705}";
}
);
paths = (
{
closed = 1;
nodes = (
"679 -12 OFFCURVE",
"795 193 OFFCURVE",
"795 383 CURVE SMOOTH",
"795 592 OFFCURVE",
"644 717 OFFCURVE",
"427 717 CURVE SMOOTH",
"301 717 OFFCURVE",
"192 688 OFFCURVE",
"110 646 CURVE",
"173 482 LINE",
"238 517 OFFCURVE",
"324 538 OFFCURVE",
"396 538 CURVE SMOOTH",
"511 538 OFFCURVE",
"572 487 OFFCURVE",
"572 393 CURVE SMOOTH",
"572 268 OFFCURVE",
"527 158 OFFCURVE",
"406 158 CURVE SMOOTH",
"309 158 OFFCURVE",
"255 218 OFFCURVE",
"277 353 CURVE",
"208 271 LINE",
"615 271 LINE",
"640 432 LINE",
"72 432 LINE",
"65 390 LINE SMOOTH",
"24 147 OFFCURVE",
"172 -12 OFFCURVE",
"399 -12 CURVE SMOOTH"
);
}
);
};
layerId = "C92D7C27-2246-4784-91DF-7F4E0C5E615D";
paths = (
{
closed = 1;
nodes = (
"679 -12 OFFCURVE",
"795 193 OFFCURVE",
"795 383 CURVE SMOOTH",
"795 592 OFFCURVE",
"644 717 OFFCURVE",
"427 717 CURVE SMOOTH",
"340 717 OFFCURVE",
"251 705 OFFCURVE",
"183 678 CURVE SMOOTH",
"72 634 OFFCURVE",
"125 475 OFFCURVE",
"248 514 CURVE SMOOTH",
"294 528 OFFCURVE",
"353 538 OFFCURVE",
"396 538 CURVE SMOOTH",
"511 538 OFFCURVE",
"572 487 OFFCURVE",
"572 393 CURVE SMOOTH",
"572 268 OFFCURVE",
"527 158 OFFCURVE",
"406 158 CURVE SMOOTH",
"309 158 OFFCURVE",
"255 218 OFFCURVE",
"277 353 CURVE",
"208 271 LINE",
"615 271 LINE",
"640 432 LINE",
"137 432 LINE SMOOTH",
"91 432 OFFCURVE",
"70 418 OFFCURVE",
"65 390 CURVE SMOOTH",
"24 147 OFFCURVE",
"172 -12 OFFCURVE",
"399 -12 CURVE SMOOTH"
);
}
);
width = 820;
}
);
leftKerningGroup = O;
rightKerningGroup = O;
unicode = 018F;
},
{
color = 3;
glyphname = T;
lastChange = "2019-10-23 10:08:15 +0000";
layers = (
{
anchors = (
{
name = bottom;
position = "{293, 0}";
},
{
name = center;
position = "{293, 358}";
},
{
name = top;
position = "{293, 705}";
}
);
background = {
anchors = (
{
name = bottom;
position = "{293, 0}";
},
{
name = center;
position = "{293, 358}";
},
{
name = top;
position = "{293, 705}";
}
);
paths = (
{
closed = 1;
nodes = (
"314 0 LINE",
"314 666 LINE",
"583 666 LINE",
"583 705 LINE",
"3 705 LINE",
"3 666 LINE",
"272 666 LINE",
"272 0 LINE"
);
}
);
};
layerId = "F1F93986-3ED8-4AAE-84C4-CA3EEECDDFA0";
paths = (
{
closed = 1;
nodes = (
"307 -6 OFFCURVE",
"314 2 OFFCURVE",
"314 16 CURVE SMOOTH",
"314 666 LINE",
"567 666 LINE SMOOTH",
"581 666 OFFCURVE",
"589 673 OFFCURVE",
"589 686 CURVE SMOOTH",
"589 698 OFFCURVE",
"581 705 OFFCURVE",
"567 705 CURVE SMOOTH",
"19 705 LINE SMOOTH",
"5 705 OFFCURVE",
"-3 698 OFFCURVE",
"-3 686 CURVE SMOOTH",
"-3 674 OFFCURVE",
"5 666 OFFCURVE",
"19 666 CURVE SMOOTH",
"272 666 LINE",
"272 16 LINE SMOOTH",
"272 2 OFFCURVE",
"280 -6 OFFCURVE",
"293 -6 CURVE SMOOTH"
);
}
);
width = 586;
},
{
anchors = (
{
name = bottom;
position = "{329, 0}";
},
{
name = center;
position = "{328, 358}";
},
{
name = top;
position = "{328, 705}";
}
);
background = {
anchors = (
{
name = bottom;
position = "{329, 0}";
},
{
name = center;
position = "{328, 358}";
},
{
name = top;
position = "{328, 705}";
}
);
paths = (
{
closed = 1;
nodes = (
"436 0 LINE",
"436 531 LINE",
"650 531 LINE",
"650 705 LINE",
"7 705 LINE",
"7 531 LINE",
"221 531 LINE",
"221 0 LINE"
);
}
);
};
layerId = "4121B50C-FD42-45C5-8FBE-41E76D98F91E";
paths = (
{
closed = 1;
nodes = (
"399 -10 OFFCURVE",
"436 29 OFFCURVE",
"436 99 CURVE SMOOTH",
"436 531 LINE",
"572 531 LINE SMOOTH",
"629 531 OFFCURVE",
"660 562 OFFCURVE",
"660 618 CURVE SMOOTH",
"660 674 OFFCURVE",
"629 705 OFFCURVE",
"572 705 CURVE SMOOTH",
"85 705 LINE SMOOTH",
"28 705 OFFCURVE",
"-3 674 OFFCURVE",
"-3 618 CURVE SMOOTH",
"-3 562 OFFCURVE",
"28 531 OFFCURVE",
"85 531 CURVE SMOOTH",
"221 531 LINE",
"221 99 LINE SMOOTH",
"221 29 OFFCURVE",
"260 -10 OFFCURVE",
"329 -10 CURVE SMOOTH"
);
}
);
width = 657;
},
{
anchors = (
{
name = bottom;
position = "{254, 0}";
},
{
name = center;
position = "{311, 358}";
},
{
name = top;
position = "{366, 705}";
}
);
background = {
anchors = (
{
name = bottom;
position = "{254, 0}";
},
{
name = center;
position = "{311, 358}";
},
{
name = top;
position = "{366, 705}";
}
);
paths = (
{
closed = 1;
nodes = (
"275 0 LINE",
"381 666 LINE",
"650 666 LINE",
"656 705 LINE",
"76 705 LINE",
"70 666 LINE",
"339 666 LINE",
"233 0 LINE"
);
}
);
};
layerId = "D8D4984A-F5A5-43C0-BF2B-5708C10C5E92";
paths = (
{
closed = 1;
nodes = (
"268 -6 OFFCURVE",
"276 1 OFFCURVE",
"278 15 CURVE SMOOTH",
"381 666 LINE",
"635 666 LINE SMOOTH",
"650 666 OFFCURVE",
"659 674 OFFCURVE",
"659 689 CURVE SMOOTH",
"659 700 OFFCURVE",
"651 705 OFFCURVE",
"637 705 CURVE SMOOTH",
"91 705 LINE SMOOTH",
"77 705 OFFCURVE",
"67 697 OFFCURVE",
"67 683 CURVE SMOOTH",
"67 672 OFFCURVE",
"75 666 OFFCURVE",
"89 666 CURVE SMOOTH",
"339 666 LINE",
"237 19 LINE SMOOTH",
"234 3 OFFCURVE",
"241 -6 OFFCURVE",
"254 -6 CURVE SMOOTH"
);
}
);
width = 586;
},
{
anchors = (
{
name = bottom;
position = "{291, 0}";
},
{
name = center;
position = "{346, 358}";
},
{
name = top;
position = "{398, 705}";
}
);
background = {
anchors = (
{
name = bottom;
position = "{291, 0}";
},
{
name = center;
position = "{346, 358}";
},
{
name = top;
position = "{398, 705}";
}
);
paths = (
{
closed = 1;
nodes = (
"397 0 LINE",
"481 531 LINE",
"695 531 LINE",
"723 705 LINE",
"80 705 LINE",
"52 531 LINE",
"266 531 LINE",
"182 0 LINE"
);
}
);
};
layerId = "C92D7C27-2246-4784-91DF-7F4E0C5E615D";
paths = (
{
closed = 1;
nodes = (
"362 -10 OFFCURVE",
"401 26 OFFCURVE",
"412 96 CURVE SMOOTH",
"481 531 LINE",
"616 531 LINE SMOOTH",
"681 531 OFFCURVE",
"720 570 OFFCURVE",
"720 635 CURVE SMOOTH",
"720 679 OFFCURVE",
"687 705 OFFCURVE",
"628 705 CURVE SMOOTH",
"159 705 LINE SMOOTH",
"94 705 OFFCURVE",
"55 666 OFFCURVE",
"55 601 CURVE SMOOTH",
"55 557 OFFCURVE",
"88 531 OFFCURVE",
"147 531 CURVE SMOOTH",
"266 531 LINE",
"200 115 LINE SMOOTH",
"187 36 OFFCURVE",
"223 -10 OFFCURVE",
"291 -10 CURVE SMOOTH"
);
}
);
width = 657;
}
);
leftKerningGroup = T;
rightKerningGroup = T;
unicode = 0054;
userData = {
anchors = (
);
b = {
};
com.typemytype.robofont.layerData = {
b = {
anchors = (
);
components = (
);
contours = (
{
points = (
{
segmentType = curve;
smooth = 1;
x = 581;
y = 0;
},
{
segmentType = line;
smooth = 1;
x = 1350;
y = 0;
},
{
smooth = 0;
x = 1399;
y = 0;
},
{
smooth = 0;
x = 1423;
y = 34;
},
{
segmentType = curve;
smooth = 1;
x = 1423;
y = 71;
},
{
smooth = 0;
x = 1423;
y = 107;
},
{
smooth = 0;
x = 1399;
y = 141;
},
{
segmentType = curve;
smooth = 1;
x = 1350;
y = 141;
},
{
segmentType = line;
smooth = 0;
x = 671;
y = 141;
},
{
segmentType = line;
smooth = 0;
x = 671;
y = 665;
},
{
segmentType = line;
smooth = 1;
x = 1290;
y = 665;
},
{
smooth = 0;
x = 1339;
y = 665;
},
{
smooth = 0;
x = 1364;
y = 698;
},
{
segmentType = curve;
smooth = 1;
x = 1364;
y = 734;
},
{
smooth = 0;
x = 1364;
y = 770;
},
{
smooth = 0;
x = 1341;
y = 803;
},
{
segmentType = curve;
smooth = 1;
x = 1290;
y = 803;
},
{
segmentType = line;
smooth = 0;
x = 671;
y = 803;
},
{
segmentType = line;
smooth = 0;
x = 671;
y = 1285;
},
{
segmentType = line;
smooth = 1;
x = 1322;
y = 1285;
},
{
smooth = 0;
x = 1371;
y = 1285;
},
{
smooth = 0;
x = 1395;
y = 1319;
},
{
segmentType = curve;
smooth = 1;
x = 1395;
y = 1356;
},
{
smooth = 0;
x = 1395;
y = 1392;
},
{
smooth = 0;
x = 1371;
y = 1426;
},
{
segmentType = curve;
smooth = 1;
x = 1322;
y = 1426;
},
{
segmentType = line;
smooth = 1;
x = 576;
y = 1426;
},
{
smooth = 0;
x = 528;
y = 1426;
},
{
smooth = 0;
x = 493;
y = 1383;
},
{
segmentType = curve;
smooth = 1;
x = 493;
y = 1340;
},
{
segmentType = line;
smooth = 1;
x = 493;
y = 86;
},
{
smooth = 0;
x = 493;
y = 41;
},
{
smooth = 0;
x = 537;
y = 0;
}
);
}
);
lib = {
};
name = T;
unicodes = (
);
width = 1158;
};
};
components = (
);
contours = (
);
lib = {
};
name = T;
unicodes = (
);
width = 1199;
};
},
{
color = 3;
glyphname = U;
lastChange = "2019-10-23 10:16:32 +0000";
layers = (
{
anchors = (
{
name = bottom;
position = "{360, 0}";
},
{
name = ogonek;
position = "{417, 0}";
},
{
name = top;
position = "{360, 705}";
},
{
name = topright;
position = "{588, 705}";
}
);
background = {
anchors = (
{
name = bottom;
position = "{360, 0}";
},
{
name = ogonek;
position = "{417, 0}";
},
{
name = top;
position = "{360, 705}";
},
{
name = topright;
position = "{588, 705}";
}
);
paths = (
{
closed = 1;
nodes = (
"536 -8 OFFCURVE",
"629 90 OFFCURVE",
"629 271 CURVE SMOOTH",
"629 705 LINE",
"587 705 LINE",
"587 277 LINE SMOOTH",
"587 113 OFFCURVE",
"510 33 OFFCURVE",
"360 33 CURVE SMOOTH",
"210 33 OFFCURVE",
"133 113 OFFCURVE",
"133 277 CURVE SMOOTH",
"133 705 LINE",
"91 705 LINE",
"91 271 LINE SMOOTH",
"91 90 OFFCURVE",
"184 -8 OFFCURVE",
"360 -8 CURVE SMOOTH"
);
}
);
};
layerId = "F1F93986-3ED8-4AAE-84C4-CA3EEECDDFA0";
paths = (
{
closed = 1;
nodes = (
"536 -8 OFFCURVE",
"629 90 OFFCURVE",
"629 271 CURVE SMOOTH",
"629 689 LINE SMOOTH",
"629 703 OFFCURVE",
"621 711 OFFCURVE",
"608 711 CURVE SMOOTH",
"595 711 OFFCURVE",
"587 703 OFFCURVE",
"587 689 CURVE SMOOTH",
"587 277 LINE SMOOTH",
"587 113 OFFCURVE",
"510 33 OFFCURVE",
"360 33 CURVE SMOOTH",
"210 33 OFFCURVE",
"133 113 OFFCURVE",
"133 277 CURVE SMOOTH",
"133 689 LINE SMOOTH",
"133 703 OFFCURVE",
"125 711 OFFCURVE",
"112 711 CURVE SMOOTH",
"99 711 OFFCURVE",
"91 703 OFFCURVE",
"91 689 CURVE SMOOTH",
"91 271 LINE SMOOTH",
"91 90 OFFCURVE",
"184 -8 OFFCURVE",
"360 -8 CURVE SMOOTH"
);
}
);
width = 720;
},
{
anchors = (
{
name = bottom;
position = "{379, 0}";
},
{
name = ogonek;
position = "{437, 0}";
},
{
name = top;
position = "{379, 705}";
},
{
name = topright;
position = "{557, 705}";
}
);
background = {
anchors = (
{
name = bottom;
position = "{379, 0}";
},
{
name = ogonek;
position = "{437, 0}";
},
{
name = top;
position = "{379, 705}";
},
{
name = topright;
position = "{557, 705}";
}
);
paths = (
{
closed = 1;
nodes = (
"591 -12 OFFCURVE",
"702 93 OFFCURVE",
"702 307 CURVE SMOOTH",
"702 705 LINE",
"491 705 LINE",
"491 303 LINE SMOOTH",
"491 213 OFFCURVE",
"451 167 OFFCURVE",
"379 167 CURVE SMOOTH",
"307 167 OFFCURVE",
"267 213 OFFCURVE",
"267 303 CURVE SMOOTH",
"267 705 LINE",
"52 705 LINE",
"52 307 LINE SMOOTH",
"52 93 OFFCURVE",
"167 -12 OFFCURVE",
"379 -12 CURVE SMOOTH"
);
}
);
};
layerId = "4121B50C-FD42-45C5-8FBE-41E76D98F91E";
paths = (
{
closed = 1;
nodes = (
"591 -12 OFFCURVE",
"702 93 OFFCURVE",
"702 307 CURVE SMOOTH",
"702 606 LINE SMOOTH",
"702 676 OFFCURVE",
"665 715 OFFCURVE",
"597 715 CURVE SMOOTH",
"529 715 OFFCURVE",
"491 676 OFFCURVE",
"491 606 CURVE SMOOTH",
"491 303 LINE SMOOTH",
"491 213 OFFCURVE",
"451 167 OFFCURVE",
"379 167 CURVE SMOOTH",
"307 167 OFFCURVE",
"267 213 OFFCURVE",
"267 303 CURVE SMOOTH",
"267 606 LINE SMOOTH",
"267 676 OFFCURVE",
"229 715 OFFCURVE",
"160 715 CURVE SMOOTH",
"91 715 OFFCURVE",
"52 676 OFFCURVE",
"52 606 CURVE SMOOTH",
"52 307 LINE SMOOTH",
"52 93 OFFCURVE",
"167 -12 OFFCURVE",
"379 -12 CURVE SMOOTH"
);
}
);
width = 754;
},
{
anchors = (
{
name = bottom;
position = "{322, 0}";
},
{
name = ogonek;
position = "{384, 0}";
},
{
name = top;
position = "{433, 705}";
},
{
name = topright;
position = "{660, 705}";
}
);
background = {
anchors = (
{
name = bottom;
position = "{322, 0}";
},
{
name = ogonek;
position = "{384, 0}";
},
{
name = top;
position = "{433, 705}";
},
{
name = topright;
position = "{660, 705}";
}
);
paths = (
{
closed = 1;
nodes = (
"506 -8 OFFCURVE",
"604 81 OFFCURVE",
"632 261 CURVE SMOOTH",
"702 705 LINE",
"660 705 LINE",
"591 270 LINE SMOOTH",
"564 103 OFFCURVE",
"480 33 OFFCURVE",
"330 33 CURVE SMOOTH",
"179 33 OFFCURVE",
"114 114 OFFCURVE",
"140 282 CURVE SMOOTH",
"207 705 LINE",
"165 705 LINE",
"99 288 LINE SMOOTH",
"68 92 OFFCURVE",
"154 -8 OFFCURVE",
"330 -8 CURVE SMOOTH"
);
}
);
};
layerId = "D8D4984A-F5A5-43C0-BF2B-5708C10C5E92";
paths = (
{
closed = 1;
nodes = (
"506 -8 OFFCURVE",
"604 81 OFFCURVE",
"632 261 CURVE SMOOTH",
"699 686 LINE SMOOTH",
"702 702 OFFCURVE",
"695 711 OFFCURVE",
"682 711 CURVE SMOOTH",
"668 711 OFFCURVE",
"660 704 OFFCURVE",
"658 690 CURVE SMOOTH",
"591 270 LINE SMOOTH",
"564 103 OFFCURVE",
"480 33 OFFCURVE",
"330 33 CURVE SMOOTH",
"179 33 OFFCURVE",
"113 114 OFFCURVE",
"140 282 CURVE SMOOTH",
"204 686 LINE SMOOTH",
"207 702 OFFCURVE",
"200 711 OFFCURVE",
"187 711 CURVE SMOOTH",
"173 711 OFFCURVE",
"165 704 OFFCURVE",
"163 690 CURVE SMOOTH",
"99 288 LINE SMOOTH",
"68 92 OFFCURVE",
"154 -8 OFFCURVE",
"330 -8 CURVE SMOOTH"
);
}
);
width = 720;
},
{
anchors = (
{
name = bottom;
position = "{346, 0}";
},
{
name = ogonek;
position = "{408, 0}";
},
{
name = top;
position = "{448, 705}";
},
{
name = topright;
position = "{620, 705}";
}
);
background = {
anchors = (
{
name = bottom;
position = "{346, 0}";
},
{
name = ogonek;
position = "{408, 0}";
},
{
name = top;
position = "{448, 705}";
},
{
name = topright;
position = "{620, 705}";
}
);
paths = (
{
closed = 1;
nodes = (
"578 -12 OFFCURVE",
"679 99 OFFCURVE",
"710 296 CURVE SMOOTH",
"774 705 LINE",
"563 705 LINE",
"497 284 LINE SMOOTH",
"485 205 OFFCURVE",
"440 166 OFFCURVE",
"372 166 CURVE SMOOTH",
"293 166 OFFCURVE",
"265 224 OFFCURVE",
"279 314 CURVE SMOOTH",
"339 705 LINE",
"124 705 LINE",
"64 325 LINE SMOOTH",
"27 95 OFFCURVE",
"169 -12 OFFCURVE",
"354 -12 CURVE SMOOTH"
);
}
);
};
guideLines = (
{
angle = 81.1065;
position = "{446, 515}";
},
{
position = "{451, 705}";
}
);
layerId = "C92D7C27-2246-4784-91DF-7F4E0C5E615D";
paths = (
{
closed = 1;
nodes = (
"578 -12 OFFCURVE",
"679 99 OFFCURVE",
"710 296 CURVE SMOOTH",
"758 598 LINE SMOOTH",
"770 672 OFFCURVE",
"735 715 OFFCURVE",
"666 715 CURVE SMOOTH",
"599 715 OFFCURVE",
"560 682 OFFCURVE",
"549 615 CURVE SMOOTH",
"497 284 LINE SMOOTH",
"485 205 OFFCURVE",
"440 166 OFFCURVE",
"372 166 CURVE SMOOTH",
"293 166 OFFCURVE",
"263 224 OFFCURVE",
"277 314 CURVE SMOOTH",
"322 597 LINE SMOOTH",
"334 671 OFFCURVE",
"299 715 OFFCURVE",
"227 715 CURVE SMOOTH",
"160 715 OFFCURVE",
"120 681 OFFCURVE",
"110 615 CURVE SMOOTH",
"64 325 LINE SMOOTH",
"28 95 OFFCURVE",
"169 -12 OFFCURVE",
"354 -12 CURVE SMOOTH"
);
}
);
width = 754;
}
);
leftKerningGroup = U;
rightKerningGroup = U;
unicode = 0055;
userData = {
anchors = (
);
b = {
};
com.typemytype.robofont.layerData = {
b = {
anchors = (
);
components = (
);
contours = (
);
lib = {
};
name = U;
unicodes = (
);
width = 1490;
};
};
components = (
);
contours = (
);
lib = {
};
name = U;
unicodes = (
);
width = 1513;
};
},
